G04*
G04 #@! TF.GenerationSoftware,Altium Limited,Altium Designer,24.2.2 (26)*
G04*
G04 Layer_Color=8421504*
%FSLAX25Y25*%
%MOIN*%
G70*
G04*
G04 #@! TF.SameCoordinates,68C129F3-C7C4-414E-B264-5C09C29A3FA5*
G04*
G04*
G04 #@! TF.FilePolarity,Positive*
G04*
G01*
G75*
%ADD21R,0.03740X0.01575*%
%ADD22R,0.03150X0.02362*%
%ADD23R,0.02200X0.03500*%
%ADD24R,0.01181X0.00787*%
%ADD25R,0.01378X0.00787*%
%ADD26R,0.00787X0.01181*%
%ADD27R,0.00787X0.01378*%
%ADD28R,0.03500X0.02200*%
%ADD29R,0.17717X0.04331*%
%ADD30R,0.01575X0.01575*%
%ADD31R,0.03150X0.04724*%
%ADD32R,0.03900X0.01400*%
%ADD33R,0.04331X0.02362*%
%ADD34R,0.03200X0.03500*%
%ADD35R,0.03600X0.06500*%
%ADD36R,0.06500X0.03600*%
%ADD37R,0.03500X0.03200*%
%ADD38R,0.01000X0.02800*%
%ADD39R,0.02800X0.01000*%
%ADD40R,0.04900X0.04900*%
%ADD41C,0.00906*%
%ADD42R,0.03543X0.03150*%
%ADD43C,0.01378*%
%ADD44R,0.05300X0.02000*%
%ADD45R,0.02000X0.05300*%
%ADD46R,0.07087X0.07874*%
%ADD47R,0.05512X0.02992*%
%ADD48R,0.02362X0.04331*%
%ADD49R,0.01968X0.00984*%
%ADD50C,0.03937*%
%ADD51R,0.03740X0.03543*%
%ADD52R,0.03543X0.03740*%
G36*
X477567Y250684D02*
Y250093D01*
X477370Y249896D01*
X476780D01*
X476583Y250093D01*
Y250684D01*
X476780Y250880D01*
X477370D01*
X477567Y250684D01*
D02*
G37*
G36*
X475992D02*
Y250093D01*
X475795Y249896D01*
X475205D01*
X475008Y250093D01*
Y250684D01*
X475205Y250880D01*
X475795D01*
X475992Y250684D01*
D02*
G37*
G36*
X474417D02*
Y250093D01*
X474221Y249896D01*
X473630D01*
X473433Y250093D01*
Y250684D01*
X473630Y250880D01*
X474221D01*
X474417Y250684D01*
D02*
G37*
G36*
X477567Y249109D02*
Y248518D01*
X477370Y248321D01*
X476780D01*
X476583Y248518D01*
Y249109D01*
X476780Y249306D01*
X477370D01*
X477567Y249109D01*
D02*
G37*
G36*
X475992D02*
Y248518D01*
X475795Y248321D01*
X475205D01*
X475008Y248518D01*
Y249109D01*
X475205Y249306D01*
X475795D01*
X475992Y249109D01*
D02*
G37*
G36*
X474417D02*
Y248518D01*
X474221Y248321D01*
X473630D01*
X473433Y248518D01*
Y249109D01*
X473630Y249306D01*
X474221D01*
X474417Y249109D01*
D02*
G37*
G36*
X481816Y151747D02*
X481853Y151736D01*
X481886Y151718D01*
X481915Y151694D01*
X481939Y151665D01*
X481957Y151631D01*
X481968Y151595D01*
X481972Y151558D01*
Y149188D01*
X481968Y149150D01*
X481957Y149114D01*
X481939Y149080D01*
X481915Y149051D01*
X481886Y149027D01*
X481853Y149009D01*
X481816Y148998D01*
X481779Y148995D01*
X478621D01*
X478584Y148998D01*
X478547Y149009D01*
X478514Y149027D01*
X478485Y149051D01*
X478461Y149080D01*
X478443Y149114D01*
X478432Y149150D01*
X478428Y149188D01*
Y151558D01*
X478432Y151595D01*
X478443Y151631D01*
X478461Y151665D01*
X478485Y151694D01*
X478514Y151718D01*
X478547Y151736D01*
X478584Y151747D01*
X478621Y151751D01*
X481779D01*
X481816Y151747D01*
D02*
G37*
G36*
Y148204D02*
X481853Y148193D01*
X481886Y148175D01*
X481915Y148151D01*
X481939Y148122D01*
X481957Y148088D01*
X481968Y148052D01*
X481972Y148014D01*
Y145644D01*
X481968Y145607D01*
X481957Y145570D01*
X481939Y145537D01*
X481915Y145508D01*
X481886Y145484D01*
X481853Y145466D01*
X481816Y145455D01*
X481779Y145451D01*
X478621D01*
X478584Y145455D01*
X478547Y145466D01*
X478514Y145484D01*
X478485Y145508D01*
X478461Y145537D01*
X478443Y145570D01*
X478432Y145607D01*
X478428Y145644D01*
Y148014D01*
X478432Y148052D01*
X478443Y148088D01*
X478461Y148122D01*
X478485Y148151D01*
X478514Y148175D01*
X478547Y148193D01*
X478584Y148204D01*
X478621Y148207D01*
X481779D01*
X481816Y148204D01*
D02*
G37*
D21*
X431969Y257060D02*
D03*
Y254501D02*
D03*
Y251942D02*
D03*
X440631Y257060D02*
D03*
Y251942D02*
D03*
D22*
X504600Y230212D02*
D03*
Y224700D02*
D03*
X533100Y202544D02*
D03*
Y208056D02*
D03*
D23*
X541150Y214400D02*
D03*
X533850D02*
D03*
X433300Y271800D02*
D03*
X440600D02*
D03*
X433350Y264301D02*
D03*
X440650D02*
D03*
X450250Y193101D02*
D03*
X442950D02*
D03*
X470549Y315800D02*
D03*
X463249D02*
D03*
X470449Y351700D02*
D03*
X463149D02*
D03*
X242150Y93600D02*
D03*
X249450D02*
D03*
X242250Y101000D02*
D03*
X249550D02*
D03*
X326150Y188500D02*
D03*
X318850D02*
D03*
X354450Y227600D02*
D03*
X361750D02*
D03*
X376850Y203000D02*
D03*
X384150D02*
D03*
X527649Y321500D02*
D03*
X520349D02*
D03*
X527599Y328800D02*
D03*
X520299D02*
D03*
X501350Y319000D02*
D03*
X508650D02*
D03*
X501250Y326400D02*
D03*
X508550D02*
D03*
X289450Y98600D02*
D03*
X282150D02*
D03*
X289450Y106400D02*
D03*
X282150D02*
D03*
X311150Y103000D02*
D03*
X318450D02*
D03*
X311150Y110700D02*
D03*
X318450D02*
D03*
X558350Y177200D02*
D03*
X551050D02*
D03*
X406300Y187782D02*
D03*
X413600D02*
D03*
X406300Y179982D02*
D03*
X413600D02*
D03*
X406300Y164882D02*
D03*
X413600D02*
D03*
X406300Y157082D02*
D03*
X413600D02*
D03*
X558150Y184800D02*
D03*
X550850D02*
D03*
X534850Y93800D02*
D03*
X542150D02*
D03*
X428350Y104301D02*
D03*
X421050D02*
D03*
X428350Y111851D02*
D03*
X421050D02*
D03*
X483000Y80601D02*
D03*
X490300D02*
D03*
X483000Y87801D02*
D03*
X490300D02*
D03*
X482750Y139400D02*
D03*
X475450D02*
D03*
X482750Y132000D02*
D03*
X475450D02*
D03*
D24*
X453619Y309632D02*
D03*
X455981Y313569D02*
D03*
Y311601D02*
D03*
X453619Y313569D02*
D03*
Y311601D02*
D03*
X453519Y345532D02*
D03*
X455881Y349469D02*
D03*
Y347501D02*
D03*
X453519Y349469D02*
D03*
Y347501D02*
D03*
X389032Y115123D02*
D03*
X391394Y119060D02*
D03*
Y117091D02*
D03*
X389032Y119060D02*
D03*
Y117091D02*
D03*
D25*
X455981Y309632D02*
D03*
X455881Y345532D02*
D03*
X391394Y115123D02*
D03*
D26*
X419132Y174163D02*
D03*
X423069Y171801D02*
D03*
X421100D02*
D03*
X423069Y174163D02*
D03*
X421100D02*
D03*
D27*
X419132Y171801D02*
D03*
D28*
X466600Y263000D02*
D03*
Y255700D02*
D03*
X467500Y197450D02*
D03*
Y204750D02*
D03*
X474900Y197450D02*
D03*
Y204750D02*
D03*
X418200Y198951D02*
D03*
Y206251D02*
D03*
X509000Y274550D02*
D03*
Y281850D02*
D03*
X438200Y227850D02*
D03*
Y220550D02*
D03*
X390397Y198867D02*
D03*
Y206167D02*
D03*
X446700Y220050D02*
D03*
Y212750D02*
D03*
X454300Y220050D02*
D03*
Y212750D02*
D03*
X440457Y298754D02*
D03*
Y306054D02*
D03*
X447958Y298754D02*
D03*
Y306054D02*
D03*
X461800Y299450D02*
D03*
Y306750D02*
D03*
X469500Y299400D02*
D03*
Y306700D02*
D03*
X499800Y280750D02*
D03*
Y273450D02*
D03*
X540600Y267700D02*
D03*
Y260400D02*
D03*
X443900Y330600D02*
D03*
Y337900D02*
D03*
X451400Y330600D02*
D03*
Y337900D02*
D03*
X462100Y334150D02*
D03*
Y341450D02*
D03*
X469500Y334150D02*
D03*
Y341450D02*
D03*
X241200Y62150D02*
D03*
Y69450D02*
D03*
X233300Y62250D02*
D03*
Y69550D02*
D03*
X338000Y49350D02*
D03*
Y56650D02*
D03*
X330200Y49350D02*
D03*
Y56650D02*
D03*
X310900Y63650D02*
D03*
Y70950D02*
D03*
X303200Y63600D02*
D03*
Y70900D02*
D03*
X600500Y90351D02*
D03*
Y83051D02*
D03*
X321500Y225700D02*
D03*
Y218400D02*
D03*
X502400Y291650D02*
D03*
Y298950D02*
D03*
X495300Y291750D02*
D03*
Y299050D02*
D03*
X525500Y291151D02*
D03*
Y298451D02*
D03*
X532700Y291151D02*
D03*
Y298451D02*
D03*
X528300Y313650D02*
D03*
Y306350D02*
D03*
X535600Y313650D02*
D03*
Y306350D02*
D03*
X571100Y94651D02*
D03*
Y87351D02*
D03*
X304100Y55850D02*
D03*
Y48550D02*
D03*
X312000Y55850D02*
D03*
Y48550D02*
D03*
X375913Y103441D02*
D03*
Y110741D02*
D03*
X383313Y103441D02*
D03*
Y110741D02*
D03*
X396113Y103141D02*
D03*
Y110441D02*
D03*
X403513Y103141D02*
D03*
Y110441D02*
D03*
X451800Y116150D02*
D03*
Y108850D02*
D03*
X561900Y166001D02*
D03*
Y158701D02*
D03*
X554600Y166051D02*
D03*
Y158751D02*
D03*
X463400Y168750D02*
D03*
Y161450D02*
D03*
X573200Y120451D02*
D03*
Y127751D02*
D03*
X588700Y167151D02*
D03*
Y174451D02*
D03*
X588900Y102150D02*
D03*
Y109450D02*
D03*
X596700Y102150D02*
D03*
Y109450D02*
D03*
X444100Y115950D02*
D03*
Y108650D02*
D03*
D29*
X522700Y184162D02*
D03*
Y175501D02*
D03*
X480400Y184162D02*
D03*
Y175501D02*
D03*
D30*
X472150Y255300D02*
D03*
X478450D02*
D03*
D31*
X475300D02*
D03*
D32*
X583800Y158860D02*
D03*
Y156301D02*
D03*
Y153742D02*
D03*
X574600D02*
D03*
Y156301D02*
D03*
Y158860D02*
D03*
D33*
X570982Y109251D02*
D03*
Y105501D02*
D03*
Y101751D02*
D03*
X581218D02*
D03*
Y109251D02*
D03*
D34*
X442350Y312900D02*
D03*
X447450D02*
D03*
X452350Y205000D02*
D03*
X447250D02*
D03*
X323300Y162700D02*
D03*
X328400D02*
D03*
X357550Y105300D02*
D03*
X362650D02*
D03*
X447350Y344700D02*
D03*
X442250D02*
D03*
X382213Y117991D02*
D03*
X377113D02*
D03*
X288850Y52700D02*
D03*
X293950D02*
D03*
D35*
X412850Y248600D02*
D03*
X420750D02*
D03*
X449150Y254800D02*
D03*
X457050D02*
D03*
X386550Y264200D02*
D03*
X378650D02*
D03*
X484500Y160001D02*
D03*
X476600D02*
D03*
X385750Y128600D02*
D03*
X377850D02*
D03*
Y231000D02*
D03*
X369950D02*
D03*
X377650Y250500D02*
D03*
X369750D02*
D03*
X392550Y276900D02*
D03*
X384650D02*
D03*
X420050Y309200D02*
D03*
X427950D02*
D03*
X504350Y213000D02*
D03*
X496450D02*
D03*
X496550Y200500D02*
D03*
X504450D02*
D03*
X509250Y161700D02*
D03*
X501350D02*
D03*
X500750Y263700D02*
D03*
X508650D02*
D03*
X524650Y267500D02*
D03*
X532550D02*
D03*
X409950Y124600D02*
D03*
X402050D02*
D03*
X472950Y92200D02*
D03*
X465050D02*
D03*
X549500Y142800D02*
D03*
X541600D02*
D03*
X526850Y93800D02*
D03*
X518950D02*
D03*
X478750Y106500D02*
D03*
X486650D02*
D03*
X483850Y119500D02*
D03*
X475950D02*
D03*
X467050Y142400D02*
D03*
X459150D02*
D03*
X504150Y147400D02*
D03*
X496250D02*
D03*
Y134200D02*
D03*
X504150D02*
D03*
D36*
X367000Y262300D02*
D03*
Y270200D02*
D03*
X482000Y234050D02*
D03*
Y241950D02*
D03*
X480499Y324200D02*
D03*
Y316300D02*
D03*
X480500Y306750D02*
D03*
Y298850D02*
D03*
X480300Y338650D02*
D03*
Y346550D02*
D03*
X480500Y357250D02*
D03*
Y365150D02*
D03*
X467800Y234050D02*
D03*
Y241950D02*
D03*
X463200Y184850D02*
D03*
Y176950D02*
D03*
X485200Y204400D02*
D03*
Y196500D02*
D03*
X514700Y232450D02*
D03*
Y224550D02*
D03*
X522400Y209250D02*
D03*
Y201350D02*
D03*
X431000Y146750D02*
D03*
Y154650D02*
D03*
X540700Y166550D02*
D03*
Y174450D02*
D03*
X560800Y136250D02*
D03*
Y144150D02*
D03*
X520600Y113300D02*
D03*
Y105400D02*
D03*
X573100Y143850D02*
D03*
Y135950D02*
D03*
X540500Y185101D02*
D03*
Y193001D02*
D03*
X590400Y90951D02*
D03*
Y83051D02*
D03*
D37*
X421200Y184900D02*
D03*
Y179800D02*
D03*
D38*
X517199Y312500D02*
D03*
X515231D02*
D03*
X513262D02*
D03*
X511294D02*
D03*
Y301500D02*
D03*
X513262D02*
D03*
X515231D02*
D03*
X517199D02*
D03*
D39*
X508746Y309953D02*
D03*
Y307984D02*
D03*
Y306016D02*
D03*
Y304047D02*
D03*
X519746D02*
D03*
Y306016D02*
D03*
Y307984D02*
D03*
Y309953D02*
D03*
D40*
X514247Y307000D02*
D03*
D41*
X485876Y225687D02*
D03*
Y223915D02*
D03*
X495324Y225687D02*
D03*
Y223915D02*
D03*
D42*
X402658Y206355D02*
D03*
X409942D02*
D03*
Y200647D02*
D03*
X402658D02*
D03*
D43*
X427982Y211737D02*
D03*
X430541D02*
D03*
X433100D02*
D03*
X435659D02*
D03*
X438218D02*
D03*
X427982Y209178D02*
D03*
X430541D02*
D03*
X433100D02*
D03*
X435659D02*
D03*
X438218D02*
D03*
X427982Y206619D02*
D03*
X430541D02*
D03*
X433100D02*
D03*
X435659D02*
D03*
X438218D02*
D03*
X427982Y204060D02*
D03*
X430541D02*
D03*
X433100D02*
D03*
X435659D02*
D03*
X438218D02*
D03*
X427982Y201501D02*
D03*
X430541D02*
D03*
X433100D02*
D03*
X435659D02*
D03*
X438218D02*
D03*
D44*
X319502Y92340D02*
D03*
Y89191D02*
D03*
Y86041D02*
D03*
Y82891D02*
D03*
Y79742D02*
D03*
Y76592D02*
D03*
Y73443D02*
D03*
Y70293D02*
D03*
X352402D02*
D03*
Y73443D02*
D03*
Y76592D02*
D03*
Y79742D02*
D03*
Y82891D02*
D03*
Y86041D02*
D03*
Y89191D02*
D03*
Y92340D02*
D03*
X249952Y82140D02*
D03*
Y78991D02*
D03*
Y75841D02*
D03*
Y72691D02*
D03*
Y69542D02*
D03*
Y66392D02*
D03*
Y63243D02*
D03*
Y60093D02*
D03*
X282852D02*
D03*
Y63243D02*
D03*
Y66392D02*
D03*
Y69542D02*
D03*
Y72691D02*
D03*
Y75841D02*
D03*
Y78991D02*
D03*
Y82140D02*
D03*
D45*
X324928Y64867D02*
D03*
X328078D02*
D03*
X331228D02*
D03*
X334377D02*
D03*
X337527D02*
D03*
X340676D02*
D03*
X343826D02*
D03*
X346976D02*
D03*
Y97767D02*
D03*
X343826D02*
D03*
X340676D02*
D03*
X337527D02*
D03*
X334377D02*
D03*
X331228D02*
D03*
X328078D02*
D03*
X324928D02*
D03*
X277426Y87567D02*
D03*
X274276D02*
D03*
X271126D02*
D03*
X267977D02*
D03*
X264827D02*
D03*
X261678D02*
D03*
X258528D02*
D03*
X255378D02*
D03*
Y54667D02*
D03*
X258528D02*
D03*
X261678D02*
D03*
X264827D02*
D03*
X267977D02*
D03*
X271126D02*
D03*
X274276D02*
D03*
X277426D02*
D03*
D46*
X312400Y22566D02*
D03*
X322400D02*
D03*
X332400D02*
D03*
Y39101D02*
D03*
X322400D02*
D03*
X312400D02*
D03*
D47*
X567196Y174401D02*
D03*
Y184401D02*
D03*
X580700D02*
D03*
X567196Y179401D02*
D03*
X580700Y174401D02*
D03*
D48*
X458960Y109283D02*
D03*
X462700D02*
D03*
X466440D02*
D03*
X458960Y119519D02*
D03*
X462700D02*
D03*
X466440D02*
D03*
D49*
X476460Y145648D02*
D03*
X483940D02*
D03*
Y147617D02*
D03*
Y149585D02*
D03*
Y151554D02*
D03*
X476460D02*
D03*
Y149585D02*
D03*
Y147617D02*
D03*
D50*
X483300Y217600D02*
D03*
X412700Y257100D02*
D03*
X475200Y263300D02*
D03*
X282800Y24900D02*
D03*
X291900Y41500D02*
D03*
X231700Y79101D02*
D03*
X541900Y313800D02*
D03*
X457800Y265600D02*
D03*
X516000Y217400D02*
D03*
X476900Y223101D02*
D03*
X377800Y273800D02*
D03*
X366800Y284800D02*
D03*
X420200Y317700D02*
D03*
X431900Y194901D02*
D03*
X338000Y105901D02*
D03*
X409900Y212101D02*
D03*
X436700Y311700D02*
D03*
X498600Y249900D02*
D03*
X522000Y194100D02*
D03*
X436500Y342900D02*
D03*
X431800Y245901D02*
D03*
X497600Y336300D02*
D03*
X504000Y341100D02*
D03*
X359100Y92301D02*
D03*
X422300Y150201D02*
D03*
X240152Y81917D02*
D03*
X281700Y50701D02*
D03*
X392700Y128700D02*
D03*
X470000Y151701D02*
D03*
X429300Y176300D02*
D03*
X421000Y160801D02*
D03*
X438200Y132301D02*
D03*
X580900Y191201D02*
D03*
X432600Y137301D02*
D03*
X561600Y105700D02*
D03*
X512200Y103601D02*
D03*
X419700Y130901D02*
D03*
X566300Y80300D02*
D03*
X564600Y94700D02*
D03*
X498400Y103701D02*
D03*
X519000Y84900D02*
D03*
X582200Y167001D02*
D03*
X397400Y116301D02*
D03*
X492500Y158001D02*
D03*
X465100Y150800D02*
D03*
D51*
X343896Y162800D02*
D03*
X337400D02*
D03*
X564548Y120600D02*
D03*
X558052D02*
D03*
X588148Y120400D02*
D03*
X581652D02*
D03*
D52*
X258000Y97452D02*
D03*
Y103948D02*
D03*
X579800Y87653D02*
D03*
Y94149D02*
D03*
X551100Y100100D02*
D03*
Y106596D02*
D03*
M02*
