G04*
G04 #@! TF.GenerationSoftware,Altium Limited,Altium Designer,24.2.2 (26)*
G04*
G04 Layer_Color=32896*
%FSLAX25Y25*%
%MOIN*%
G70*
G04*
G04 #@! TF.SameCoordinates,68C129F3-C7C4-414E-B264-5C09C29A3FA5*
G04*
G04*
G04 #@! TF.FilePolarity,Positive*
G04*
G01*
G75*
%ADD10C,0.02000*%
%ADD11C,0.01000*%
%ADD12C,0.00600*%
%ADD13C,0.00394*%
%ADD15C,0.00591*%
%ADD16C,0.00787*%
%ADD17C,0.00700*%
%ADD19C,0.00500*%
%ADD20C,0.00300*%
%ADD145C,0.00984*%
G36*
X308743Y174109D02*
X307743D01*
Y175609D01*
X308743D01*
Y174109D01*
D02*
G37*
G36*
X329818Y144691D02*
X328318D01*
Y143691D01*
X329818D01*
Y144691D01*
D02*
G37*
G36*
X349503D02*
X348003D01*
Y143691D01*
X349503D01*
Y144691D01*
D02*
G37*
G36*
X308743Y193794D02*
X307743D01*
Y195294D01*
X308743D01*
Y193794D01*
D02*
G37*
G36*
Y213479D02*
X307743D01*
Y214979D01*
X308743D01*
Y213479D01*
D02*
G37*
G36*
X327849Y238491D02*
X326349D01*
Y239491D01*
X327849D01*
Y238491D01*
D02*
G37*
G36*
X347534D02*
X346035D01*
Y239491D01*
X347534D01*
Y238491D01*
D02*
G37*
G36*
X369188Y144691D02*
X367688D01*
Y143691D01*
X369188D01*
Y144691D01*
D02*
G37*
G36*
X388873D02*
X387373D01*
Y143691D01*
X388873D01*
Y144691D01*
D02*
G37*
G36*
X402543Y172141D02*
X403543D01*
Y173641D01*
X402543D01*
Y172141D01*
D02*
G37*
G36*
Y191826D02*
X403543D01*
Y193326D01*
X402543D01*
Y191826D01*
D02*
G37*
G36*
X367219Y238491D02*
X365720D01*
Y239491D01*
X367219D01*
Y238491D01*
D02*
G37*
G36*
X386905D02*
X385404D01*
Y239491D01*
X386905D01*
Y238491D01*
D02*
G37*
G36*
X402543Y211511D02*
X403543D01*
Y213011D01*
X402543D01*
Y211511D01*
D02*
G37*
D10*
X662795Y433563D02*
G03*
X662795Y433563I-18110J0D01*
G01*
Y25984D02*
G03*
X662795Y25984I-18110J0D01*
G01*
X223228D02*
G03*
X223228Y25984I-18110J0D01*
G01*
Y434252D02*
G03*
X223228Y434252I-18110J0D01*
G01*
D11*
X650306Y386516D02*
G03*
X650306Y386516I-3258J0D01*
G01*
X556205Y266443D02*
G03*
X556205Y266443I-2185J0D01*
G01*
X569602Y355596D02*
G03*
X569602Y355596I-510J0D01*
G01*
X656800Y100400D02*
G03*
X656800Y100400I-9000J0D01*
G01*
X656343Y137992D02*
G03*
X656343Y137992I-9000J0D01*
G01*
X217400Y297100D02*
G03*
X217400Y297100I-9000J0D01*
G01*
Y233700D02*
G03*
X217400Y233700I-9000J0D01*
G01*
X462500Y424100D02*
G03*
X462500Y424100I-9000J0D01*
G01*
X576949Y394748D02*
G03*
X576949Y394748I-200J0D01*
G01*
X309341Y424732D02*
G03*
X309341Y424732I-500J0D01*
G01*
X237112Y265900D02*
G03*
X237112Y265900I-200J0D01*
G01*
X410600Y423801D02*
G03*
X410600Y423801I-9000J0D01*
G01*
X512900D02*
G03*
X512900Y423801I-9000J0D01*
G01*
X557600D02*
G03*
X557600Y423801I-9000J0D01*
G01*
X534600D02*
G03*
X534600Y423801I-9000J0D01*
G01*
X619900D02*
G03*
X619900Y423801I-9000J0D01*
G01*
X476100Y22600D02*
G03*
X476100Y22600I-9000J0D01*
G01*
X420736Y6552D02*
G03*
X420736Y6552I-200J0D01*
G01*
X557600Y22600D02*
G03*
X557600Y22600I-9000J0D01*
G01*
X249800Y423801D02*
G03*
X249800Y423801I-9000J0D01*
G01*
X386700D02*
G03*
X386700Y423801I-9000J0D01*
G01*
X494562Y46321D02*
G03*
X494562Y46321I-200J0D01*
G01*
X381650Y301650D02*
Y307150D01*
X371350D02*
X381650D01*
X371350Y301650D02*
Y307150D01*
Y301650D02*
X381650D01*
X245300Y222350D02*
Y227850D01*
Y222350D02*
X255600D01*
Y227850D01*
X245300D02*
X255600D01*
X560250Y404850D02*
Y415150D01*
X554750Y404850D02*
X560250D01*
X554750D02*
Y415150D01*
X560250D01*
X407950Y268250D02*
X418250D01*
Y262750D02*
Y268250D01*
X407950Y262750D02*
X418250D01*
X407950D02*
Y268250D01*
X259450Y191750D02*
X269750D01*
Y186250D02*
Y191750D01*
X259450Y186250D02*
X269750D01*
X259450D02*
Y191750D01*
X261750Y420750D02*
Y431050D01*
X267250D01*
Y420750D02*
Y431050D01*
X261750Y420750D02*
X267250D01*
X406400Y229050D02*
X416700D01*
Y223550D02*
Y229050D01*
X406400Y223550D02*
X416700D01*
X406400D02*
Y229050D01*
X382450Y251450D02*
X392750D01*
Y245950D02*
Y251450D01*
X382450Y245950D02*
X392750D01*
X382450D02*
Y251450D01*
X407100Y196950D02*
X417400D01*
Y191450D02*
Y196950D01*
X407100Y191450D02*
X417400D01*
X407100D02*
Y196950D01*
X406700Y220750D02*
X417000D01*
Y215250D02*
Y220750D01*
X406700Y215250D02*
X417000D01*
X406700D02*
Y220750D01*
X297468Y181205D02*
X305735D01*
X297468Y169197D02*
Y181205D01*
Y169197D02*
X305735D01*
Y181205D01*
X576700Y396101D02*
Y404419D01*
X575500D02*
X576700D01*
X564200Y396101D02*
Y404419D01*
Y396101D02*
X565400D01*
X575500D02*
X576700D01*
X575500Y395210D02*
Y396101D01*
X565400Y395210D02*
Y396101D01*
Y395210D02*
X575500D01*
X564200Y404419D02*
X565400D01*
X575500D02*
Y405310D01*
X565400D02*
X575500D01*
X565400Y404419D02*
Y405310D01*
X227241Y265851D02*
X235559D01*
X227241Y264651D02*
Y265851D01*
Y253351D02*
X235559D01*
Y254551D01*
Y264651D02*
Y265851D01*
Y264651D02*
X236450D01*
X235559Y254551D02*
X236450D01*
Y264651D01*
X227241Y253351D02*
Y254551D01*
X226350Y264651D02*
X227241D01*
X226350Y254551D02*
Y264651D01*
Y254551D02*
X227241D01*
X223800Y208500D02*
X240200D01*
Y205660D02*
Y208500D01*
X223800Y196100D02*
X240200D01*
X223800D02*
Y198940D01*
Y205660D02*
Y208500D01*
X240200Y196100D02*
Y198940D01*
X220750Y199250D02*
Y205350D01*
Y199250D02*
X223300D01*
X240700D02*
X243250D01*
Y205350D01*
X240700D02*
X243250D01*
X220750D02*
X223300D01*
Y209000D01*
Y195600D02*
Y199250D01*
Y195600D02*
X240700D01*
Y199250D01*
Y205350D02*
Y209000D01*
X223300D02*
X240700D01*
X255100Y164250D02*
Y180650D01*
X257940D01*
X267500Y164250D02*
Y180650D01*
X264660Y164250D02*
X267500D01*
X255100D02*
X257940D01*
X264660Y180650D02*
X267500D01*
X258250Y161200D02*
X264350D01*
Y163750D01*
Y181150D02*
Y183700D01*
X258250D02*
X264350D01*
X258250Y181150D02*
Y183700D01*
Y161200D02*
Y163750D01*
X254600D02*
X258250D01*
X264350D02*
X268000D01*
Y181150D01*
X264350D02*
X268000D01*
X254600D02*
X258250D01*
X254600Y163750D02*
Y181150D01*
X501909Y52134D02*
Y57634D01*
Y52134D02*
X512209D01*
Y57634D01*
X501909D02*
X512209D01*
X586450Y408951D02*
Y414451D01*
Y408951D02*
X596750D01*
Y414451D01*
X586450D02*
X596750D01*
X596800Y401151D02*
Y406651D01*
X586500D02*
X596800D01*
X586500Y401151D02*
Y406651D01*
Y401151D02*
X596800D01*
X362100Y280650D02*
Y286150D01*
X351800D02*
X362100D01*
X351800Y280650D02*
Y286150D01*
Y280650D02*
X362100D01*
X291950Y183651D02*
Y189151D01*
X281650D02*
X291950D01*
X281650Y183651D02*
Y189151D01*
Y183651D02*
X291950D01*
X582000Y344500D02*
Y359500D01*
X571500Y344500D02*
Y359500D01*
Y344500D02*
X582000D01*
X571500Y359500D02*
X582000D01*
X593000Y343300D02*
Y358300D01*
X603500Y343300D02*
Y358300D01*
X593000D02*
X603500D01*
X593000Y343300D02*
X603500D01*
X316400Y127550D02*
Y133050D01*
X306100D02*
X316400D01*
X306100Y127550D02*
Y133050D01*
Y127550D02*
X316400D01*
X517150Y17551D02*
Y23051D01*
X506850D02*
X517150D01*
X506850Y17551D02*
Y23051D01*
Y17551D02*
X517150D01*
X467150Y415251D02*
X472650D01*
X467150Y404951D02*
Y415251D01*
Y404951D02*
X472650D01*
Y415251D01*
X511850Y397850D02*
Y403350D01*
X501550D02*
X511850D01*
X501550Y397850D02*
Y403350D01*
Y397850D02*
X511850D01*
X225350Y286001D02*
X230850D01*
X225350Y275701D02*
Y286001D01*
Y275701D02*
X230850D01*
Y286001D01*
X287071Y421260D02*
X292571D01*
Y431560D01*
X287071D02*
X292571D01*
X287071Y421260D02*
Y431560D01*
X243250Y238951D02*
Y244451D01*
X232950D02*
X243250D01*
X232950Y238951D02*
Y244451D01*
Y238951D02*
X243250D01*
X443500Y402451D02*
Y407951D01*
X433200D02*
X443500D01*
X433200Y402451D02*
Y407951D01*
Y402451D02*
X443500D01*
X225450Y244851D02*
Y250351D01*
X215150D02*
X225450D01*
X215150Y244851D02*
Y250351D01*
Y244851D02*
X225450D01*
X552378Y337511D02*
Y343011D01*
X542078D02*
X552378D01*
X542078Y337511D02*
Y343011D01*
Y337511D02*
X552378D01*
X611408Y234880D02*
X616908D01*
X611408Y224580D02*
Y234880D01*
Y224580D02*
X616908D01*
Y234880D01*
X433200Y409951D02*
Y415451D01*
Y409951D02*
X443500D01*
Y415451D01*
X433200D02*
X443500D01*
X386009Y9124D02*
Y38478D01*
X430969Y9124D02*
X434591D01*
X386009D02*
X397111D01*
X434591D02*
Y38478D01*
X386009D02*
X398095D01*
X429788D02*
X434591D01*
X296700Y263001D02*
X311700D01*
X296700Y252501D02*
X311700D01*
Y263001D01*
X296700Y252501D02*
Y263001D01*
X495839Y49273D02*
X509618D01*
X495839Y32147D02*
X509618D01*
Y49273D01*
X495839Y32147D02*
Y49273D01*
D12*
X315393Y151341D02*
X319334D01*
X315393D02*
Y155283D01*
Y231841D02*
X319334D01*
X395893Y227900D02*
Y231841D01*
X391951Y151341D02*
X395893D01*
X315393Y227900D02*
Y231841D01*
X391951D02*
X395893D01*
Y151341D02*
Y155283D01*
X298421Y449747D02*
X305421D01*
X298421Y435547D02*
X305421D01*
X298421D02*
Y449747D01*
X305421Y435547D02*
Y449747D01*
D13*
X253832Y204077D02*
G03*
X253832Y204077I-200J0D01*
G01*
X621736Y338884D02*
X622524Y338096D01*
X624886D01*
X624886Y263293D02*
X624886Y338096D01*
X622524Y263293D02*
X624886D01*
X621736Y262506D02*
X622524Y263293D01*
X561106Y338884D02*
X621736D01*
X560319Y338096D02*
X561106Y338884D01*
X557957Y338096D02*
X560319D01*
X561106Y262506D02*
X621736D01*
X557957Y263293D02*
X557957Y338096D01*
X560319Y263293D02*
X561106Y262506D01*
X557957Y263293D02*
X560319D01*
X558992Y355096D02*
X565092D01*
X558892Y346196D02*
X564992D01*
X578477Y406901D02*
Y417901D01*
X563221D02*
X578477D01*
X563221Y406901D02*
Y417901D01*
Y406901D02*
X578477D01*
X213800Y267578D02*
X224800D01*
X213800Y252322D02*
Y267578D01*
Y252322D02*
X224800D01*
Y267578D01*
X248820Y215289D02*
Y216913D01*
Y217725D02*
Y219349D01*
Y212853D02*
Y214477D01*
Y216913D02*
Y217725D01*
Y214477D02*
Y215289D01*
Y212853D02*
X263780D01*
Y219349D01*
X248820D02*
X263780D01*
X277909Y410830D02*
X279533D01*
X275473D02*
X277097D01*
X280345D02*
X281969D01*
X277097D02*
X277909D01*
X279533D02*
X280345D01*
X281969D02*
Y425791D01*
X275473D02*
X281969D01*
X275473Y410830D02*
Y425791D01*
X476066Y398213D02*
X477566D01*
D15*
X314350Y382350D02*
X319850D01*
Y393850D01*
X314350D02*
X319850D01*
X314350Y382350D02*
Y393850D01*
X404450Y134850D02*
Y146350D01*
X398950Y134850D02*
X404450D01*
X398950D02*
Y146350D01*
X404450D01*
X250950Y193000D02*
Y204500D01*
X245450Y193000D02*
X250950D01*
X245450D02*
Y204500D01*
X250950D01*
X251650Y171850D02*
Y183350D01*
X246150Y171850D02*
X251650D01*
X246150D02*
Y183350D01*
X251650D01*
X402350Y236751D02*
X413850D01*
Y231251D02*
Y236751D01*
X402350Y231251D02*
X413850D01*
X402350D02*
Y236751D01*
X313450Y241350D02*
X324950D01*
X313450D02*
Y246850D01*
X324950D01*
Y241350D02*
Y246850D01*
X425050Y403051D02*
Y414551D01*
X430550D01*
Y403051D02*
Y414551D01*
X425050Y403051D02*
X430550D01*
X366050Y141350D02*
X377550D01*
Y135850D02*
Y141350D01*
X366050Y135850D02*
X377550D01*
X366050D02*
Y141350D01*
X336150Y136450D02*
X347650D01*
X336150D02*
Y141950D01*
X347650D01*
Y136450D02*
Y141950D01*
X308550Y137750D02*
Y149250D01*
X303050Y137750D02*
X308550D01*
X303050D02*
Y149250D01*
X308550D01*
X584050Y393050D02*
Y404550D01*
X578550Y393050D02*
X584050D01*
X578550D02*
Y404550D01*
X584050D01*
X493650Y398150D02*
Y409650D01*
X499150D01*
Y398150D02*
Y409650D01*
X493650Y398150D02*
X499150D01*
X470350Y390550D02*
Y402050D01*
X464850Y390550D02*
X470350D01*
X464850D02*
Y402050D01*
X470350D01*
X398350Y403251D02*
Y414751D01*
X403850D01*
Y403251D02*
Y414751D01*
X398350Y403251D02*
X403850D01*
X315159Y248684D02*
X326659D01*
X315159D02*
Y254184D01*
X326659D01*
Y248684D02*
Y254184D01*
X329143D02*
X340643D01*
Y248684D02*
Y254184D01*
X329143Y248684D02*
X340643D01*
X329143D02*
Y254184D01*
X348550Y242350D02*
Y253850D01*
X354050D01*
Y242350D02*
Y253850D01*
X348550Y242350D02*
X354050D01*
X292350Y205750D02*
X303850D01*
X292350D02*
Y211250D01*
X303850D01*
Y205750D02*
Y211250D01*
X406550Y143850D02*
X418050D01*
Y138350D02*
Y143850D01*
X406550Y138350D02*
X418050D01*
X406550D02*
Y143850D01*
X406400Y151500D02*
X417900D01*
Y146000D02*
Y151500D01*
X406400Y146000D02*
X417900D01*
X406400D02*
Y151500D01*
X394900Y251550D02*
X406400D01*
Y246050D02*
Y251550D01*
X394900Y246050D02*
X406400D01*
X394900D02*
Y251550D01*
X395000Y244101D02*
X406500D01*
Y238601D02*
Y244101D01*
X395000Y238601D02*
X406500D01*
X395000D02*
Y244101D01*
X322471Y382360D02*
Y393860D01*
X327971D01*
Y382360D02*
Y393860D01*
X322471Y382360D02*
X327971D01*
X300771Y419760D02*
Y431260D01*
X295271Y419760D02*
X300771D01*
X295271D02*
Y431260D01*
X300771D01*
X338971Y417610D02*
Y429110D01*
X333471Y417610D02*
X338971D01*
X333471D02*
Y429110D01*
X338971D01*
X282850Y168351D02*
X294350D01*
X282850D02*
Y173851D01*
X294350D01*
Y168351D02*
Y173851D01*
X282950Y176151D02*
X294450D01*
X282950D02*
Y181651D01*
X294450D01*
Y176151D02*
Y181651D01*
X284150Y194950D02*
X295650D01*
X284150D02*
Y200450D01*
X295650D01*
Y194950D02*
Y200450D01*
X294850Y183750D02*
X306350D01*
X294850D02*
Y189250D01*
X306350D01*
Y183750D02*
Y189250D01*
X330450Y382350D02*
Y393850D01*
X335950D01*
Y382350D02*
Y393850D01*
X330450Y382350D02*
X335950D01*
X299650Y221350D02*
Y232850D01*
X305150D01*
Y221350D02*
Y232850D01*
X299650Y221350D02*
X305150D01*
X292250Y228700D02*
Y240200D01*
X297750D01*
Y228700D02*
Y240200D01*
X292250Y228700D02*
X297750D01*
X293450Y213750D02*
X304950D01*
X293450D02*
Y219250D01*
X304950D01*
Y213750D02*
Y219250D01*
X285950Y221250D02*
X297450D01*
X285950D02*
Y226750D01*
X297450D01*
Y221250D02*
Y226750D01*
X291650Y152350D02*
Y163850D01*
X286150Y152350D02*
X291650D01*
X286150D02*
Y163850D01*
X291650D01*
X346838Y417610D02*
Y429110D01*
X341338Y417610D02*
X346838D01*
X341338D02*
Y429110D01*
X346838D01*
X562250Y390851D02*
Y402351D01*
X556750Y390851D02*
X562250D01*
X556750D02*
Y402351D01*
X562250D01*
X226500Y273251D02*
X238000D01*
Y267751D02*
Y273251D01*
X226500Y267751D02*
X238000D01*
X226500D02*
Y273251D01*
X229250Y251551D02*
X240750D01*
Y246051D02*
Y251551D01*
X229250Y246051D02*
X240750D01*
X229250D02*
Y251551D01*
X488013Y57634D02*
X499513D01*
Y52134D02*
Y57634D01*
X488013Y52134D02*
X499513D01*
X488013D02*
Y57634D01*
X489490Y24771D02*
X500990D01*
X489490D02*
Y30271D01*
X500990D01*
Y24771D02*
Y30271D01*
X546939Y346027D02*
Y357527D01*
X552439D01*
Y346027D02*
Y357527D01*
X546939Y346027D02*
X552439D01*
X590037Y344945D02*
Y356445D01*
X584537Y344945D02*
X590037D01*
X584537D02*
Y356445D01*
X590037D01*
X559195Y254539D02*
X570695D01*
X559195D02*
Y260039D01*
X570695D01*
Y254539D02*
Y260039D01*
X354705Y417610D02*
Y429110D01*
X349205Y417610D02*
X354705D01*
X349205D02*
Y429110D01*
X354705D01*
X362571Y417610D02*
Y429110D01*
X357071Y417610D02*
X362571D01*
X357071D02*
Y429110D01*
X362571D01*
X414242Y415005D02*
X417195D01*
X419163Y407918D02*
Y410084D01*
X414242Y402997D02*
X417195D01*
D16*
X483550Y398110D02*
Y410315D01*
X481582Y398110D02*
Y410315D01*
X483550D01*
X481582Y398110D02*
X483550D01*
X311570Y424461D02*
Y425543D01*
Y439520D02*
Y440602D01*
X327712Y424461D02*
Y425543D01*
Y439520D02*
Y440602D01*
X311570Y424461D02*
X313145D01*
X326137D02*
X327712D01*
X311570Y440602D02*
X313145D01*
X326137D02*
X327712D01*
X612287Y323135D02*
Y324710D01*
Y323922D01*
X617010D01*
X616223Y323135D01*
X612287Y327071D02*
Y328645D01*
Y327858D01*
X617010D01*
X616223Y327071D01*
X583547Y282584D02*
X588270D01*
Y284946D01*
X587483Y285733D01*
X585909D01*
X585121Y284946D01*
Y282584D01*
Y288094D02*
Y289669D01*
X585909Y290456D01*
X587483D01*
X588270Y289669D01*
Y288094D01*
X587483Y287307D01*
X585909D01*
X585121Y288094D01*
X588270Y292030D02*
X585909D01*
X585121Y292817D01*
X585909Y293604D01*
X585121Y294392D01*
X585909Y295179D01*
X588270D01*
X585121Y299114D02*
Y297540D01*
X585909Y296753D01*
X587483D01*
X588270Y297540D01*
Y299114D01*
X587483Y299902D01*
X586696D01*
Y296753D01*
X588270Y301476D02*
X585121D01*
X586696D01*
X587483Y302263D01*
X588270Y303050D01*
Y303837D01*
X584334Y306199D02*
Y309347D01*
X585121Y310922D02*
X588270D01*
Y311709D01*
X587483Y312496D01*
X585121D01*
X587483D01*
X588270Y313283D01*
X587483Y314070D01*
X585121D01*
X583547Y315645D02*
X588270D01*
Y318006D01*
X587483Y318793D01*
X585909D01*
X585121Y318006D01*
Y315645D01*
X583547Y320367D02*
X588270D01*
Y322729D01*
X587483Y323516D01*
X585909D01*
X585121Y322729D01*
Y320367D01*
X588270Y328239D02*
Y325877D01*
X587483Y325090D01*
X585909D01*
X585121Y325877D01*
Y328239D01*
X565043Y271955D02*
Y273529D01*
Y272742D01*
X569766D01*
X568979Y271955D01*
X283713Y441186D02*
X281713D01*
X282713D01*
Y438187D01*
X280714D02*
Y441186D01*
X279214D01*
X278714Y440686D01*
Y439687D01*
X279214Y439187D01*
X280714D01*
X277714Y437687D02*
X275715D01*
X272716Y440686D02*
X273216Y441186D01*
X274216D01*
X274715Y440686D01*
Y440187D01*
X274216Y439687D01*
X273216D01*
X272716Y439187D01*
Y438687D01*
X273216Y438187D01*
X274216D01*
X274715Y438687D01*
X269717Y441186D02*
X271716D01*
Y438187D01*
X269717D01*
X271716Y439687D02*
X270717D01*
X268718Y441186D02*
X266718D01*
X267718D01*
Y438187D01*
D17*
X640650Y386417D02*
X642126D01*
X651772Y386319D02*
X653248D01*
X647244Y391043D02*
Y392520D01*
X646949Y380512D02*
Y381988D01*
X641437Y392520D02*
X643799Y390059D01*
X650394Y383071D02*
X652756Y380610D01*
X650591Y389961D02*
X653051Y392323D01*
X641043Y380709D02*
X643504Y383071D01*
X286200Y204500D02*
X302069D01*
X302300Y204269D01*
Y202800D02*
Y204269D01*
X315834Y378033D02*
X315251Y378616D01*
Y379782D01*
X315834Y380365D01*
X318166D01*
X318749Y379782D01*
Y378616D01*
X318166Y378033D01*
X315251Y374534D02*
Y376866D01*
X317000D01*
X316417Y375700D01*
Y375117D01*
X317000Y374534D01*
X318166D01*
X318749Y375117D01*
Y376283D01*
X318166Y376866D01*
X315834Y373367D02*
X315251Y372784D01*
Y371618D01*
X315834Y371035D01*
X316417D01*
X317000Y371618D01*
X317583Y371035D01*
X318166D01*
X318749Y371618D01*
Y372784D01*
X318166Y373367D01*
X317583D01*
X317000Y372784D01*
X316417Y373367D01*
X315834D01*
X317000Y372784D02*
Y371618D01*
X485500Y47882D02*
Y45549D01*
X484334Y44383D01*
X483167Y45549D01*
Y47882D01*
X482001Y44383D02*
Y47882D01*
X480252D01*
X479669Y47299D01*
Y46133D01*
X480252Y45549D01*
X482001D01*
X480835D02*
X479669Y44383D01*
X476170Y47882D02*
X478502D01*
Y44383D01*
X476170D01*
X478502Y46133D02*
X477336D01*
X472671Y47299D02*
X473254Y47882D01*
X474420D01*
X475003Y47299D01*
Y44966D01*
X474420Y44383D01*
X473254D01*
X472671Y44966D01*
Y46133D01*
X473837D01*
X471504Y43800D02*
X469172D01*
X468006Y47882D02*
X465673D01*
X466839D01*
Y44383D01*
X464507D02*
Y47882D01*
X462757D01*
X462174Y47299D01*
Y46133D01*
X462757Y45549D01*
X464507D01*
X631101Y241200D02*
X634800D01*
X632951D01*
Y238734D01*
X631101D01*
X634800D01*
X631101Y237501D02*
Y236268D01*
Y236885D01*
X634800D01*
Y237501D01*
Y236268D01*
X631718Y231953D02*
X631101Y232570D01*
Y233802D01*
X631718Y234419D01*
X634184D01*
X634800Y233802D01*
Y232570D01*
X634184Y231953D01*
X632951D01*
Y233186D01*
X631101Y230720D02*
X634800D01*
X632951D01*
Y228254D01*
X631101D01*
X634800D01*
X631101Y223323D02*
X633567D01*
X634800Y222090D01*
X633567Y220857D01*
X631101D01*
Y217774D02*
Y219007D01*
X631718Y219624D01*
X634184D01*
X634800Y219007D01*
Y217774D01*
X634184Y217158D01*
X631718D01*
X631101Y217774D01*
Y215925D02*
X634800D01*
Y213459D01*
X631101Y212226D02*
Y209760D01*
Y210993D01*
X634800D01*
Y208527D02*
X632334D01*
X631101Y207294D01*
X632334Y206061D01*
X634800D01*
X632951D01*
Y208527D01*
X631718Y202363D02*
X631101Y202979D01*
Y204212D01*
X631718Y204829D01*
X634184D01*
X634800Y204212D01*
Y202979D01*
X634184Y202363D01*
X632951D01*
Y203595D01*
X631101Y198664D02*
Y201130D01*
X634800D01*
Y198664D01*
X632951Y201130D02*
Y199897D01*
X435167Y216416D02*
X435751Y216999D01*
X436917D01*
X437500Y216416D01*
Y215833D01*
X436917Y215249D01*
X435751D01*
X435167Y214666D01*
Y214083D01*
X435751Y213500D01*
X436917D01*
X437500Y214083D01*
X433418Y216416D02*
Y215833D01*
X434001D01*
X432835D01*
X433418D01*
Y214083D01*
X432835Y213500D01*
X430502Y215833D02*
X429336D01*
X428753Y215249D01*
Y213500D01*
X430502D01*
X431085Y214083D01*
X430502Y214666D01*
X428753D01*
X427587Y215833D02*
Y213500D01*
Y214666D01*
X427003Y215249D01*
X426420Y215833D01*
X425837D01*
X423504Y216416D02*
Y215833D01*
X424088D01*
X422921D01*
X423504D01*
Y214083D01*
X422921Y213500D01*
X349500Y296100D02*
Y299599D01*
X350666Y298433D01*
X351833Y299599D01*
Y296100D01*
X354748Y299599D02*
X353582D01*
X352999Y299016D01*
Y296683D01*
X353582Y296100D01*
X354748D01*
X355331Y296683D01*
Y299016D01*
X354748Y299599D01*
X356498D02*
Y296100D01*
X358247D01*
X358830Y296683D01*
Y299016D01*
X358247Y299599D01*
X356498D01*
X362329Y299016D02*
X361746Y299599D01*
X360580D01*
X359997Y299016D01*
Y298433D01*
X360580Y297849D01*
X361746D01*
X362329Y297266D01*
Y296683D01*
X361746Y296100D01*
X360580D01*
X359997Y296683D01*
X365828Y299599D02*
X363495D01*
Y296100D01*
X365828D01*
X363495Y297849D02*
X364662D01*
X366994Y299599D02*
X369327D01*
X368161D01*
Y296100D01*
X326600Y274199D02*
Y270700D01*
X328349D01*
X328933Y271283D01*
Y271866D01*
X328349Y272449D01*
X326600D01*
X328349D01*
X328933Y273033D01*
Y273616D01*
X328349Y274199D01*
X326600D01*
X330099D02*
X331265D01*
X330682D01*
Y270700D01*
X330099D01*
X331265D01*
X333015D02*
Y273033D01*
X334181Y274199D01*
X335347Y273033D01*
Y270700D01*
Y272449D01*
X333015D01*
X338846Y273616D02*
X338263Y274199D01*
X337097D01*
X336513Y273616D01*
Y273033D01*
X337097Y272449D01*
X338263D01*
X338846Y271866D01*
Y271283D01*
X338263Y270700D01*
X337097D01*
X336513Y271283D01*
X342345Y273616D02*
X341762Y274199D01*
X340596D01*
X340012Y273616D01*
Y273033D01*
X340596Y272449D01*
X341762D01*
X342345Y271866D01*
Y271283D01*
X341762Y270700D01*
X340596D01*
X340012Y271283D01*
X345844Y274199D02*
X343511D01*
Y270700D01*
X345844D01*
X343511Y272449D02*
X344677D01*
X347010Y274199D02*
X349343D01*
X348176D01*
Y270700D01*
X500301Y389900D02*
X499718Y389317D01*
Y388151D01*
X500301Y387567D01*
X502634D01*
X503217Y388151D01*
Y389317D01*
X502634Y389900D01*
X500301D01*
X499718Y386401D02*
X502051D01*
X503217Y385235D01*
X502051Y384069D01*
X499718D01*
X502634Y382902D02*
X503217Y382319D01*
Y381153D01*
X502634Y380570D01*
X500301D01*
X499718Y381153D01*
Y382319D01*
X500301Y382902D01*
X500884D01*
X501467Y382319D01*
Y380570D01*
X503800Y379403D02*
Y377071D01*
X503217Y375904D02*
X499718D01*
Y374155D01*
X500301Y373572D01*
X501467D01*
X502051Y374155D01*
Y375904D01*
Y374738D02*
X503217Y373572D01*
X499718Y370073D02*
Y372406D01*
X503217D01*
Y370073D01*
X501467Y372406D02*
Y371239D01*
X500301Y366574D02*
X499718Y367157D01*
Y368324D01*
X500301Y368907D01*
X502634D01*
X503217Y368324D01*
Y367157D01*
X502634Y366574D01*
X501467D01*
Y367741D01*
X459800Y409199D02*
Y406866D01*
X458634Y405700D01*
X457467Y406866D01*
Y409199D01*
X456301Y405700D02*
Y409199D01*
X454552D01*
X453968Y408616D01*
Y407449D01*
X454552Y406866D01*
X456301D01*
X455135D02*
X453968Y405700D01*
X450470Y409199D02*
X452802D01*
Y405700D01*
X450470D01*
X452802Y407449D02*
X451636D01*
X446971Y408616D02*
X447554Y409199D01*
X448720D01*
X449303Y408616D01*
Y406283D01*
X448720Y405700D01*
X447554D01*
X446971Y406283D01*
Y407449D01*
X448137D01*
X596482Y423833D02*
Y421500D01*
X594733D01*
X595316Y422666D01*
Y423249D01*
X594733Y423833D01*
X593566D01*
X592983Y423249D01*
Y422083D01*
X593566Y421500D01*
X596482Y424999D02*
X594149D01*
X592983Y426165D01*
X594149Y427331D01*
X596482D01*
X592400Y428498D02*
Y430830D01*
X596482Y431997D02*
X592983D01*
Y434329D01*
X595316Y436079D02*
Y437245D01*
X594733Y437828D01*
X592983D01*
Y436079D01*
X593566Y435496D01*
X594149Y436079D01*
Y437828D01*
X592983Y438994D02*
Y440744D01*
X593566Y441327D01*
X594149Y440744D01*
Y439577D01*
X594733Y438994D01*
X595316Y439577D01*
Y441327D01*
X592983Y444243D02*
Y443076D01*
X593566Y442493D01*
X594733D01*
X595316Y443076D01*
Y444243D01*
X594733Y444826D01*
X594149D01*
Y442493D01*
X595316Y445992D02*
X592983D01*
X594149D01*
X594733Y446575D01*
X595316Y447158D01*
Y447742D01*
X540834Y410500D02*
X540251D01*
X539667Y411083D01*
Y413999D01*
X541417D01*
X542000Y413416D01*
Y412249D01*
X541417Y411666D01*
X539667D01*
X538501D02*
Y413999D01*
X536752D01*
X536168Y413416D01*
Y411666D01*
X532670Y415165D02*
Y411666D01*
X534419D01*
X535002Y412249D01*
Y413416D01*
X534419Y413999D01*
X532670D01*
X203500Y256800D02*
Y254801D01*
X202500Y253801D01*
X201501Y254801D01*
Y256800D01*
X200501Y253801D02*
Y256800D01*
X199001D01*
X198502Y256300D01*
Y255300D01*
X199001Y254801D01*
X200501D01*
X199501D02*
X198502Y253801D01*
X195503Y256800D02*
X197502D01*
Y253801D01*
X195503D01*
X197502Y255300D02*
X196502D01*
X192504Y256300D02*
X193003Y256800D01*
X194003D01*
X194503Y256300D01*
Y254301D01*
X194003Y253801D01*
X193003D01*
X192504Y254301D01*
Y255300D01*
X193503D01*
X584700Y423866D02*
Y424449D01*
X585283Y425033D01*
X588199D01*
Y423283D01*
X587616Y422700D01*
X586449D01*
X585866Y423283D01*
Y425033D01*
Y426199D02*
X588199D01*
Y427948D01*
X587616Y428531D01*
X585866D01*
X589365Y432030D02*
X585866D01*
Y430281D01*
X586449Y429698D01*
X587616D01*
X588199Y430281D01*
Y432030D01*
X583765Y414433D02*
Y412100D01*
X582016D01*
X582599Y413266D01*
Y413849D01*
X582016Y414433D01*
X580849D01*
X580266Y413849D01*
Y412683D01*
X580849Y412100D01*
X583765Y415599D02*
X581433D01*
X580266Y416765D01*
X581433Y417931D01*
X583765D01*
X579683Y419098D02*
Y421430D01*
X583765Y422597D02*
X580266D01*
Y424929D01*
X582599Y426679D02*
Y427845D01*
X582016Y428428D01*
X580266D01*
Y426679D01*
X580849Y426095D01*
X581433Y426679D01*
Y428428D01*
X580266Y429594D02*
Y431344D01*
X580849Y431927D01*
X581433Y431344D01*
Y430177D01*
X582016Y429594D01*
X582599Y430177D01*
Y431927D01*
X580266Y434843D02*
Y433676D01*
X580849Y433093D01*
X582016D01*
X582599Y433676D01*
Y434843D01*
X582016Y435426D01*
X581433D01*
Y433093D01*
X582599Y436592D02*
X580266D01*
X581433D01*
X582016Y437175D01*
X582599Y437758D01*
Y438342D01*
X579683Y440091D02*
Y442423D01*
X582599Y443590D02*
X580266D01*
X581433D01*
X582016Y444173D01*
X582599Y444756D01*
Y445339D01*
X580266Y448838D02*
Y447672D01*
X580849Y447089D01*
X582016D01*
X582599Y447672D01*
Y448838D01*
X582016Y449421D01*
X581433D01*
Y447089D01*
X579100Y451754D02*
Y452337D01*
X579683Y452920D01*
X582599D01*
Y451171D01*
X582016Y450588D01*
X580849D01*
X580266Y451171D01*
Y452920D01*
X617867Y439282D02*
X620200D01*
Y437533D01*
X619034Y438116D01*
X618451D01*
X617867Y437533D01*
Y436366D01*
X618451Y435783D01*
X619617D01*
X620200Y436366D01*
X616701Y439282D02*
Y436949D01*
X615535Y435783D01*
X614368Y436949D01*
Y439282D01*
X613202Y435200D02*
X610870D01*
X607371Y439282D02*
X609703D01*
Y435783D01*
X607371D01*
X609703Y437533D02*
X608537D01*
X606205Y439282D02*
X603872Y435783D01*
Y439282D02*
X606205Y435783D01*
X602706Y439282D02*
X600373D01*
X601539D01*
Y435783D01*
X505167Y438016D02*
X505751Y438599D01*
X506917D01*
X507500Y438016D01*
Y435683D01*
X506917Y435100D01*
X505751D01*
X505167Y435683D01*
Y436849D01*
X506334D01*
X504001Y435100D02*
Y438599D01*
X501669Y435100D01*
Y438599D01*
X500502D02*
Y435100D01*
X498753D01*
X498170Y435683D01*
Y438016D01*
X498753Y438599D01*
X500502D01*
X440299Y426233D02*
Y423900D01*
X438549D01*
X439133Y425066D01*
Y425649D01*
X438549Y426233D01*
X437383D01*
X436800Y425649D01*
Y424483D01*
X437383Y423900D01*
X440299Y427399D02*
X437966D01*
X436800Y428565D01*
X437966Y429732D01*
X440299D01*
Y433230D02*
Y430898D01*
X438549D01*
X439133Y432064D01*
Y432647D01*
X438549Y433230D01*
X437383D01*
X436800Y432647D01*
Y431481D01*
X437383Y430898D01*
X440299Y434397D02*
X436800D01*
Y436146D01*
X437383Y436729D01*
X439716D01*
X440299Y436146D01*
Y434397D01*
X250700Y279917D02*
X250117Y280500D01*
X248951D01*
X248367Y279917D01*
Y279333D01*
X248951Y278750D01*
X249534D01*
X248951D01*
X248367Y278167D01*
Y277584D01*
X248951Y277001D01*
X250117D01*
X250700Y277584D01*
X247201Y280500D02*
Y278167D01*
X246035Y277001D01*
X244869Y278167D01*
Y280500D01*
X243702Y279917D02*
X243119Y280500D01*
X241953D01*
X241370Y279917D01*
Y279333D01*
X241953Y278750D01*
X242536D01*
X241953D01*
X241370Y278167D01*
Y277584D01*
X241953Y277001D01*
X243119D01*
X243702Y277584D01*
X240203Y280500D02*
Y277001D01*
X238454D01*
X237871Y277584D01*
Y279917D01*
X238454Y280500D01*
X240203D01*
X535500Y437799D02*
X534917Y438382D01*
X533751D01*
X533167Y437799D01*
Y435466D01*
X533751Y434883D01*
X534917D01*
X535500Y435466D01*
Y437799D01*
X532001Y438382D02*
Y436049D01*
X530835Y434883D01*
X529669Y436049D01*
Y438382D01*
X528502Y435466D02*
X527919Y434883D01*
X526753D01*
X526170Y435466D01*
Y437799D01*
X526753Y438382D01*
X527919D01*
X528502Y437799D01*
Y437216D01*
X527919Y436633D01*
X526170D01*
X525003Y434300D02*
X522671D01*
X519172Y438382D02*
X521504D01*
Y434883D01*
X519172D01*
X521504Y436633D02*
X520338D01*
X518006Y438382D02*
X515673Y434883D01*
Y438382D02*
X518006Y434883D01*
X514507Y438382D02*
X512174D01*
X513341D01*
Y434883D01*
X463467Y438682D02*
X465800D01*
Y436933D01*
X464634Y437516D01*
X464051D01*
X463467Y436933D01*
Y435766D01*
X464051Y435183D01*
X465217D01*
X465800Y435766D01*
X462301Y438682D02*
Y436349D01*
X461135Y435183D01*
X459969Y436349D01*
Y438682D01*
X456470D02*
X458802D01*
Y436933D01*
X457636Y437516D01*
X457053D01*
X456470Y436933D01*
Y435766D01*
X457053Y435183D01*
X458219D01*
X458802Y435766D01*
X455303Y434600D02*
X452971D01*
X449472Y438682D02*
X451804D01*
Y435183D01*
X449472D01*
X451804Y436933D02*
X450638D01*
X448306Y438682D02*
X445973Y435183D01*
Y438682D02*
X448306Y435183D01*
X444807Y438682D02*
X442474D01*
X443641D01*
Y435183D01*
X550767Y437816D02*
X551351Y438399D01*
X552517D01*
X553100Y437816D01*
Y435483D01*
X552517Y434900D01*
X551351D01*
X550767Y435483D01*
Y436649D01*
X551934D01*
X549601Y434900D02*
Y438399D01*
X547268Y434900D01*
Y438399D01*
X546102D02*
Y434900D01*
X544353D01*
X543770Y435483D01*
Y437816D01*
X544353Y438399D01*
X546102D01*
X403767Y438916D02*
X404351Y439499D01*
X405517D01*
X406100Y438916D01*
Y436583D01*
X405517Y436000D01*
X404351D01*
X403767Y436583D01*
Y437749D01*
X404934D01*
X402601Y436000D02*
Y439499D01*
X400269Y436000D01*
Y439499D01*
X399102D02*
Y436000D01*
X397353D01*
X396770Y436583D01*
Y438916D01*
X397353Y439499D01*
X399102D01*
X384700Y440082D02*
Y437749D01*
X383534Y436583D01*
X382367Y437749D01*
Y440082D01*
X381201Y436000D02*
X378869D01*
X375370Y440082D02*
X377702D01*
Y436583D01*
X375370D01*
X377702Y438333D02*
X376536D01*
X374203Y440082D02*
X371871Y436583D01*
Y440082D02*
X374203Y436583D01*
X370705Y440082D02*
X368372D01*
X369538D01*
Y436583D01*
X243067Y437516D02*
X243651Y438099D01*
X244817D01*
X245400Y437516D01*
Y435183D01*
X244817Y434600D01*
X243651D01*
X243067Y435183D01*
Y436349D01*
X244234D01*
X241901Y434600D02*
Y438099D01*
X239569Y434600D01*
Y438099D01*
X238402D02*
Y434600D01*
X236653D01*
X236070Y435183D01*
Y437516D01*
X236653Y438099D01*
X238402D01*
X196916Y232633D02*
X197499Y232049D01*
Y230883D01*
X196916Y230300D01*
X194583D01*
X194000Y230883D01*
Y232049D01*
X194583Y232633D01*
X195749D01*
Y231466D01*
X194000Y233799D02*
X197499D01*
X194000Y236131D01*
X197499D01*
Y237298D02*
X194000D01*
Y239047D01*
X194583Y239630D01*
X196916D01*
X197499Y239047D01*
Y237298D01*
X196699Y280000D02*
X197282Y280583D01*
Y281749D01*
X196699Y282333D01*
X196116D01*
X195533Y281749D01*
Y281166D01*
Y281749D01*
X194949Y282333D01*
X194366D01*
X193783Y281749D01*
Y280583D01*
X194366Y280000D01*
X197282Y283499D02*
X194949D01*
X193783Y284665D01*
X194949Y285831D01*
X197282D01*
X196699Y286998D02*
X197282Y287581D01*
Y288747D01*
X196699Y289330D01*
X196116D01*
X195533Y288747D01*
Y288164D01*
Y288747D01*
X194949Y289330D01*
X194366D01*
X193783Y288747D01*
Y287581D01*
X194366Y286998D01*
X197282Y290497D02*
X193783D01*
Y292246D01*
X194366Y292829D01*
X196699D01*
X197282Y292246D01*
Y290497D01*
X193200Y293995D02*
Y296328D01*
X197282Y299827D02*
Y297494D01*
X193783D01*
Y299827D01*
X195533Y297494D02*
Y298661D01*
X197282Y300993D02*
X193783Y303326D01*
X197282D02*
X193783Y300993D01*
X197282Y304492D02*
Y306825D01*
Y305658D01*
X193783D01*
X324901Y418399D02*
X325400Y418899D01*
X326400D01*
X326900Y418399D01*
Y416400D01*
X326400Y415900D01*
X325400D01*
X324901Y416400D01*
Y417400D01*
X325900D01*
X323901Y415900D02*
Y418899D01*
X321902Y415900D01*
Y418899D01*
X320902D02*
Y415900D01*
X319402D01*
X318903Y416400D01*
Y418399D01*
X319402Y418899D01*
X320902D01*
X617149Y137265D02*
X613651D01*
Y135516D01*
X614234Y134933D01*
X615400D01*
X615983Y135516D01*
Y137265D01*
Y136099D02*
X617149Y134933D01*
X614234Y133766D02*
X613651Y133183D01*
Y132017D01*
X614234Y131434D01*
X614817D01*
X615400Y132017D01*
X615983Y131434D01*
X616566D01*
X617149Y132017D01*
Y133183D01*
X616566Y133766D01*
X615983D01*
X615400Y133183D01*
X614817Y133766D01*
X614234D01*
X615400Y133183D02*
Y132017D01*
X613651Y130267D02*
Y127935D01*
X614234D01*
X616566Y130267D01*
X617149D01*
X659759Y102037D02*
X659176Y102620D01*
Y103787D01*
X659759Y104370D01*
X662091D01*
X662675Y103787D01*
Y102620D01*
X662091Y102037D01*
X660925D01*
Y103204D01*
X662675Y100871D02*
X659176D01*
X662675Y98538D01*
X659176D01*
Y97372D02*
X662675D01*
Y95623D01*
X662091Y95040D01*
X659759D01*
X659176Y95623D01*
Y97372D01*
X659467Y151874D02*
X658884Y151291D01*
Y150125D01*
X659467Y149542D01*
X660050D01*
X660634Y150125D01*
Y150708D01*
Y150125D01*
X661217Y149542D01*
X661800D01*
X662383Y150125D01*
Y151291D01*
X661800Y151874D01*
X658884Y148375D02*
X661217D01*
X662383Y147209D01*
X661217Y146043D01*
X658884D01*
X659467Y144877D02*
X658884Y144293D01*
Y143127D01*
X659467Y142544D01*
X660050D01*
X660634Y143127D01*
Y143710D01*
Y143127D01*
X661217Y142544D01*
X661800D01*
X662383Y143127D01*
Y144293D01*
X661800Y144877D01*
X658884Y141378D02*
X662383D01*
Y139628D01*
X661800Y139045D01*
X659467D01*
X658884Y139628D01*
Y141378D01*
X662966Y137879D02*
Y135546D01*
X658884Y132047D02*
Y134380D01*
X662383D01*
Y132047D01*
X660634Y134380D02*
Y133214D01*
X658884Y130881D02*
X662383Y128549D01*
X658884D02*
X662383Y130881D01*
X658884Y127382D02*
Y125050D01*
Y126216D01*
X662383D01*
Y121551D02*
Y123883D01*
X660050Y121551D01*
X659467D01*
X658884Y122134D01*
Y123300D01*
X659467Y123883D01*
X393834Y143807D02*
X393251Y144390D01*
Y145557D01*
X393834Y146140D01*
X396166D01*
X396749Y145557D01*
Y144390D01*
X396166Y143807D01*
X396749Y142641D02*
Y141475D01*
Y142058D01*
X393251D01*
X393834Y142641D01*
Y139725D02*
X393251Y139142D01*
Y137976D01*
X393834Y137393D01*
X394417D01*
X395000Y137976D01*
Y138559D01*
Y137976D01*
X395583Y137393D01*
X396166D01*
X396749Y137976D01*
Y139142D01*
X396166Y139725D01*
X396749Y136226D02*
Y135060D01*
Y135643D01*
X393251D01*
X393834Y136226D01*
X413115Y259549D02*
X410782D01*
X411948D01*
Y256051D01*
X409616D02*
Y259549D01*
X407866D01*
X407283Y258966D01*
Y257800D01*
X407866Y257217D01*
X409616D01*
X403784Y256051D02*
X406117D01*
X403784Y258383D01*
Y258966D01*
X404367Y259549D01*
X405534D01*
X406117Y258966D01*
X400285Y259549D02*
X402618D01*
Y257800D01*
X401452Y258383D01*
X400869D01*
X400285Y257800D01*
Y256634D01*
X400869Y256051D01*
X402035D01*
X402618Y256634D01*
X456365Y375951D02*
Y379449D01*
X454616D01*
X454033Y378866D01*
Y377700D01*
X454616Y377117D01*
X456365D01*
X455199D02*
X454033Y375951D01*
X450534Y379449D02*
X452866D01*
Y377700D01*
X451700Y378283D01*
X451117D01*
X450534Y377700D01*
Y376534D01*
X451117Y375951D01*
X452283D01*
X452866Y376534D01*
X447035Y375951D02*
X449367D01*
X447035Y378283D01*
Y378866D01*
X447618Y379449D01*
X448784D01*
X449367Y378866D01*
X418165Y269751D02*
Y273249D01*
X416416D01*
X415833Y272666D01*
Y271500D01*
X416416Y270917D01*
X418165D01*
X416999D02*
X415833Y269751D01*
X414666Y270334D02*
X414083Y269751D01*
X412917D01*
X412334Y270334D01*
Y272666D01*
X412917Y273249D01*
X414083D01*
X414666Y272666D01*
Y272083D01*
X414083Y271500D01*
X412334D01*
X411167Y272666D02*
X410584Y273249D01*
X409418D01*
X408835Y272666D01*
Y270334D01*
X409418Y269751D01*
X410584D01*
X411167Y270334D01*
Y272666D01*
X380865Y247051D02*
Y250549D01*
X379116D01*
X378533Y249966D01*
Y248800D01*
X379116Y248217D01*
X380865D01*
X379699D02*
X378533Y247051D01*
X377366Y247634D02*
X376783Y247051D01*
X375617D01*
X375034Y247634D01*
Y249966D01*
X375617Y250549D01*
X376783D01*
X377366Y249966D01*
Y249383D01*
X376783Y248800D01*
X375034D01*
X372118Y247051D02*
Y250549D01*
X373867Y248800D01*
X371535D01*
X418251Y222335D02*
X421749D01*
Y224084D01*
X421166Y224667D01*
X420000D01*
X419417Y224084D01*
Y222335D01*
Y223501D02*
X418251Y224667D01*
X418834Y225834D02*
X418251Y226417D01*
Y227583D01*
X418834Y228166D01*
X421166D01*
X421749Y227583D01*
Y226417D01*
X421166Y225834D01*
X420583D01*
X420000Y226417D01*
Y228166D01*
X421166Y229333D02*
X421749Y229916D01*
Y231082D01*
X421166Y231665D01*
X420583D01*
X420000Y231082D01*
Y230499D01*
Y231082D01*
X419417Y231665D01*
X418834D01*
X418251Y231082D01*
Y229916D01*
X418834Y229333D01*
X417065Y198551D02*
Y202049D01*
X415316D01*
X414733Y201466D01*
Y200300D01*
X415316Y199717D01*
X417065D01*
X415899D02*
X414733Y198551D01*
X413566Y199134D02*
X412983Y198551D01*
X411817D01*
X411234Y199134D01*
Y201466D01*
X411817Y202049D01*
X412983D01*
X413566Y201466D01*
Y200883D01*
X412983Y200300D01*
X411234D01*
X407735Y202049D02*
X410067D01*
Y200300D01*
X408901Y200883D01*
X408318D01*
X407735Y200300D01*
Y199134D01*
X408318Y198551D01*
X409484D01*
X410067Y199134D01*
X416665Y210251D02*
Y213749D01*
X414916D01*
X414333Y213166D01*
Y212000D01*
X414916Y211417D01*
X416665D01*
X415499D02*
X414333Y210251D01*
X413166Y210834D02*
X412583Y210251D01*
X411417D01*
X410834Y210834D01*
Y213166D01*
X411417Y213749D01*
X412583D01*
X413166Y213166D01*
Y212583D01*
X412583Y212000D01*
X410834D01*
X407335Y210251D02*
X409667D01*
X407335Y212583D01*
Y213166D01*
X407918Y213749D01*
X409084D01*
X409667Y213166D01*
X269965Y193251D02*
Y196749D01*
X268216D01*
X267633Y196166D01*
Y195000D01*
X268216Y194417D01*
X269965D01*
X268799D02*
X267633Y193251D01*
X264134Y196749D02*
X266466D01*
Y195000D01*
X265300Y195583D01*
X264717D01*
X264134Y195000D01*
Y193834D01*
X264717Y193251D01*
X265883D01*
X266466Y193834D01*
X261218Y193251D02*
Y196749D01*
X262967Y195000D01*
X260635D01*
X314351Y64883D02*
X317849D01*
Y66632D01*
X317266Y67215D01*
X316100D01*
X315517Y66632D01*
Y64883D01*
Y66049D02*
X314351Y67215D01*
Y70131D02*
X317849D01*
X316100Y68382D01*
Y70714D01*
X314351Y74213D02*
Y71881D01*
X316683Y74213D01*
X317266D01*
X317849Y73630D01*
Y72464D01*
X317266Y71881D01*
X309590Y245166D02*
X310174Y245749D01*
X311340D01*
X311923Y245166D01*
Y242834D01*
X311340Y242251D01*
X310174D01*
X309590Y242834D01*
X308424Y242251D02*
X307258D01*
X307841D01*
Y245749D01*
X308424Y245166D01*
X303176Y242251D02*
X305508D01*
X303176Y244583D01*
Y245166D01*
X303759Y245749D01*
X304925D01*
X305508Y245166D01*
X302010D02*
X301426Y245749D01*
X300260D01*
X299677Y245166D01*
Y244583D01*
X300260Y244000D01*
X300843D01*
X300260D01*
X299677Y243417D01*
Y242834D01*
X300260Y242251D01*
X301426D01*
X302010Y242834D01*
X428465Y180651D02*
Y184149D01*
X426716D01*
X426133Y183566D01*
Y182400D01*
X426716Y181817D01*
X428465D01*
X427299D02*
X426133Y180651D01*
X424966Y184149D02*
X422634D01*
Y183566D01*
X424966Y181234D01*
Y180651D01*
X419135D02*
X421467D01*
X419135Y182983D01*
Y183566D01*
X419718Y184149D01*
X420884D01*
X421467Y183566D01*
X248690Y189966D02*
X249274Y190549D01*
X250440D01*
X251023Y189966D01*
Y187634D01*
X250440Y187051D01*
X249274D01*
X248690Y187634D01*
X247524Y187051D02*
X246358D01*
X246941D01*
Y190549D01*
X247524Y189966D01*
X242276Y187051D02*
X244608D01*
X242276Y189383D01*
Y189966D01*
X242859Y190549D01*
X244025D01*
X244608Y189966D01*
X241110D02*
X240526Y190549D01*
X239360D01*
X238777Y189966D01*
Y189383D01*
X239360Y188800D01*
X238777Y188217D01*
Y187634D01*
X239360Y187051D01*
X240526D01*
X241110Y187634D01*
Y188217D01*
X240526Y188800D01*
X241110Y189383D01*
Y189966D01*
X240526Y188800D02*
X239360D01*
X243466Y173810D02*
X244049Y173226D01*
Y172060D01*
X243466Y171477D01*
X241134D01*
X240551Y172060D01*
Y173226D01*
X241134Y173810D01*
X240551Y174976D02*
Y176142D01*
Y175559D01*
X244049D01*
X243466Y174976D01*
X240551Y180224D02*
Y177892D01*
X242883Y180224D01*
X243466D01*
X244049Y179641D01*
Y178475D01*
X243466Y177892D01*
X244049Y181390D02*
Y183723D01*
X243466D01*
X241134Y181390D01*
X240551D01*
X425890Y236366D02*
X426474Y236949D01*
X427640D01*
X428223Y236366D01*
Y234034D01*
X427640Y233451D01*
X426474D01*
X425890Y234034D01*
X424724Y233451D02*
X423558D01*
X424141D01*
Y236949D01*
X424724Y236366D01*
X419476Y233451D02*
X421808D01*
X419476Y235783D01*
Y236366D01*
X420059Y236949D01*
X421225D01*
X421808Y236366D01*
X415977Y236949D02*
X417143Y236366D01*
X418310Y235200D01*
Y234034D01*
X417726Y233451D01*
X416560D01*
X415977Y234034D01*
Y234617D01*
X416560Y235200D01*
X418310D01*
X420365Y401449D02*
Y398534D01*
X419782Y397951D01*
X418616D01*
X418033Y398534D01*
Y401449D01*
X414534Y397951D02*
X416866D01*
X414534Y400283D01*
Y400866D01*
X415117Y401449D01*
X416283D01*
X416866Y400866D01*
X411618Y397951D02*
Y401449D01*
X413367Y399700D01*
X411035D01*
X431651Y417126D02*
X435149D01*
Y418876D01*
X434566Y419459D01*
X433400D01*
X432817Y418876D01*
Y417126D01*
Y418293D02*
X431651Y419459D01*
Y420625D02*
Y421792D01*
Y421208D01*
X435149D01*
X434566Y420625D01*
X435149Y423541D02*
Y425874D01*
X434566D01*
X432234Y423541D01*
X431651D01*
X443849Y400865D02*
X440351D01*
Y399116D01*
X440934Y398533D01*
X442100D01*
X442683Y399116D01*
Y400865D01*
Y399699D02*
X443849Y398533D01*
Y395034D02*
Y397366D01*
X441517Y395034D01*
X440934D01*
X440351Y395617D01*
Y396783D01*
X440934Y397366D01*
X440351Y391535D02*
X440934Y392701D01*
X442100Y393867D01*
X443266D01*
X443849Y393284D01*
Y392118D01*
X443266Y391535D01*
X442683D01*
X442100Y392118D01*
Y393867D01*
X608949Y355665D02*
X605451D01*
Y353916D01*
X606034Y353333D01*
X607200D01*
X607783Y353916D01*
Y355665D01*
Y354499D02*
X608949Y353333D01*
Y350417D02*
X605451D01*
X607200Y352166D01*
Y349834D01*
X605451Y348667D02*
Y346335D01*
X606034D01*
X608366Y348667D01*
X608949D01*
X399834Y394717D02*
X399251Y395300D01*
Y396466D01*
X399834Y397049D01*
X402166D01*
X402749Y396466D01*
Y395300D01*
X402166Y394717D01*
X402749Y393550D02*
Y392384D01*
Y392967D01*
X399251D01*
X399834Y393550D01*
X402749Y390635D02*
Y389468D01*
Y390052D01*
X399251D01*
X399834Y390635D01*
X402749Y387719D02*
Y386553D01*
Y387136D01*
X399251D01*
X399834Y387719D01*
X426634Y399290D02*
X426051Y399874D01*
Y401040D01*
X426634Y401623D01*
X428966D01*
X429549Y401040D01*
Y399874D01*
X428966Y399290D01*
X429549Y398124D02*
Y396958D01*
Y397541D01*
X426051D01*
X426634Y398124D01*
X429549Y392876D02*
Y395208D01*
X427217Y392876D01*
X426634D01*
X426051Y393459D01*
Y394625D01*
X426634Y395208D01*
Y391710D02*
X426051Y391126D01*
Y389960D01*
X426634Y389377D01*
X428966D01*
X429549Y389960D01*
Y391126D01*
X428966Y391710D01*
X426634D01*
X375099Y133766D02*
X375682Y134349D01*
X376848D01*
X377431Y133766D01*
Y131434D01*
X376848Y130851D01*
X375682D01*
X375099Y131434D01*
X373933Y130851D02*
X372766D01*
X373349D01*
Y134349D01*
X373933Y133766D01*
X371017Y130851D02*
X369851D01*
X370434D01*
Y134349D01*
X371017Y133766D01*
X368101Y131434D02*
X367518Y130851D01*
X366352D01*
X365769Y131434D01*
Y133766D01*
X366352Y134349D01*
X367518D01*
X368101Y133766D01*
Y133183D01*
X367518Y132600D01*
X365769D01*
X345099Y134266D02*
X345682Y134849D01*
X346848D01*
X347431Y134266D01*
Y131934D01*
X346848Y131351D01*
X345682D01*
X345099Y131934D01*
X343933Y131351D02*
X342766D01*
X343349D01*
Y134849D01*
X343933Y134266D01*
X341017Y131351D02*
X339851D01*
X340434D01*
Y134849D01*
X341017Y134266D01*
X338101D02*
X337518Y134849D01*
X336352D01*
X335769Y134266D01*
Y133683D01*
X336352Y133100D01*
X335769Y132517D01*
Y131934D01*
X336352Y131351D01*
X337518D01*
X338101Y131934D01*
Y132517D01*
X337518Y133100D01*
X338101Y133683D01*
Y134266D01*
X337518Y133100D02*
X336352D01*
X300966Y139501D02*
X301549Y138918D01*
Y137752D01*
X300966Y137169D01*
X298634D01*
X298051Y137752D01*
Y138918D01*
X298634Y139501D01*
X298051Y140667D02*
Y141834D01*
Y141251D01*
X301549D01*
X300966Y140667D01*
X298051Y143583D02*
Y144749D01*
Y144166D01*
X301549D01*
X300966Y143583D01*
X301549Y146499D02*
Y148831D01*
X300966D01*
X298634Y146499D01*
X298051D01*
X285081Y206749D02*
X282748Y203251D01*
Y206749D02*
X285081Y203251D01*
X281582Y206749D02*
X279249D01*
X280416D01*
Y203251D01*
X278083D02*
Y205583D01*
X276917Y206749D01*
X275751Y205583D01*
Y203251D01*
Y205000D01*
X278083D01*
X274584Y206749D02*
Y203251D01*
X272252D01*
X271085D02*
X269919D01*
X270502D01*
Y206749D01*
X271085Y206166D01*
X321349Y173618D02*
X317851Y175951D01*
X321349D02*
X317851Y173618D01*
X321349Y178866D02*
Y177700D01*
X320766Y177117D01*
X318434D01*
X317851Y177700D01*
Y178866D01*
X318434Y179449D01*
X320766D01*
X321349Y178866D01*
X317851Y180616D02*
Y181782D01*
Y181199D01*
X321349D01*
X320766Y180616D01*
X575465Y393050D02*
Y390135D01*
X574882Y389551D01*
X573716D01*
X573133Y390135D01*
Y393050D01*
X569634Y389551D02*
X571966D01*
X569634Y391884D01*
Y392467D01*
X570217Y393050D01*
X571383D01*
X571966Y392467D01*
X568467D02*
X567884Y393050D01*
X566718D01*
X566135Y392467D01*
Y391884D01*
X566718Y391301D01*
X567301D01*
X566718D01*
X566135Y390718D01*
Y390135D01*
X566718Y389551D01*
X567884D01*
X568467Y390135D01*
X490665Y396049D02*
Y393134D01*
X490082Y392551D01*
X488916D01*
X488333Y393134D01*
Y396049D01*
X484834Y392551D02*
X487166D01*
X484834Y394883D01*
Y395466D01*
X485417Y396049D01*
X486583D01*
X487166Y395466D01*
X481335Y392551D02*
X483667D01*
X481335Y394883D01*
Y395466D01*
X481918Y396049D01*
X483084D01*
X483667Y395466D01*
X321774Y446249D02*
Y443334D01*
X321190Y442751D01*
X320024D01*
X319441Y443334D01*
Y446249D01*
X318275Y442751D02*
X317108D01*
X317692D01*
Y446249D01*
X318275Y445666D01*
X313026Y446249D02*
X314193Y445666D01*
X315359Y444500D01*
Y443334D01*
X314776Y442751D01*
X313610D01*
X313026Y443334D01*
Y443917D01*
X313610Y444500D01*
X315359D01*
X566374Y362849D02*
Y359934D01*
X565790Y359351D01*
X564624D01*
X564041Y359934D01*
Y362849D01*
X562875Y359351D02*
X561708D01*
X562292D01*
Y362849D01*
X562875Y362266D01*
X557626Y362849D02*
X559959D01*
Y361100D01*
X558793Y361683D01*
X558210D01*
X557626Y361100D01*
Y359934D01*
X558210Y359351D01*
X559376D01*
X559959Y359934D01*
X242049Y255427D02*
X239134D01*
X238551Y256010D01*
Y257177D01*
X239134Y257760D01*
X242049D01*
X238551Y258926D02*
Y260092D01*
Y259509D01*
X242049D01*
X241466Y258926D01*
X238551Y263591D02*
X242049D01*
X240300Y261842D01*
Y264175D01*
X511451Y45074D02*
X514366D01*
X514949Y44490D01*
Y43324D01*
X514366Y42741D01*
X511451D01*
X514949Y41575D02*
Y40408D01*
Y40992D01*
X511451D01*
X512034Y41575D01*
Y38659D02*
X511451Y38076D01*
Y36910D01*
X512034Y36326D01*
X512617D01*
X513200Y36910D01*
Y37493D01*
Y36910D01*
X513783Y36326D01*
X514366D01*
X514949Y36910D01*
Y38076D01*
X514366Y38659D01*
X281823Y435549D02*
X279490D01*
X280657D01*
Y432051D01*
X278324D02*
Y435549D01*
X276575D01*
X275992Y434966D01*
Y433800D01*
X276575Y433217D01*
X278324D01*
X274825Y432051D02*
X273659D01*
X274242D01*
Y435549D01*
X274825Y434966D01*
X269577Y435549D02*
X270743Y434966D01*
X271910Y433800D01*
Y432634D01*
X271326Y432051D01*
X270160D01*
X269577Y432634D01*
Y433217D01*
X270160Y433800D01*
X271910D01*
X230733Y213466D02*
X231316Y214049D01*
X232482D01*
X233065Y213466D01*
Y212883D01*
X232482Y212300D01*
X231316D01*
X230733Y211717D01*
Y211134D01*
X231316Y210551D01*
X232482D01*
X233065Y211134D01*
X229566Y214049D02*
Y210551D01*
X228400Y211717D01*
X227234Y210551D01*
Y214049D01*
X223735Y210551D02*
X226067D01*
X223735Y212883D01*
Y213466D01*
X224318Y214049D01*
X225484D01*
X226067Y213466D01*
X266449Y158566D02*
X267033Y159149D01*
X268199D01*
X268782Y158566D01*
Y157983D01*
X268199Y157400D01*
X267033D01*
X266449Y156817D01*
Y156234D01*
X267033Y155651D01*
X268199D01*
X268782Y156234D01*
X265283Y159149D02*
Y155651D01*
X264117Y156817D01*
X262951Y155651D01*
Y159149D01*
X261784Y155651D02*
X260618D01*
X261201D01*
Y159149D01*
X261784Y158566D01*
X553165Y404751D02*
Y408249D01*
X551416D01*
X550833Y407666D01*
Y406500D01*
X551416Y405917D01*
X553165D01*
X551999D02*
X550833Y404751D01*
X549666Y407666D02*
X549083Y408249D01*
X547917D01*
X547334Y407666D01*
Y407083D01*
X547917Y406500D01*
X547334Y405917D01*
Y405334D01*
X547917Y404751D01*
X549083D01*
X549666Y405334D01*
Y405917D01*
X549083Y406500D01*
X549666Y407083D01*
Y407666D01*
X549083Y406500D02*
X547917D01*
X543835Y408249D02*
X545001Y407666D01*
X546167Y406500D01*
Y405334D01*
X545584Y404751D01*
X544418D01*
X543835Y405334D01*
Y405917D01*
X544418Y406500D01*
X546167D01*
X622465Y388651D02*
Y392149D01*
X620716D01*
X620133Y391566D01*
Y390400D01*
X620716Y389817D01*
X622465D01*
X621299D02*
X620133Y388651D01*
X618966Y391566D02*
X618383Y392149D01*
X617217D01*
X616634Y391566D01*
Y390983D01*
X617217Y390400D01*
X616634Y389817D01*
Y389234D01*
X617217Y388651D01*
X618383D01*
X618966Y389234D01*
Y389817D01*
X618383Y390400D01*
X618966Y390983D01*
Y391566D01*
X618383Y390400D02*
X617217D01*
X613135Y392149D02*
X615467D01*
Y390400D01*
X614301Y390983D01*
X613718D01*
X613135Y390400D01*
Y389234D01*
X613718Y388651D01*
X614884D01*
X615467Y389234D01*
X610165Y409852D02*
Y413350D01*
X608416D01*
X607833Y412767D01*
Y411601D01*
X608416Y411018D01*
X610165D01*
X608999D02*
X607833Y409852D01*
X606666Y412767D02*
X606083Y413350D01*
X604917D01*
X604334Y412767D01*
Y412184D01*
X604917Y411601D01*
X604334Y411018D01*
Y410435D01*
X604917Y409852D01*
X606083D01*
X606666Y410435D01*
Y411018D01*
X606083Y411601D01*
X606666Y412184D01*
Y412767D01*
X606083Y411601D02*
X604917D01*
X601418Y409852D02*
Y413350D01*
X603167Y411601D01*
X600835D01*
X522082Y53151D02*
Y56649D01*
X520333D01*
X519749Y56066D01*
Y54900D01*
X520333Y54317D01*
X522082D01*
X520916D02*
X519749Y53151D01*
X518583Y53734D02*
X518000Y53151D01*
X516834D01*
X516251Y53734D01*
Y56066D01*
X516834Y56649D01*
X518000D01*
X518583Y56066D01*
Y55483D01*
X518000Y54900D01*
X516251D01*
X515084Y53151D02*
X513918D01*
X514501D01*
Y56649D01*
X515084Y56066D01*
X610065Y401651D02*
Y405150D01*
X608316D01*
X607733Y404567D01*
Y403401D01*
X608316Y402818D01*
X610065D01*
X608899D02*
X607733Y401651D01*
X606566Y404567D02*
X605983Y405150D01*
X604817D01*
X604234Y404567D01*
Y403984D01*
X604817Y403401D01*
X604234Y402818D01*
Y402235D01*
X604817Y401651D01*
X605983D01*
X606566Y402235D01*
Y402818D01*
X605983Y403401D01*
X606566Y403984D01*
Y404567D01*
X605983Y403401D02*
X604817D01*
X603067Y404567D02*
X602484Y405150D01*
X601318D01*
X600735Y404567D01*
Y403984D01*
X601318Y403401D01*
X601901D01*
X601318D01*
X600735Y402818D01*
Y402235D01*
X601318Y401651D01*
X602484D01*
X603067Y402235D01*
X381215Y308550D02*
Y312049D01*
X379466D01*
X378883Y311465D01*
Y310299D01*
X379466Y309716D01*
X381215D01*
X380049D02*
X378883Y308550D01*
X375384Y312049D02*
X376550Y311465D01*
X377716Y310299D01*
Y309133D01*
X377133Y308550D01*
X375967D01*
X375384Y309133D01*
Y309716D01*
X375967Y310299D01*
X377716D01*
X374217Y309133D02*
X373634Y308550D01*
X372468D01*
X371885Y309133D01*
Y311465D01*
X372468Y312049D01*
X373634D01*
X374217Y311465D01*
Y310882D01*
X373634Y310299D01*
X371885D01*
X362065Y287551D02*
Y291049D01*
X360316D01*
X359733Y290466D01*
Y289300D01*
X360316Y288717D01*
X362065D01*
X360899D02*
X359733Y287551D01*
X356234Y291049D02*
X357400Y290466D01*
X358566Y289300D01*
Y288134D01*
X357983Y287551D01*
X356817D01*
X356234Y288134D01*
Y288717D01*
X356817Y289300D01*
X358566D01*
X355067Y290466D02*
X354484Y291049D01*
X353318D01*
X352735Y290466D01*
Y289883D01*
X353318Y289300D01*
X352735Y288717D01*
Y288134D01*
X353318Y287551D01*
X354484D01*
X355067Y288134D01*
Y288717D01*
X354484Y289300D01*
X355067Y289883D01*
Y290466D01*
X354484Y289300D02*
X353318D01*
X308965Y265251D02*
Y268749D01*
X307216D01*
X306633Y268166D01*
Y267000D01*
X307216Y266417D01*
X308965D01*
X307799D02*
X306633Y265251D01*
X303134Y268749D02*
X304300Y268166D01*
X305466Y267000D01*
Y265834D01*
X304883Y265251D01*
X303717D01*
X303134Y265834D01*
Y266417D01*
X303717Y267000D01*
X305466D01*
X299635Y268749D02*
X301967D01*
Y267000D01*
X300801Y267583D01*
X300218D01*
X299635Y267000D01*
Y265834D01*
X300218Y265251D01*
X301384D01*
X301967Y265834D01*
X255365Y229451D02*
Y232949D01*
X253616D01*
X253033Y232366D01*
Y231200D01*
X253616Y230617D01*
X255365D01*
X254199D02*
X253033Y229451D01*
X249534Y232949D02*
X251866D01*
Y231200D01*
X250700Y231783D01*
X250117D01*
X249534Y231200D01*
Y230034D01*
X250117Y229451D01*
X251283D01*
X251866Y230034D01*
X246035Y232949D02*
X247201Y232366D01*
X248367Y231200D01*
Y230034D01*
X247784Y229451D01*
X246618D01*
X246035Y230034D01*
Y230617D01*
X246618Y231200D01*
X248367D01*
X280282Y185451D02*
Y188949D01*
X278533D01*
X277949Y188366D01*
Y187200D01*
X278533Y186617D01*
X280282D01*
X279116D02*
X277949Y185451D01*
X274451Y188949D02*
X276783D01*
Y187200D01*
X275617Y187783D01*
X275034D01*
X274451Y187200D01*
Y186034D01*
X275034Y185451D01*
X276200D01*
X276783Y186034D01*
X273284Y185451D02*
X272118D01*
X272701D01*
Y188949D01*
X273284Y188366D01*
X256651Y421235D02*
X260149D01*
Y422984D01*
X259566Y423567D01*
X258400D01*
X257817Y422984D01*
Y421235D01*
Y422401D02*
X256651Y423567D01*
X260149Y427066D02*
Y424734D01*
X258400D01*
X258983Y425900D01*
Y426483D01*
X258400Y427066D01*
X257234D01*
X256651Y426483D01*
Y425317D01*
X257234Y424734D01*
X259566Y428233D02*
X260149Y428816D01*
Y429982D01*
X259566Y430565D01*
X257234D01*
X256651Y429982D01*
Y428816D01*
X257234Y428233D01*
X259566D01*
X581800Y362800D02*
Y366299D01*
X580051D01*
X579467Y365716D01*
Y364549D01*
X580051Y363966D01*
X581800D01*
X580634D02*
X579467Y362800D01*
X576552D02*
Y366299D01*
X578301Y364549D01*
X575969D01*
X574802Y363383D02*
X574219Y362800D01*
X573053D01*
X572470Y363383D01*
Y365716D01*
X573053Y366299D01*
X574219D01*
X574802Y365716D01*
Y365133D01*
X574219Y364549D01*
X572470D01*
X304565Y156151D02*
Y159649D01*
X302816D01*
X302233Y159066D01*
Y157900D01*
X302816Y157317D01*
X304565D01*
X303399D02*
X302233Y156151D01*
X299317D02*
Y159649D01*
X301066Y157900D01*
X298734D01*
X295235Y159649D02*
X296401Y159066D01*
X297567Y157900D01*
Y156734D01*
X296984Y156151D01*
X295818D01*
X295235Y156734D01*
Y157317D01*
X295818Y157900D01*
X297567D01*
X318051Y131135D02*
X321549D01*
Y132884D01*
X320966Y133467D01*
X319800D01*
X319217Y132884D01*
Y131135D01*
Y132301D02*
X318051Y133467D01*
Y136383D02*
X321549D01*
X319800Y134634D01*
Y136966D01*
X321549Y140465D02*
Y138133D01*
X319800D01*
X320383Y139299D01*
Y139882D01*
X319800Y140465D01*
X318634D01*
X318051Y139882D01*
Y138716D01*
X318634Y138133D01*
X304715Y127450D02*
Y130949D01*
X302966D01*
X302383Y130365D01*
Y129199D01*
X302966Y128616D01*
X304715D01*
X303549D02*
X302383Y127450D01*
X299467D02*
Y130949D01*
X301216Y129199D01*
X298884D01*
X295968Y127450D02*
Y130949D01*
X297717Y129199D01*
X295385D01*
X532765Y20451D02*
Y23949D01*
X531016D01*
X530433Y23366D01*
Y22200D01*
X531016Y21617D01*
X532765D01*
X531599D02*
X530433Y20451D01*
X527517D02*
Y23949D01*
X529266Y22200D01*
X526934D01*
X525767Y23366D02*
X525184Y23949D01*
X524018D01*
X523435Y23366D01*
Y22783D01*
X524018Y22200D01*
X524601D01*
X524018D01*
X523435Y21617D01*
Y21034D01*
X524018Y20451D01*
X525184D01*
X525767Y21034D01*
X515582Y12051D02*
Y15550D01*
X513833D01*
X513249Y14967D01*
Y13801D01*
X513833Y13218D01*
X515582D01*
X514416D02*
X513249Y12051D01*
X510334D02*
Y15550D01*
X512083Y13801D01*
X509751D01*
X508584Y12051D02*
X507418D01*
X508001D01*
Y15550D01*
X508584Y14967D01*
X533449Y408013D02*
X529951D01*
Y406264D01*
X530534Y405681D01*
X531700D01*
X532283Y406264D01*
Y408013D01*
Y406847D02*
X533449Y405681D01*
Y402765D02*
X529951D01*
X531700Y404514D01*
Y402182D01*
X530534Y401016D02*
X529951Y400432D01*
Y399266D01*
X530534Y398683D01*
X532866D01*
X533449Y399266D01*
Y400432D01*
X532866Y401016D01*
X530534D01*
X475365Y416952D02*
Y420450D01*
X473616D01*
X473033Y419867D01*
Y418701D01*
X473616Y418118D01*
X475365D01*
X474199D02*
X473033Y416952D01*
X471866Y419867D02*
X471283Y420450D01*
X470117D01*
X469534Y419867D01*
Y419284D01*
X470117Y418701D01*
X470700D01*
X470117D01*
X469534Y418118D01*
Y417535D01*
X470117Y416952D01*
X471283D01*
X471866Y417535D01*
X468367D02*
X467784Y416952D01*
X466618D01*
X466035Y417535D01*
Y419867D01*
X466618Y420450D01*
X467784D01*
X468367Y419867D01*
Y419284D01*
X467784Y418701D01*
X466035D01*
X511665Y404851D02*
Y408349D01*
X509916D01*
X509333Y407766D01*
Y406600D01*
X509916Y406017D01*
X511665D01*
X510499D02*
X509333Y404851D01*
X508166Y407766D02*
X507583Y408349D01*
X506417D01*
X505834Y407766D01*
Y407183D01*
X506417Y406600D01*
X507000D01*
X506417D01*
X505834Y406017D01*
Y405434D01*
X506417Y404851D01*
X507583D01*
X508166Y405434D01*
X504667Y407766D02*
X504084Y408349D01*
X502918D01*
X502335Y407766D01*
Y407183D01*
X502918Y406600D01*
X502335Y406017D01*
Y405434D01*
X502918Y404851D01*
X504084D01*
X504667Y405434D01*
Y406017D01*
X504084Y406600D01*
X504667Y407183D01*
Y407766D01*
X504084Y406600D02*
X502918D01*
X240751Y290635D02*
X244249D01*
Y292384D01*
X243666Y292967D01*
X242500D01*
X241917Y292384D01*
Y290635D01*
Y291801D02*
X240751Y292967D01*
X243666Y294134D02*
X244249Y294717D01*
Y295883D01*
X243666Y296466D01*
X243083D01*
X242500Y295883D01*
Y295300D01*
Y295883D01*
X241917Y296466D01*
X241334D01*
X240751Y295883D01*
Y294717D01*
X241334Y294134D01*
X244249Y297633D02*
Y299965D01*
X243666D01*
X241334Y297633D01*
X240751D01*
X219951Y275836D02*
X223449D01*
Y277585D01*
X222866Y278168D01*
X221700D01*
X221117Y277585D01*
Y275836D01*
Y277002D02*
X219951Y278168D01*
X222866Y279335D02*
X223449Y279918D01*
Y281084D01*
X222866Y281667D01*
X222283D01*
X221700Y281084D01*
Y280501D01*
Y281084D01*
X221117Y281667D01*
X220534D01*
X219951Y281084D01*
Y279918D01*
X220534Y279335D01*
X223449Y285166D02*
X222866Y284000D01*
X221700Y282834D01*
X220534D01*
X219951Y283417D01*
Y284583D01*
X220534Y285166D01*
X221117D01*
X221700Y284583D01*
Y282834D01*
X352965Y376651D02*
Y380149D01*
X351216D01*
X350633Y379566D01*
Y378400D01*
X351216Y377817D01*
X352965D01*
X351799D02*
X350633Y376651D01*
X349466Y379566D02*
X348883Y380149D01*
X347717D01*
X347134Y379566D01*
Y378983D01*
X347717Y378400D01*
X348300D01*
X347717D01*
X347134Y377817D01*
Y377234D01*
X347717Y376651D01*
X348883D01*
X349466Y377234D01*
X343635Y380149D02*
X345967D01*
Y378400D01*
X344801Y378983D01*
X344218D01*
X343635Y378400D01*
Y377234D01*
X344218Y376651D01*
X345384D01*
X345967Y377234D01*
X296665Y449851D02*
Y453349D01*
X294916D01*
X294333Y452766D01*
Y451600D01*
X294916Y451017D01*
X296665D01*
X295499D02*
X294333Y449851D01*
X293166Y452766D02*
X292583Y453349D01*
X291417D01*
X290834Y452766D01*
Y452183D01*
X291417Y451600D01*
X292000D01*
X291417D01*
X290834Y451017D01*
Y450434D01*
X291417Y449851D01*
X292583D01*
X293166Y450434D01*
X287918Y449851D02*
Y453349D01*
X289667Y451600D01*
X287335D01*
X291649Y419565D02*
X288151D01*
Y417816D01*
X288734Y417233D01*
X289900D01*
X290483Y417816D01*
Y419565D01*
Y418399D02*
X291649Y417233D01*
X288734Y416066D02*
X288151Y415483D01*
Y414317D01*
X288734Y413734D01*
X289317D01*
X289900Y414317D01*
Y414900D01*
Y414317D01*
X290483Y413734D01*
X291066D01*
X291649Y414317D01*
Y415483D01*
X291066Y416066D01*
X288734Y412567D02*
X288151Y411984D01*
Y410818D01*
X288734Y410235D01*
X289317D01*
X289900Y410818D01*
Y411401D01*
Y410818D01*
X290483Y410235D01*
X291066D01*
X291649Y410818D01*
Y411984D01*
X291066Y412567D01*
X231415Y239551D02*
Y243050D01*
X229666D01*
X229083Y242467D01*
Y241301D01*
X229666Y240718D01*
X231415D01*
X230249D02*
X229083Y239551D01*
X225584D02*
X227916D01*
X225584Y241884D01*
Y242467D01*
X226167Y243050D01*
X227333D01*
X227916Y242467D01*
X224417Y243050D02*
X222085D01*
Y242467D01*
X224417Y240135D01*
Y239551D01*
X213165Y245551D02*
Y249050D01*
X211416D01*
X210833Y248467D01*
Y247301D01*
X211416Y246718D01*
X213165D01*
X211999D02*
X210833Y245551D01*
X207334D02*
X209666D01*
X207334Y247884D01*
Y248467D01*
X207917Y249050D01*
X209083D01*
X209666Y248467D01*
X203835Y245551D02*
X206167D01*
X203835Y247884D01*
Y248467D01*
X204418Y249050D01*
X205584D01*
X206167Y248467D01*
X540282Y338152D02*
Y341650D01*
X538533D01*
X537949Y341067D01*
Y339901D01*
X538533Y339318D01*
X540282D01*
X539116D02*
X537949Y338152D01*
X534451D02*
X536783D01*
X534451Y340484D01*
Y341067D01*
X535034Y341650D01*
X536200D01*
X536783Y341067D01*
X533284Y338152D02*
X532118D01*
X532701D01*
Y341650D01*
X533284Y341067D01*
X619051Y225027D02*
X622549D01*
Y226777D01*
X621966Y227360D01*
X620800D01*
X620217Y226777D01*
Y225027D01*
Y226194D02*
X619051Y227360D01*
Y228526D02*
Y229693D01*
Y229109D01*
X622549D01*
X621966Y228526D01*
Y231442D02*
X622549Y232025D01*
Y233191D01*
X621966Y233774D01*
X621383D01*
X620800Y233191D01*
X620217Y233774D01*
X619634D01*
X619051Y233191D01*
Y232025D01*
X619634Y231442D01*
X620217D01*
X620800Y232025D01*
X621383Y231442D01*
X621966D01*
X620800Y232025D02*
Y233191D01*
X577516Y422949D02*
Y419451D01*
X575183D01*
X572267D02*
Y422949D01*
X574017Y421200D01*
X571684D01*
X211933Y266950D02*
Y263452D01*
X209600D01*
X208434D02*
X207267D01*
X207851D01*
Y266950D01*
X208434Y266367D01*
X559671Y7842D02*
X558505D01*
X559088D01*
Y11341D01*
X559671Y10758D01*
X556756Y11341D02*
Y9008D01*
X555589Y7842D01*
X554423Y9008D01*
Y11341D01*
X553257Y10758D02*
X552674Y11341D01*
X551507D01*
X550924Y10758D01*
Y10175D01*
X551507Y9592D01*
X550924Y9008D01*
Y8425D01*
X551507Y7842D01*
X552674D01*
X553257Y8425D01*
Y9008D01*
X552674Y9592D01*
X553257Y10175D01*
Y10758D01*
X552674Y9592D02*
X551507D01*
X549758Y7259D02*
X547425D01*
X543926Y11341D02*
X546259D01*
Y7842D01*
X543926D01*
X546259Y9592D02*
X545093D01*
X542760Y11341D02*
X540427Y7842D01*
Y11341D02*
X542760Y7842D01*
X539261Y11341D02*
X536929D01*
X538095D01*
Y7842D01*
X469655Y10615D02*
X470239Y11198D01*
X471405D01*
X471988Y10615D01*
Y8282D01*
X471405Y7699D01*
X470239D01*
X469655Y8282D01*
Y9449D01*
X470822D01*
X468489Y7699D02*
Y11198D01*
X466156Y7699D01*
Y11198D01*
X464990D02*
Y7699D01*
X463241D01*
X462658Y8282D01*
Y10615D01*
X463241Y11198D01*
X464990D01*
X624400Y345299D02*
X623234D01*
X623817D01*
Y341800D01*
X624400D01*
X623234D01*
X619152Y344716D02*
X619735Y345299D01*
X620901D01*
X621484Y344716D01*
Y342383D01*
X620901Y341800D01*
X619735D01*
X619152Y342383D01*
X617985Y341800D02*
X616819D01*
X617402D01*
Y345299D01*
X617985Y344716D01*
X258616Y209149D02*
Y205651D01*
X256866D01*
X256283Y206234D01*
Y208566D01*
X256866Y209149D01*
X258616D01*
X255117Y208566D02*
X254534Y209149D01*
X253367D01*
X252784Y208566D01*
Y207983D01*
X253367Y207400D01*
X253951D01*
X253367D01*
X252784Y206817D01*
Y206234D01*
X253367Y205651D01*
X254534D01*
X255117Y206234D01*
X247416Y217749D02*
Y214251D01*
X245666D01*
X245083Y214834D01*
Y217166D01*
X245666Y217749D01*
X247416D01*
X241584Y214251D02*
X243917D01*
X241584Y216583D01*
Y217166D01*
X242167Y217749D01*
X243334D01*
X243917Y217166D01*
X280533Y409349D02*
Y405851D01*
X278783D01*
X278200Y406434D01*
Y408766D01*
X278783Y409349D01*
X280533D01*
X277034Y405851D02*
X275867D01*
X276451D01*
Y409349D01*
X277034Y408766D01*
X558234Y386734D02*
X557651Y387317D01*
Y388483D01*
X558234Y389066D01*
X560566D01*
X561149Y388483D01*
Y387317D01*
X560566Y386734D01*
X561149Y383818D02*
X557651D01*
X559400Y385567D01*
Y383235D01*
X557651Y379736D02*
Y382068D01*
X559400D01*
X558817Y380902D01*
Y380319D01*
X559400Y379736D01*
X560566D01*
X561149Y380319D01*
Y381485D01*
X560566Y382068D01*
X579934Y388899D02*
X579351Y389482D01*
Y390648D01*
X579934Y391231D01*
X582266D01*
X582849Y390648D01*
Y389482D01*
X582266Y388899D01*
X582849Y387733D02*
Y386566D01*
Y387149D01*
X579351D01*
X579934Y387733D01*
X582849Y384817D02*
Y383651D01*
Y384234D01*
X579351D01*
X579934Y384817D01*
X579351Y379569D02*
X579934Y380735D01*
X581100Y381901D01*
X582266D01*
X582849Y381318D01*
Y380152D01*
X582266Y379569D01*
X581683D01*
X581100Y380152D01*
Y381901D01*
X606033Y238167D02*
X606616Y238750D01*
X607782D01*
X608365Y238167D01*
Y235835D01*
X607782Y235251D01*
X606616D01*
X606033Y235835D01*
X604866Y238167D02*
X604283Y238750D01*
X603117D01*
X602534Y238167D01*
Y237584D01*
X603117Y237001D01*
X603700D01*
X603117D01*
X602534Y236418D01*
Y235835D01*
X603117Y235251D01*
X604283D01*
X604866Y235835D01*
X599035Y238750D02*
X601367D01*
Y237001D01*
X600201Y237584D01*
X599618D01*
X599035Y237001D01*
Y235835D01*
X599618Y235251D01*
X600784D01*
X601367Y235835D01*
X600633Y203066D02*
X601216Y203649D01*
X602382D01*
X602965Y203066D01*
Y200734D01*
X602382Y200151D01*
X601216D01*
X600633Y200734D01*
X599466Y203066D02*
X598883Y203649D01*
X597717D01*
X597134Y203066D01*
Y202483D01*
X597717Y201900D01*
X598300D01*
X597717D01*
X597134Y201317D01*
Y200734D01*
X597717Y200151D01*
X598883D01*
X599466Y200734D01*
X593635Y203649D02*
X594801Y203066D01*
X595967Y201900D01*
Y200734D01*
X595384Y200151D01*
X594218D01*
X593635Y200734D01*
Y201317D01*
X594218Y201900D01*
X595967D01*
X495034Y393998D02*
X494451Y394581D01*
Y395747D01*
X495034Y396330D01*
X497366D01*
X497949Y395747D01*
Y394581D01*
X497366Y393998D01*
X497949Y392832D02*
Y391665D01*
Y392249D01*
X494451D01*
X495034Y392832D01*
X497949Y389916D02*
Y388750D01*
Y389333D01*
X494451D01*
X495034Y389916D01*
X494451Y384668D02*
Y387000D01*
X496200D01*
X495617Y385834D01*
Y385251D01*
X496200Y384668D01*
X497366D01*
X497949Y385251D01*
Y386417D01*
X497366Y387000D01*
X460234Y399099D02*
X459651Y399682D01*
Y400848D01*
X460234Y401431D01*
X462566D01*
X463149Y400848D01*
Y399682D01*
X462566Y399099D01*
X463149Y397933D02*
Y396766D01*
Y397349D01*
X459651D01*
X460234Y397933D01*
X463149Y395017D02*
Y393851D01*
Y394434D01*
X459651D01*
X460234Y395017D01*
X463149Y390352D02*
X459651D01*
X461400Y392101D01*
Y389769D01*
X324690Y258566D02*
X325274Y259149D01*
X326440D01*
X327023Y258566D01*
Y256234D01*
X326440Y255651D01*
X325274D01*
X324690Y256234D01*
X323524Y255651D02*
X322358D01*
X322941D01*
Y259149D01*
X323524Y258566D01*
X320608D02*
X320025Y259149D01*
X318859D01*
X318276Y258566D01*
Y256234D01*
X318859Y255651D01*
X320025D01*
X320608Y256234D01*
Y258566D01*
X314777Y259149D02*
X317110D01*
Y257400D01*
X315943Y257983D01*
X315360D01*
X314777Y257400D01*
Y256234D01*
X315360Y255651D01*
X316526D01*
X317110Y256234D01*
X339090Y258466D02*
X339674Y259049D01*
X340840D01*
X341423Y258466D01*
Y256134D01*
X340840Y255551D01*
X339674D01*
X339090Y256134D01*
X337924Y255551D02*
X336758D01*
X337341D01*
Y259049D01*
X337924Y258466D01*
X335008D02*
X334425Y259049D01*
X333259D01*
X332676Y258466D01*
Y256134D01*
X333259Y255551D01*
X334425D01*
X335008Y256134D01*
Y258466D01*
X331510D02*
X330926Y259049D01*
X329760D01*
X329177Y258466D01*
Y257883D01*
X329760Y257300D01*
X330343D01*
X329760D01*
X329177Y256717D01*
Y256134D01*
X329760Y255551D01*
X330926D01*
X331510Y256134D01*
X352049Y258166D02*
X352633Y258749D01*
X353799D01*
X354382Y258166D01*
Y255834D01*
X353799Y255251D01*
X352633D01*
X352049Y255834D01*
X350883Y258166D02*
X350300Y258749D01*
X349134D01*
X348551Y258166D01*
Y257583D01*
X349134Y257000D01*
X348551Y256417D01*
Y255834D01*
X349134Y255251D01*
X350300D01*
X350883Y255834D01*
Y256417D01*
X350300Y257000D01*
X350883Y257583D01*
Y258166D01*
X350300Y257000D02*
X349134D01*
X347384Y255251D02*
X346218D01*
X346801D01*
Y258749D01*
X347384Y258166D01*
X287333Y211166D02*
X287916Y211749D01*
X289082D01*
X289665Y211166D01*
Y208834D01*
X289082Y208251D01*
X287916D01*
X287333Y208834D01*
X286166Y211749D02*
X283834D01*
Y211166D01*
X286166Y208834D01*
Y208251D01*
X282667Y208834D02*
X282084Y208251D01*
X280918D01*
X280335Y208834D01*
Y211166D01*
X280918Y211749D01*
X282084D01*
X282667Y211166D01*
Y210583D01*
X282084Y210000D01*
X280335D01*
X415633Y136266D02*
X416216Y136849D01*
X417382D01*
X417965Y136266D01*
Y133934D01*
X417382Y133351D01*
X416216D01*
X415633Y133934D01*
X412134Y136849D02*
X413300Y136266D01*
X414466Y135100D01*
Y133934D01*
X413883Y133351D01*
X412717D01*
X412134Y133934D01*
Y134517D01*
X412717Y135100D01*
X414466D01*
X410967Y136849D02*
X408635D01*
Y136266D01*
X410967Y133934D01*
Y133351D01*
X415733Y156066D02*
X416316Y156649D01*
X417482D01*
X418065Y156066D01*
Y153734D01*
X417482Y153151D01*
X416316D01*
X415733Y153734D01*
X412234Y156649D02*
X413400Y156066D01*
X414566Y154900D01*
Y153734D01*
X413983Y153151D01*
X412817D01*
X412234Y153734D01*
Y154317D01*
X412817Y154900D01*
X414566D01*
X408735Y156649D02*
X409901Y156066D01*
X411067Y154900D01*
Y153734D01*
X410484Y153151D01*
X409318D01*
X408735Y153734D01*
Y154317D01*
X409318Y154900D01*
X411067D01*
X414933Y249366D02*
X415516Y249949D01*
X416682D01*
X417265Y249366D01*
Y247034D01*
X416682Y246451D01*
X415516D01*
X414933Y247034D01*
X411434Y249949D02*
X412600Y249366D01*
X413766Y248200D01*
Y247034D01*
X413183Y246451D01*
X412017D01*
X411434Y247034D01*
Y247617D01*
X412017Y248200D01*
X413766D01*
X407935Y249949D02*
X410267D01*
Y248200D01*
X409101Y248783D01*
X408518D01*
X407935Y248200D01*
Y247034D01*
X408518Y246451D01*
X409684D01*
X410267Y247034D01*
X414933Y242666D02*
X415516Y243249D01*
X416682D01*
X417265Y242666D01*
Y240334D01*
X416682Y239751D01*
X415516D01*
X414933Y240334D01*
X411434Y243249D02*
X412600Y242666D01*
X413766Y241500D01*
Y240334D01*
X413183Y239751D01*
X412017D01*
X411434Y240334D01*
Y240917D01*
X412017Y241500D01*
X413766D01*
X408518Y239751D02*
Y243249D01*
X410267Y241500D01*
X407935D01*
X324234Y378133D02*
X323651Y378716D01*
Y379882D01*
X324234Y380465D01*
X326566D01*
X327149Y379882D01*
Y378716D01*
X326566Y378133D01*
X323651Y374634D02*
X324234Y375800D01*
X325400Y376966D01*
X326566D01*
X327149Y376383D01*
Y375217D01*
X326566Y374634D01*
X325983D01*
X325400Y375217D01*
Y376966D01*
X324234Y373467D02*
X323651Y372884D01*
Y371718D01*
X324234Y371135D01*
X324817D01*
X325400Y371718D01*
Y372301D01*
Y371718D01*
X325983Y371135D01*
X326566D01*
X327149Y371718D01*
Y372884D01*
X326566Y373467D01*
X306033Y453966D02*
X306616Y454549D01*
X307782D01*
X308365Y453966D01*
Y451634D01*
X307782Y451051D01*
X306616D01*
X306033Y451634D01*
X302534Y454549D02*
X303700Y453966D01*
X304866Y452800D01*
Y451634D01*
X304283Y451051D01*
X303117D01*
X302534Y451634D01*
Y452217D01*
X303117Y452800D01*
X304866D01*
X299035Y451051D02*
X301367D01*
X299035Y453383D01*
Y453966D01*
X299618Y454549D01*
X300784D01*
X301367Y453966D01*
X296834Y415633D02*
X296251Y416216D01*
Y417382D01*
X296834Y417965D01*
X299166D01*
X299749Y417382D01*
Y416216D01*
X299166Y415633D01*
X296251Y412134D02*
Y414466D01*
X298000D01*
X297417Y413300D01*
Y412717D01*
X298000Y412134D01*
X299166D01*
X299749Y412717D01*
Y413883D01*
X299166Y414466D01*
Y410967D02*
X299749Y410384D01*
Y409218D01*
X299166Y408635D01*
X296834D01*
X296251Y409218D01*
Y410384D01*
X296834Y410967D01*
X297417D01*
X298000Y410384D01*
Y408635D01*
X336488Y405378D02*
X337071Y404795D01*
Y403628D01*
X336488Y403045D01*
X334155D01*
X333572Y403628D01*
Y404795D01*
X334155Y405378D01*
X337071Y408877D02*
Y406544D01*
X335321D01*
X335904Y407710D01*
Y408293D01*
X335321Y408877D01*
X334155D01*
X333572Y408293D01*
Y407127D01*
X334155Y406544D01*
X337071Y410043D02*
Y412375D01*
X336488D01*
X334155Y410043D01*
X333572D01*
X278933Y172866D02*
X279516Y173449D01*
X280682D01*
X281265Y172866D01*
Y170534D01*
X280682Y169951D01*
X279516D01*
X278933Y170534D01*
X275434Y173449D02*
X277766D01*
Y171700D01*
X276600Y172283D01*
X276017D01*
X275434Y171700D01*
Y170534D01*
X276017Y169951D01*
X277183D01*
X277766Y170534D01*
X271935Y173449D02*
X273101Y172866D01*
X274267Y171700D01*
Y170534D01*
X273684Y169951D01*
X272518D01*
X271935Y170534D01*
Y171117D01*
X272518Y171700D01*
X274267D01*
X279133Y180266D02*
X279716Y180849D01*
X280882D01*
X281465Y180266D01*
Y177934D01*
X280882Y177351D01*
X279716D01*
X279133Y177934D01*
X275634Y180849D02*
X277966D01*
Y179100D01*
X276800Y179683D01*
X276217D01*
X275634Y179100D01*
Y177934D01*
X276217Y177351D01*
X277383D01*
X277966Y177934D01*
X272135Y180849D02*
X274467D01*
Y179100D01*
X273301Y179683D01*
X272718D01*
X272135Y179100D01*
Y177934D01*
X272718Y177351D01*
X273884D01*
X274467Y177934D01*
X280233Y200066D02*
X280816Y200649D01*
X281982D01*
X282565Y200066D01*
Y197734D01*
X281982Y197151D01*
X280816D01*
X280233Y197734D01*
X276734Y200649D02*
X279066D01*
Y198900D01*
X277900Y199483D01*
X277317D01*
X276734Y198900D01*
Y197734D01*
X277317Y197151D01*
X278483D01*
X279066Y197734D01*
X273818Y197151D02*
Y200649D01*
X275567Y198900D01*
X273235D01*
X290385Y193027D02*
X290885Y193527D01*
X291885D01*
X292385Y193027D01*
Y191028D01*
X291885Y190528D01*
X290885D01*
X290385Y191028D01*
X287386Y193527D02*
X289386D01*
Y192028D01*
X288386Y192527D01*
X287886D01*
X287386Y192028D01*
Y191028D01*
X287886Y190528D01*
X288886D01*
X289386Y191028D01*
X286386Y193027D02*
X285887Y193527D01*
X284887D01*
X284387Y193027D01*
Y192527D01*
X284887Y192028D01*
X285387D01*
X284887D01*
X284387Y191528D01*
Y191028D01*
X284887Y190528D01*
X285887D01*
X286386Y191028D01*
X332034Y378233D02*
X331451Y378816D01*
Y379982D01*
X332034Y380565D01*
X334366D01*
X334949Y379982D01*
Y378816D01*
X334366Y378233D01*
X331451Y374734D02*
Y377066D01*
X333200D01*
X332617Y375900D01*
Y375317D01*
X333200Y374734D01*
X334366D01*
X334949Y375317D01*
Y376483D01*
X334366Y377066D01*
X334949Y371235D02*
Y373567D01*
X332617Y371235D01*
X332034D01*
X331451Y371818D01*
Y372984D01*
X332034Y373567D01*
X305149Y237566D02*
X305733Y238149D01*
X306899D01*
X307482Y237566D01*
Y235234D01*
X306899Y234651D01*
X305733D01*
X305149Y235234D01*
X301651Y238149D02*
X303983D01*
Y236400D01*
X302817Y236983D01*
X302234D01*
X301651Y236400D01*
Y235234D01*
X302234Y234651D01*
X303400D01*
X303983Y235234D01*
X300484Y234651D02*
X299318D01*
X299901D01*
Y238149D01*
X300484Y237566D01*
X295433Y244566D02*
X296016Y245149D01*
X297182D01*
X297765Y244566D01*
Y242234D01*
X297182Y241651D01*
X296016D01*
X295433Y242234D01*
X291934Y245149D02*
X294266D01*
Y243400D01*
X293100Y243983D01*
X292517D01*
X291934Y243400D01*
Y242234D01*
X292517Y241651D01*
X293683D01*
X294266Y242234D01*
X290767Y244566D02*
X290184Y245149D01*
X289018D01*
X288435Y244566D01*
Y242234D01*
X289018Y241651D01*
X290184D01*
X290767Y242234D01*
Y244566D01*
X289533Y218066D02*
X290116Y218649D01*
X291282D01*
X291865Y218066D01*
Y215734D01*
X291282Y215151D01*
X290116D01*
X289533Y215734D01*
X286617Y215151D02*
Y218649D01*
X288366Y216900D01*
X286034D01*
X284867Y215734D02*
X284284Y215151D01*
X283118D01*
X282535Y215734D01*
Y218066D01*
X283118Y218649D01*
X284284D01*
X284867Y218066D01*
Y217483D01*
X284284Y216900D01*
X282535D01*
X282133Y225866D02*
X282716Y226449D01*
X283882D01*
X284465Y225866D01*
Y223534D01*
X283882Y222951D01*
X282716D01*
X282133Y223534D01*
X279217Y222951D02*
Y226449D01*
X280966Y224700D01*
X278634D01*
X277467Y225866D02*
X276884Y226449D01*
X275718D01*
X275135Y225866D01*
Y225283D01*
X275718Y224700D01*
X275135Y224117D01*
Y223534D01*
X275718Y222951D01*
X276884D01*
X277467Y223534D01*
Y224117D01*
X276884Y224700D01*
X277467Y225283D01*
Y225866D01*
X276884Y224700D02*
X275718D01*
X283966Y156967D02*
X284549Y156384D01*
Y155218D01*
X283966Y154635D01*
X281634D01*
X281051Y155218D01*
Y156384D01*
X281634Y156967D01*
X281051Y159883D02*
X284549D01*
X282800Y158134D01*
Y160466D01*
X284549Y161633D02*
Y163965D01*
X283966D01*
X281634Y161633D01*
X281051D01*
X345088Y405378D02*
X345671Y404795D01*
Y403628D01*
X345088Y403045D01*
X342755D01*
X342172Y403628D01*
Y404795D01*
X342755Y405378D01*
X342172Y408293D02*
X345671D01*
X343921Y406544D01*
Y408877D01*
X345671Y412375D02*
X345088Y411209D01*
X343921Y410043D01*
X342755D01*
X342172Y410626D01*
Y411792D01*
X342755Y412375D01*
X343338D01*
X343921Y411792D01*
Y410043D01*
X222433Y272267D02*
X223016Y272850D01*
X224182D01*
X224765Y272267D01*
Y269935D01*
X224182Y269352D01*
X223016D01*
X222433Y269935D01*
X219517Y269352D02*
Y272850D01*
X221266Y271101D01*
X218934D01*
X217767Y272267D02*
X217184Y272850D01*
X216018D01*
X215435Y272267D01*
Y271684D01*
X216018Y271101D01*
X216601D01*
X216018D01*
X215435Y270518D01*
Y269935D01*
X216018Y269352D01*
X217184D01*
X217767Y269935D01*
X250733Y250167D02*
X251316Y250750D01*
X252482D01*
X253065Y250167D01*
Y247835D01*
X252482Y247252D01*
X251316D01*
X250733Y247835D01*
X247817Y247252D02*
Y250750D01*
X249566Y249001D01*
X247234D01*
X243735Y247252D02*
X246067D01*
X243735Y249584D01*
Y250167D01*
X244318Y250750D01*
X245484D01*
X246067Y250167D01*
X493949Y61966D02*
X494533Y62549D01*
X495699D01*
X496282Y61966D01*
Y59634D01*
X495699Y59051D01*
X494533D01*
X493949Y59634D01*
X491034Y59051D02*
Y62549D01*
X492783Y60800D01*
X490451D01*
X489284Y59051D02*
X488118D01*
X488701D01*
Y62549D01*
X489284Y61966D01*
X485333Y29066D02*
X485916Y29649D01*
X487082D01*
X487665Y29066D01*
Y26734D01*
X487082Y26151D01*
X485916D01*
X485333Y26734D01*
X482417Y26151D02*
Y29649D01*
X484166Y27900D01*
X481834D01*
X480667Y29066D02*
X480084Y29649D01*
X478918D01*
X478335Y29066D01*
Y26734D01*
X478918Y26151D01*
X480084D01*
X480667Y26734D01*
Y29066D01*
X544466Y349368D02*
X545049Y348785D01*
Y347619D01*
X544466Y347036D01*
X542134D01*
X541551Y347619D01*
Y348785D01*
X542134Y349368D01*
X544466Y350535D02*
X545049Y351118D01*
Y352284D01*
X544466Y352867D01*
X543883D01*
X543300Y352284D01*
Y351701D01*
Y352284D01*
X542717Y352867D01*
X542134D01*
X541551Y352284D01*
Y351118D01*
X542134Y350535D01*
Y354033D02*
X541551Y354617D01*
Y355783D01*
X542134Y356366D01*
X544466D01*
X545049Y355783D01*
Y354617D01*
X544466Y354033D01*
X543883D01*
X543300Y354617D01*
Y356366D01*
X588766Y365334D02*
X589349Y365917D01*
Y367083D01*
X588766Y367666D01*
X586434D01*
X585851Y367083D01*
Y365917D01*
X586434Y365334D01*
X588766Y364167D02*
X589349Y363584D01*
Y362418D01*
X588766Y361835D01*
X588183D01*
X587600Y362418D01*
Y363001D01*
Y362418D01*
X587017Y361835D01*
X586434D01*
X585851Y362418D01*
Y363584D01*
X586434Y364167D01*
X588766Y360668D02*
X589349Y360085D01*
Y358919D01*
X588766Y358336D01*
X588183D01*
X587600Y358919D01*
X587017Y358336D01*
X586434D01*
X585851Y358919D01*
Y360085D01*
X586434Y360668D01*
X587017D01*
X587600Y360085D01*
X588183Y360668D01*
X588766D01*
X587600Y360085D02*
Y358919D01*
X567033Y250167D02*
X567616Y250750D01*
X568782D01*
X569365Y250167D01*
Y247835D01*
X568782Y247252D01*
X567616D01*
X567033Y247835D01*
X565866Y250167D02*
X565283Y250750D01*
X564117D01*
X563534Y250167D01*
Y249584D01*
X564117Y249001D01*
X564700D01*
X564117D01*
X563534Y248418D01*
Y247835D01*
X564117Y247252D01*
X565283D01*
X565866Y247835D01*
X562367Y250750D02*
X560035D01*
Y250167D01*
X562367Y247835D01*
Y247252D01*
X353221Y406069D02*
X353804Y405486D01*
Y404320D01*
X353221Y403737D01*
X350888D01*
X350305Y404320D01*
Y405486D01*
X350888Y406069D01*
X350305Y407235D02*
Y408402D01*
Y407819D01*
X353804D01*
X353221Y407235D01*
X350888Y410151D02*
X350305Y410734D01*
Y411901D01*
X350888Y412484D01*
X353221D01*
X353804Y411901D01*
Y410734D01*
X353221Y410151D01*
X352638D01*
X352055Y410734D01*
Y412484D01*
X361387Y406069D02*
X361971Y405486D01*
Y404320D01*
X361387Y403737D01*
X359055D01*
X358472Y404320D01*
Y405486D01*
X359055Y406069D01*
X358472Y407235D02*
Y408402D01*
Y407819D01*
X361971D01*
X361387Y407235D01*
Y410151D02*
X361971Y410734D01*
Y411901D01*
X361387Y412484D01*
X360804D01*
X360221Y411901D01*
X359638Y412484D01*
X359055D01*
X358472Y411901D01*
Y410734D01*
X359055Y410151D01*
X359638D01*
X360221Y410734D01*
X360804Y410151D01*
X361387D01*
X360221Y410734D02*
Y411901D01*
D19*
X607824Y125794D02*
X610776D01*
X606347D02*
Y137606D01*
X612253D01*
Y125794D02*
Y137606D01*
X606347Y125794D02*
X607824D01*
X610776D02*
X612253D01*
X444895Y380647D02*
Y382124D01*
Y385076D02*
Y386553D01*
Y380647D02*
X456706D01*
Y386553D01*
X444895D02*
X456706D01*
X444895Y382124D02*
Y385076D01*
X600095Y389024D02*
Y391976D01*
Y393453D02*
X611905D01*
Y387547D02*
Y393453D01*
X600095Y387547D02*
X611905D01*
X600095Y391976D02*
Y393453D01*
Y387547D02*
Y389024D01*
X417853Y181025D02*
Y183977D01*
X406042Y179548D02*
X417853D01*
X406042D02*
Y185454D01*
X417853D01*
Y179548D02*
Y181025D01*
Y183977D02*
Y185454D01*
X293694Y162424D02*
Y165376D01*
Y166853D02*
X305505D01*
Y160947D02*
Y166853D01*
X293694Y160947D02*
X305505D01*
X293694Y165376D02*
Y166853D01*
Y160947D02*
Y162424D01*
X312224Y146705D02*
X315176D01*
X316653Y134895D02*
Y146705D01*
X310747Y134895D02*
X316653D01*
X310747D02*
Y146705D01*
X315176D02*
X316653D01*
X310747D02*
X312224D01*
X521842Y26825D02*
Y29777D01*
Y31254D02*
X533653D01*
Y25348D02*
Y31254D01*
X521842Y25348D02*
X533653D01*
X521842Y29777D02*
Y31254D01*
Y25348D02*
Y26825D01*
X308224Y63042D02*
X311176D01*
X306747D02*
Y74853D01*
X312653D01*
Y63042D02*
Y74853D01*
X306747Y63042D02*
X308224D01*
X311176D02*
X312653D01*
X524124Y398095D02*
X527076D01*
X522647D02*
Y409905D01*
X528553D01*
Y398095D02*
Y409905D01*
X522647Y398095D02*
X524124D01*
X527076D02*
X528553D01*
X234924Y287995D02*
X237876D01*
X233447D02*
Y299805D01*
X239353D01*
Y287995D02*
Y299805D01*
X233447Y287995D02*
X234924D01*
X237876D02*
X239353D01*
X353927Y383234D02*
Y386187D01*
X342116Y381758D02*
X353927D01*
X342116D02*
Y387663D01*
X353927D01*
Y381758D02*
Y383234D01*
Y386187D02*
Y387663D01*
X291245Y448264D02*
X294198D01*
X295674Y436453D02*
Y448264D01*
X289769Y436453D02*
X295674D01*
X289769D02*
Y448264D01*
X294198D02*
X295674D01*
X289769D02*
X291245D01*
D20*
X293996Y191080D02*
X296329Y193413D01*
X293996D02*
X296329Y191080D01*
X293996Y192247D02*
X296329D01*
X295162Y193413D02*
Y191080D01*
X304700Y150435D02*
X308032Y153767D01*
X304700D02*
X308032Y150435D01*
X304700Y152101D02*
X308032D01*
X306366Y153767D02*
Y150435D01*
D145*
X406565Y405261D02*
G03*
X406565Y405261I-492J0D01*
G01*
M02*
