G04*
G04 #@! TF.GenerationSoftware,Altium Limited,Altium Designer,24.2.2 (26)*
G04*
G04 Layer_Color=16711935*
%FSLAX25Y25*%
%MOIN*%
G70*
G04*
G04 #@! TF.SameCoordinates,68C129F3-C7C4-414E-B264-5C09C29A3FA5*
G04*
G04*
G04 #@! TF.FilePolarity,Negative*
G04*
G01*
G75*
%ADD23R,0.02200X0.03500*%
%ADD28R,0.03500X0.02200*%
%ADD33R,0.04331X0.02362*%
%ADD34R,0.03200X0.03500*%
%ADD35R,0.03600X0.06500*%
%ADD36R,0.06500X0.03600*%
%ADD37R,0.03500X0.03200*%
%ADD54R,0.04040X0.01875*%
%ADD66C,0.04337*%
%ADD67R,0.04140X0.03943*%
%ADD68R,0.03943X0.04140*%
%ADD69C,0.33471*%
%ADD70C,0.03960*%
%ADD71C,0.03943*%
%ADD72C,0.15400*%
%ADD73C,0.09750*%
%ADD74C,0.04300*%
%ADD75C,0.02900*%
%ADD76C,0.02800*%
%ADD77C,0.05400*%
%ADD108R,0.01181X0.01673*%
%ADD109R,0.04882X0.08740*%
%ADD110R,0.08740X0.04882*%
%ADD111R,0.04331X0.04921*%
%ADD112R,0.04921X0.04331*%
%ADD115R,0.03200X0.01200*%
%ADD118R,0.01100X0.06890*%
%ADD119R,0.06890X0.01100*%
%ADD122R,0.01200X0.03200*%
%ADD123R,0.04800X0.04100*%
%ADD124R,0.04100X0.04800*%
%ADD134R,0.03550X0.03943*%
%ADD135R,0.05500X0.03600*%
%ADD136R,0.04731X0.02762*%
%ADD137R,0.04337X0.02762*%
%ADD138R,0.02956X0.01184*%
%ADD139R,0.10633X0.13507*%
%ADD140C,0.03500*%
%ADD141R,0.05124X0.04337*%
%ADD142R,0.05912X0.14179*%
%ADD143R,0.02762X0.04337*%
D23*
X411750Y234001D02*
D03*
X404450D02*
D03*
X315550Y244100D02*
D03*
X322850D02*
D03*
X375450Y138600D02*
D03*
X368150D02*
D03*
X338250Y139200D02*
D03*
X345550D02*
D03*
X317259Y251434D02*
D03*
X324559D02*
D03*
X338543D02*
D03*
X331243D02*
D03*
X294450Y208500D02*
D03*
X301750D02*
D03*
X415950Y141100D02*
D03*
X408650D02*
D03*
X415800Y148750D02*
D03*
X408500D02*
D03*
X404300Y248800D02*
D03*
X397000D02*
D03*
X404400Y241351D02*
D03*
X397100D02*
D03*
X284950Y171101D02*
D03*
X292250D02*
D03*
X285050Y178901D02*
D03*
X292350D02*
D03*
X286250Y197700D02*
D03*
X293550D02*
D03*
X296950Y186500D02*
D03*
X304250D02*
D03*
X295550Y216500D02*
D03*
X302850D02*
D03*
X288050Y224000D02*
D03*
X295350D02*
D03*
X235900Y270501D02*
D03*
X228600D02*
D03*
X238650Y248801D02*
D03*
X231350D02*
D03*
X497413Y54884D02*
D03*
X490113D02*
D03*
X491590Y27521D02*
D03*
X498890D02*
D03*
X561295Y257289D02*
D03*
X568595D02*
D03*
D28*
X317100Y384450D02*
D03*
Y391750D02*
D03*
X401700Y136950D02*
D03*
Y144250D02*
D03*
X248200Y195100D02*
D03*
Y202400D02*
D03*
X248900Y173950D02*
D03*
Y181250D02*
D03*
X427800Y412451D02*
D03*
Y405151D02*
D03*
X305800Y139850D02*
D03*
Y147150D02*
D03*
X581300Y395150D02*
D03*
Y402450D02*
D03*
X496400Y407550D02*
D03*
Y400250D02*
D03*
X467600Y392650D02*
D03*
Y399950D02*
D03*
X401100Y412651D02*
D03*
Y405351D02*
D03*
X351300Y251750D02*
D03*
Y244450D02*
D03*
X325221Y391760D02*
D03*
Y384460D02*
D03*
X298021Y421860D02*
D03*
Y429160D02*
D03*
X336221Y419710D02*
D03*
Y427010D02*
D03*
X333200Y391750D02*
D03*
Y384450D02*
D03*
X302400Y230750D02*
D03*
Y223450D02*
D03*
X295000Y238100D02*
D03*
Y230800D02*
D03*
X288900Y154450D02*
D03*
Y161750D02*
D03*
X344088Y419710D02*
D03*
Y427010D02*
D03*
X559500Y392951D02*
D03*
Y400251D02*
D03*
X549689Y355427D02*
D03*
Y348127D02*
D03*
X587287Y347045D02*
D03*
Y354345D02*
D03*
X351955Y419710D02*
D03*
Y427010D02*
D03*
X359821Y419710D02*
D03*
Y427010D02*
D03*
D33*
X410600Y405261D02*
D03*
Y409001D02*
D03*
Y412741D02*
D03*
X420836D02*
D03*
Y405261D02*
D03*
D34*
X379050Y304400D02*
D03*
X373950D02*
D03*
X247900Y225100D02*
D03*
X253000D02*
D03*
X415650Y265500D02*
D03*
X410550D02*
D03*
X267150Y189000D02*
D03*
X262050D02*
D03*
X414100Y226300D02*
D03*
X409000D02*
D03*
X390150Y248700D02*
D03*
X385050D02*
D03*
X414800Y194200D02*
D03*
X409700D02*
D03*
X414400Y218000D02*
D03*
X409300D02*
D03*
X504509Y54884D02*
D03*
X509609D02*
D03*
X589050Y411701D02*
D03*
X594150D02*
D03*
X594200Y403901D02*
D03*
X589100D02*
D03*
X359500Y283400D02*
D03*
X354400D02*
D03*
X289350Y186401D02*
D03*
X284250D02*
D03*
X313800Y130300D02*
D03*
X308700D02*
D03*
X514550Y20301D02*
D03*
X509450D02*
D03*
X509250Y400600D02*
D03*
X504150D02*
D03*
X240650Y241701D02*
D03*
X235550D02*
D03*
X440900Y405201D02*
D03*
X435800D02*
D03*
X222850Y247601D02*
D03*
X217750D02*
D03*
X549778Y340262D02*
D03*
X544678D02*
D03*
X435800Y412701D02*
D03*
X440900D02*
D03*
D35*
X300250Y258001D02*
D03*
X308150D02*
D03*
D36*
X577000Y355950D02*
D03*
Y348050D02*
D03*
X598000Y346850D02*
D03*
Y354750D02*
D03*
D37*
X557500Y407450D02*
D03*
Y412550D02*
D03*
X264500Y428450D02*
D03*
Y423350D02*
D03*
X469900Y412651D02*
D03*
Y407551D02*
D03*
X228100Y283401D02*
D03*
Y278301D02*
D03*
X289821Y423860D02*
D03*
Y428960D02*
D03*
X614157Y232280D02*
D03*
Y227180D02*
D03*
D54*
X566323Y353155D02*
D03*
Y350596D02*
D03*
Y348037D02*
D03*
X557661Y353155D02*
D03*
Y348037D02*
D03*
D66*
X582100Y409201D02*
D03*
X351500Y394101D02*
D03*
X420200Y215000D02*
D03*
X503500Y393558D02*
D03*
X277222Y428860D02*
D03*
X396800Y255300D02*
D03*
X206700Y255801D02*
D03*
X435900Y399201D02*
D03*
X498988Y20238D02*
D03*
X490228Y46222D02*
D03*
X234400Y278301D02*
D03*
X463400Y407301D02*
D03*
X427700Y418501D02*
D03*
X438100Y420001D02*
D03*
X586100Y419801D02*
D03*
X545100Y411400D02*
D03*
X594500Y418500D02*
D03*
X371700Y297500D02*
D03*
X351500Y272300D02*
D03*
X403000Y150000D02*
D03*
X330176Y417400D02*
D03*
X286900Y439500D02*
D03*
D67*
X447552Y383600D02*
D03*
X454048D02*
D03*
X609248Y390500D02*
D03*
X602752D02*
D03*
X408700Y182501D02*
D03*
X415196D02*
D03*
X302848Y163900D02*
D03*
X296352D02*
D03*
X530996Y28301D02*
D03*
X524500D02*
D03*
X344773Y384710D02*
D03*
X351269D02*
D03*
D68*
X609300Y134948D02*
D03*
Y128452D02*
D03*
X313700Y137552D02*
D03*
Y144048D02*
D03*
X309700Y72196D02*
D03*
Y65700D02*
D03*
X525600Y407248D02*
D03*
Y400752D02*
D03*
X236400Y297148D02*
D03*
Y290652D02*
D03*
X292721Y439110D02*
D03*
Y445606D02*
D03*
D69*
X644685Y433563D02*
D03*
Y25984D02*
D03*
X205118D02*
D03*
Y434252D02*
D03*
D70*
X608980Y333195D02*
D03*
X613980D02*
D03*
X593980D02*
D03*
X588980D02*
D03*
X603980D02*
D03*
X598980D02*
D03*
X613980Y268195D02*
D03*
X598980D02*
D03*
X593980D02*
D03*
X608980D02*
D03*
X603980D02*
D03*
X578980D02*
D03*
X573980D02*
D03*
X568980D02*
D03*
X583980D02*
D03*
X588980D02*
D03*
D71*
X497600Y181501D02*
D03*
X505474D02*
D03*
X501537Y177564D02*
D03*
D72*
X647800Y100400D02*
D03*
X647342Y137992D02*
D03*
X208400Y297100D02*
D03*
Y233700D02*
D03*
X453500Y424100D02*
D03*
X401600Y423801D02*
D03*
X503900D02*
D03*
X548600D02*
D03*
X525600D02*
D03*
X610900D02*
D03*
X467100Y22600D02*
D03*
X548600D02*
D03*
X240800Y423801D02*
D03*
X377700D02*
D03*
D73*
X402800Y13801D02*
D03*
X425300D02*
D03*
X402800Y33801D02*
D03*
X425300D02*
D03*
D74*
X395300Y19805D02*
D03*
Y27797D02*
D03*
X425300Y23801D02*
D03*
D75*
X424496Y121972D02*
D03*
X424450Y314300D02*
D03*
X425200Y336700D02*
D03*
X428000Y339600D02*
D03*
X431000Y342700D02*
D03*
X422754Y342295D02*
D03*
X400921Y284138D02*
D03*
X409388Y277495D02*
D03*
X414341Y297559D02*
D03*
X410400Y294700D02*
D03*
X404600Y288800D02*
D03*
X399900D02*
D03*
X399073Y282487D02*
D03*
X517000Y328100D02*
D03*
X361648Y262283D02*
D03*
Y258783D02*
D03*
X467600Y347500D02*
D03*
X427000Y261200D02*
D03*
X423300Y260100D02*
D03*
X391700Y183100D02*
D03*
X391800Y178600D02*
D03*
X404500Y171500D02*
D03*
X420600Y143400D02*
D03*
X420800Y136700D02*
D03*
X426000Y123900D02*
D03*
X426100Y127700D02*
D03*
X426300Y131600D02*
D03*
Y136000D02*
D03*
X426400Y139900D02*
D03*
X425200Y154000D02*
D03*
X424600Y158100D02*
D03*
X421000Y155700D02*
D03*
X427966Y120202D02*
D03*
X429800Y117000D02*
D03*
X434900Y108900D02*
D03*
X437800Y105500D02*
D03*
X440900Y102200D02*
D03*
X444500Y98900D02*
D03*
X446900Y95900D02*
D03*
X450000Y92800D02*
D03*
X453100Y90200D02*
D03*
X457100Y89300D02*
D03*
X461069Y88380D02*
D03*
X464115Y86656D02*
D03*
X468600Y86900D02*
D03*
X468900Y90400D02*
D03*
Y94900D02*
D03*
X462600Y97800D02*
D03*
X458978Y94987D02*
D03*
X455100Y95600D02*
D03*
X452600Y98500D02*
D03*
X448082Y102859D02*
D03*
X438182Y112758D02*
D03*
X437887Y116246D02*
D03*
X436807Y119575D02*
D03*
X560700Y140100D02*
D03*
X556600Y140200D02*
D03*
X555400Y136300D02*
D03*
X553200Y133500D02*
D03*
X548900Y133600D02*
D03*
X547100Y129700D02*
D03*
X548100Y125900D02*
D03*
X548313Y122005D02*
D03*
Y118505D02*
D03*
Y115005D02*
D03*
X547600Y110800D02*
D03*
X546200Y106000D02*
D03*
X543600Y102900D02*
D03*
X540731Y100069D02*
D03*
X538000Y97500D02*
D03*
X538756Y93435D02*
D03*
X538900Y88900D02*
D03*
X543900Y88700D02*
D03*
X547800Y90700D02*
D03*
X546400Y94300D02*
D03*
X546600Y98200D02*
D03*
X556476Y103809D02*
D03*
X568504Y113091D02*
D03*
X564568Y112038D02*
D03*
X561068Y112020D02*
D03*
X558112Y110146D02*
D03*
X554000Y111400D02*
D03*
X556700Y114000D02*
D03*
X553887Y116820D02*
D03*
Y123820D02*
D03*
X554332Y127292D02*
D03*
X558400Y128400D02*
D03*
X560000Y132400D02*
D03*
X563600Y130200D02*
D03*
X566900Y132800D02*
D03*
X567100Y137100D02*
D03*
X565300Y140700D02*
D03*
X540100Y149300D02*
D03*
X536800Y147000D02*
D03*
X537100Y143500D02*
D03*
X533013Y142792D02*
D03*
X528500Y142100D02*
D03*
X525200Y139700D02*
D03*
X522500Y137400D02*
D03*
X520000Y134600D02*
D03*
X517300Y132200D02*
D03*
X514500Y129500D02*
D03*
X512100Y126800D02*
D03*
X509093Y123834D02*
D03*
X506400Y121100D02*
D03*
X503500Y118000D02*
D03*
X500400Y114900D02*
D03*
X497100Y111800D02*
D03*
X482600Y108600D02*
D03*
X482800Y103700D02*
D03*
X474200Y103300D02*
D03*
X470700Y105300D02*
D03*
X463100Y114500D02*
D03*
X464500Y102500D02*
D03*
X467800Y99500D02*
D03*
X472500Y97900D02*
D03*
X477800Y97300D02*
D03*
X481800Y97900D02*
D03*
X502700Y109100D02*
D03*
X505800Y112300D02*
D03*
X508900Y115800D02*
D03*
X511800Y118600D02*
D03*
X514300Y121300D02*
D03*
X516900Y123900D02*
D03*
X519500Y126800D02*
D03*
X522200Y129300D02*
D03*
X524800Y131800D02*
D03*
X527800Y134600D02*
D03*
X530600Y136800D02*
D03*
X534670Y137218D02*
D03*
X538170D02*
D03*
X541670Y137256D02*
D03*
X545085Y138022D02*
D03*
X545500Y142000D02*
D03*
Y145800D02*
D03*
X544400Y149300D02*
D03*
X386808Y269744D02*
D03*
X382800Y269700D02*
D03*
X382600Y265900D02*
D03*
Y262300D02*
D03*
X383100Y258200D02*
D03*
X390644Y266369D02*
D03*
X430573Y282487D02*
D03*
X427073D02*
D03*
X423573D02*
D03*
X394200Y282600D02*
D03*
X389900Y283300D02*
D03*
X388500Y278700D02*
D03*
X388600Y274700D02*
D03*
X390475Y271411D02*
D03*
X394900Y269600D02*
D03*
X398600Y272700D02*
D03*
X397839Y276913D02*
D03*
X415339D02*
D03*
X418839D02*
D03*
X422339D02*
D03*
X425839D02*
D03*
X439605Y275655D02*
D03*
X454200Y261400D02*
D03*
X453200Y257400D02*
D03*
Y253900D02*
D03*
X453351Y250342D02*
D03*
X456678Y249256D02*
D03*
X459786Y247647D02*
D03*
X463286Y247602D02*
D03*
X466786D02*
D03*
X449700Y273300D02*
D03*
X446800Y276100D02*
D03*
X444000Y279000D02*
D03*
X479900Y361100D02*
D03*
X467728Y355073D02*
D03*
X466800Y351300D02*
D03*
X477900Y342600D02*
D03*
X481800D02*
D03*
X485800Y342100D02*
D03*
X488364Y348196D02*
D03*
X493300Y342800D02*
D03*
X508500Y339200D02*
D03*
X507471Y343578D02*
D03*
X494800Y349800D02*
D03*
X491700Y352800D02*
D03*
X487502Y354787D02*
D03*
X486044Y357969D02*
D03*
X484628Y361170D02*
D03*
X494191Y338870D02*
D03*
X489300Y327900D02*
D03*
X486500Y325100D02*
D03*
X481900Y320300D02*
D03*
X477500D02*
D03*
X478400Y302900D02*
D03*
X486044Y305901D02*
D03*
X485876Y309397D02*
D03*
X490989Y321231D02*
D03*
X493700Y324000D02*
D03*
X496700Y327000D02*
D03*
X413300Y314600D02*
D03*
X415956Y311974D02*
D03*
X415181Y308560D02*
D03*
X412200Y311000D02*
D03*
X408400Y311100D02*
D03*
X406800Y307600D02*
D03*
X404449Y304610D02*
D03*
X396700Y298500D02*
D03*
X392847Y297650D02*
D03*
X389800Y294900D02*
D03*
X385700Y282400D02*
D03*
X392103Y289064D02*
D03*
X423900Y310500D02*
D03*
X420000Y324800D02*
D03*
X450200Y353000D02*
D03*
X436315Y352256D02*
D03*
X419300Y338700D02*
D03*
X416200Y335600D02*
D03*
X413200Y332700D02*
D03*
X410600Y330000D02*
D03*
X407905Y327446D02*
D03*
X404300Y324100D02*
D03*
X401300Y320900D02*
D03*
X395531Y315072D02*
D03*
X391900Y311500D02*
D03*
X389200Y308400D02*
D03*
X385631Y305172D02*
D03*
X378900Y298500D02*
D03*
X375700Y295500D02*
D03*
X368900Y290000D02*
D03*
X364500Y289000D02*
D03*
X366913Y280171D02*
D03*
Y276671D02*
D03*
X364345Y274294D02*
D03*
X361505Y272248D02*
D03*
X367000Y266300D02*
D03*
X370750Y266205D02*
D03*
X372400Y269700D02*
D03*
Y282700D02*
D03*
X374300Y285900D02*
D03*
X376924Y288583D02*
D03*
X383600Y295500D02*
D03*
X386823Y298482D02*
D03*
X391773Y303432D02*
D03*
X395000Y306300D02*
D03*
X398100Y309200D02*
D03*
X401673Y313332D02*
D03*
X408300Y320200D02*
D03*
X411300Y322900D02*
D03*
X413900Y325400D02*
D03*
X416522Y328181D02*
D03*
X418997Y330656D02*
D03*
X422200Y333500D02*
D03*
X454600Y352800D02*
D03*
X293587Y31787D02*
D03*
X290087D02*
D03*
X286587D02*
D03*
X282500Y32200D02*
D03*
X279700Y34700D02*
D03*
X277100Y37100D02*
D03*
X274500Y39900D02*
D03*
X269675Y59521D02*
D03*
X268340Y49582D02*
D03*
Y46082D02*
D03*
Y42582D02*
D03*
X268378Y39083D02*
D03*
X270301Y36158D02*
D03*
X273400Y33200D02*
D03*
X276300Y30100D02*
D03*
X278600Y27300D02*
D03*
X278700Y22600D02*
D03*
X283300Y20500D02*
D03*
X286800Y23200D02*
D03*
X289196Y26213D02*
D03*
X292696D02*
D03*
X296197D02*
D03*
X299696D02*
D03*
X303900Y26200D02*
D03*
X332000Y29900D02*
D03*
X334900Y32500D02*
D03*
X339500Y34900D02*
D03*
X338600Y38900D02*
D03*
X342500Y39200D02*
D03*
X344700Y42500D02*
D03*
X348200Y45200D02*
D03*
X351200Y48500D02*
D03*
X354261Y51969D02*
D03*
X360539Y63657D02*
D03*
Y67157D02*
D03*
Y70657D02*
D03*
Y74157D02*
D03*
Y77657D02*
D03*
Y81157D02*
D03*
X346529Y91977D02*
D03*
X339851Y90511D02*
D03*
X339113Y87089D02*
D03*
Y83589D02*
D03*
Y80089D02*
D03*
Y76589D02*
D03*
X339721Y73142D02*
D03*
X342144Y70616D02*
D03*
X304415Y35387D02*
D03*
X302216Y38109D02*
D03*
X299493Y40308D02*
D03*
X296200Y41494D02*
D03*
X294744Y44677D02*
D03*
X291412Y45749D02*
D03*
X288410Y43949D02*
D03*
X286566Y40975D02*
D03*
X284091Y43449D02*
D03*
X281200Y46400D02*
D03*
X273922Y59611D02*
D03*
X273900Y45900D02*
D03*
X276500Y43100D02*
D03*
X279100Y40500D02*
D03*
X281700Y37900D02*
D03*
X284500Y35700D02*
D03*
X288400Y35300D02*
D03*
X292200Y35200D02*
D03*
X296000D02*
D03*
X297270Y31850D02*
D03*
X324100Y31300D02*
D03*
X327400Y33100D02*
D03*
X352887Y65096D02*
D03*
X347500Y73100D02*
D03*
X344698Y75944D02*
D03*
X344687Y79444D02*
D03*
Y82944D02*
D03*
X345214Y86404D02*
D03*
D76*
X662008Y400591D02*
D03*
X649508Y375590D02*
D03*
X662008Y350590D02*
D03*
X649508Y325590D02*
D03*
X662008Y300590D02*
D03*
X649508Y275590D02*
D03*
X662008Y250590D02*
D03*
X649508Y225590D02*
D03*
X662008Y200591D02*
D03*
X649508Y175591D02*
D03*
X662008Y150591D02*
D03*
X649508Y125591D02*
D03*
X662008Y100591D02*
D03*
X649508Y75590D02*
D03*
X662008Y50591D02*
D03*
X624508Y425591D02*
D03*
X637008Y400591D02*
D03*
X624508Y375590D02*
D03*
X637008Y350590D02*
D03*
X624508Y325590D02*
D03*
X637008Y300590D02*
D03*
X624508Y275590D02*
D03*
X637008Y250590D02*
D03*
Y200591D02*
D03*
X624508Y175591D02*
D03*
X637008Y150591D02*
D03*
X624508Y125591D02*
D03*
X637008Y100591D02*
D03*
X624508Y75590D02*
D03*
X637008Y50591D02*
D03*
X624508Y25591D02*
D03*
X599508Y425591D02*
D03*
Y375590D02*
D03*
X612008Y350590D02*
D03*
X599508Y325590D02*
D03*
X612008Y300590D02*
D03*
X599508Y225590D02*
D03*
Y175591D02*
D03*
X612008Y150591D02*
D03*
Y100591D02*
D03*
X599508Y75590D02*
D03*
X612008Y50591D02*
D03*
X599508Y25591D02*
D03*
X574508Y425591D02*
D03*
Y375590D02*
D03*
X587008Y350590D02*
D03*
X574508Y325590D02*
D03*
X587008Y300590D02*
D03*
X574508Y275590D02*
D03*
X587008Y250590D02*
D03*
X574508Y225590D02*
D03*
Y175591D02*
D03*
Y75590D02*
D03*
X587008Y50591D02*
D03*
X574508Y25591D02*
D03*
X562008Y350590D02*
D03*
X549508Y325590D02*
D03*
X562008Y300590D02*
D03*
X549508Y275590D02*
D03*
X562008Y250590D02*
D03*
X549508Y225590D02*
D03*
X562008Y100591D02*
D03*
X549508Y75590D02*
D03*
X562008Y50591D02*
D03*
X537008Y400591D02*
D03*
X524508Y375590D02*
D03*
Y325590D02*
D03*
Y275590D02*
D03*
X537008Y250590D02*
D03*
X524508Y125591D02*
D03*
Y75590D02*
D03*
X537008Y50591D02*
D03*
X499508Y375590D02*
D03*
X474508Y425591D02*
D03*
X487008Y300590D02*
D03*
X474508Y275590D02*
D03*
X487008Y250590D02*
D03*
X474508Y125591D02*
D03*
X449508Y375590D02*
D03*
Y125591D02*
D03*
X462008Y50591D02*
D03*
X449508Y25591D02*
D03*
X424508Y425591D02*
D03*
Y375590D02*
D03*
X437008Y150591D02*
D03*
Y100591D02*
D03*
X399508Y325590D02*
D03*
Y75590D02*
D03*
X412008Y50591D02*
D03*
X374508Y325590D02*
D03*
Y175591D02*
D03*
X387008Y100591D02*
D03*
X374508Y75590D02*
D03*
Y25591D02*
D03*
X362008Y350590D02*
D03*
X349508Y325590D02*
D03*
X362008Y300590D02*
D03*
Y200591D02*
D03*
X349508Y175591D02*
D03*
X362008Y100591D02*
D03*
Y50591D02*
D03*
X349508Y25591D02*
D03*
X337008Y400591D02*
D03*
Y350590D02*
D03*
X324508Y325590D02*
D03*
Y275590D02*
D03*
X337008Y200591D02*
D03*
X324508Y175591D02*
D03*
Y75590D02*
D03*
X312008Y400591D02*
D03*
X299508Y375590D02*
D03*
X312008Y350590D02*
D03*
X299508Y325590D02*
D03*
X312008Y300590D02*
D03*
X299508Y275590D02*
D03*
Y125591D02*
D03*
X274508Y425591D02*
D03*
X287008Y400591D02*
D03*
X274508Y375590D02*
D03*
X287008Y350590D02*
D03*
X274508Y325590D02*
D03*
X287008Y300590D02*
D03*
X274508Y275590D02*
D03*
X287008Y250590D02*
D03*
X274508Y225590D02*
D03*
Y175591D02*
D03*
Y75590D02*
D03*
Y25591D02*
D03*
X249508Y375590D02*
D03*
X262008Y350590D02*
D03*
X249508Y325590D02*
D03*
X262008Y300590D02*
D03*
Y250590D02*
D03*
Y200591D02*
D03*
Y150591D02*
D03*
X249508Y125591D02*
D03*
Y25591D02*
D03*
X224508Y425591D02*
D03*
X237008Y400591D02*
D03*
X224508Y375590D02*
D03*
X237008Y350590D02*
D03*
X224508Y325590D02*
D03*
Y275590D02*
D03*
Y225590D02*
D03*
Y175591D02*
D03*
X237008Y150591D02*
D03*
X224508Y125591D02*
D03*
X237008Y50591D02*
D03*
X212008Y400591D02*
D03*
X199508Y375590D02*
D03*
X212008Y350590D02*
D03*
X199508Y325590D02*
D03*
Y275590D02*
D03*
Y225590D02*
D03*
X212008Y200591D02*
D03*
X199508Y175591D02*
D03*
X212008Y150591D02*
D03*
X199508Y125591D02*
D03*
X212008Y100591D02*
D03*
X199508Y75590D02*
D03*
X212008Y50591D02*
D03*
D77*
X644685Y446161D02*
D03*
Y420965D02*
D03*
X657283Y433563D02*
D03*
X632087D02*
D03*
X654134Y441831D02*
D03*
X635630Y442224D02*
D03*
X636024Y424508D02*
D03*
X654528Y425689D02*
D03*
X644685Y38583D02*
D03*
Y13386D02*
D03*
X657283Y25984D02*
D03*
X632087D02*
D03*
X654134Y34252D02*
D03*
X635630Y34646D02*
D03*
X636024Y16929D02*
D03*
X654528Y18110D02*
D03*
X205118Y38583D02*
D03*
Y13386D02*
D03*
X217717Y25984D02*
D03*
X192520D02*
D03*
X214567Y34252D02*
D03*
X196063Y34646D02*
D03*
X196457Y16929D02*
D03*
X214961Y18110D02*
D03*
X205118Y446850D02*
D03*
Y421654D02*
D03*
X217717Y434252D02*
D03*
X192520D02*
D03*
X214567Y442520D02*
D03*
X196063Y442913D02*
D03*
X196457Y425197D02*
D03*
X214961Y426378D02*
D03*
D108*
X255403Y200748D02*
D03*
Y203207D02*
D03*
D109*
X566509Y412401D02*
D03*
X575091D02*
D03*
D110*
X219300Y255609D02*
D03*
Y264192D02*
D03*
D111*
X253150Y216101D02*
D03*
X259450D02*
D03*
D112*
X278721Y415161D02*
D03*
Y421460D02*
D03*
D115*
X574100Y402819D02*
D03*
Y400260D02*
D03*
Y397701D02*
D03*
X566800D02*
D03*
Y400260D02*
D03*
Y402819D02*
D03*
D118*
X321194Y234416D02*
D03*
X323162D02*
D03*
X325131D02*
D03*
X327099D02*
D03*
X329068D02*
D03*
X331036D02*
D03*
X333005D02*
D03*
X334973D02*
D03*
X336942D02*
D03*
X338910D02*
D03*
X340879D02*
D03*
X342847D02*
D03*
X344816D02*
D03*
X346784D02*
D03*
X348753D02*
D03*
X350722D02*
D03*
X352690D02*
D03*
X354659D02*
D03*
X356627D02*
D03*
X358595D02*
D03*
X360564D02*
D03*
X362532D02*
D03*
X364501D02*
D03*
X366470D02*
D03*
X368438D02*
D03*
X370407D02*
D03*
X372375D02*
D03*
X374343D02*
D03*
X376312D02*
D03*
X378280D02*
D03*
X380249D02*
D03*
X382218D02*
D03*
X384186D02*
D03*
X386155D02*
D03*
X388123D02*
D03*
X390091D02*
D03*
Y148766D02*
D03*
X388123D02*
D03*
X386155D02*
D03*
X384186D02*
D03*
X382218D02*
D03*
X380249D02*
D03*
X378280D02*
D03*
X376312D02*
D03*
X374343D02*
D03*
X372375D02*
D03*
X370407D02*
D03*
X368438D02*
D03*
X366470D02*
D03*
X364501D02*
D03*
X362532D02*
D03*
X360564D02*
D03*
X358595D02*
D03*
X356627D02*
D03*
X354659D02*
D03*
X352690D02*
D03*
X350722D02*
D03*
X348753D02*
D03*
X346784D02*
D03*
X344816D02*
D03*
X342847D02*
D03*
X340879D02*
D03*
X338910D02*
D03*
X336942D02*
D03*
X334973D02*
D03*
X333005D02*
D03*
X331036D02*
D03*
X329068D02*
D03*
X327099D02*
D03*
X325131D02*
D03*
X323162D02*
D03*
X321194D02*
D03*
D119*
X312818Y157143D02*
D03*
Y159111D02*
D03*
Y161080D02*
D03*
Y163048D02*
D03*
Y165017D02*
D03*
Y166985D02*
D03*
Y168954D02*
D03*
Y170922D02*
D03*
Y172891D02*
D03*
Y174859D02*
D03*
Y176828D02*
D03*
Y178796D02*
D03*
Y180765D02*
D03*
Y182733D02*
D03*
Y184702D02*
D03*
Y186670D02*
D03*
Y188639D02*
D03*
Y190607D02*
D03*
Y192576D02*
D03*
Y194544D02*
D03*
Y196513D02*
D03*
Y198481D02*
D03*
Y200450D02*
D03*
Y202418D02*
D03*
Y204387D02*
D03*
Y206355D02*
D03*
Y208324D02*
D03*
Y210292D02*
D03*
Y212261D02*
D03*
Y214229D02*
D03*
Y216198D02*
D03*
Y218166D02*
D03*
Y220135D02*
D03*
Y222103D02*
D03*
Y224072D02*
D03*
Y226040D02*
D03*
X398468D02*
D03*
Y224072D02*
D03*
Y222103D02*
D03*
Y220135D02*
D03*
Y218166D02*
D03*
Y216198D02*
D03*
Y214229D02*
D03*
Y212261D02*
D03*
Y210292D02*
D03*
Y208324D02*
D03*
Y206355D02*
D03*
Y204387D02*
D03*
Y202418D02*
D03*
Y200450D02*
D03*
Y198481D02*
D03*
Y196513D02*
D03*
Y194544D02*
D03*
Y192576D02*
D03*
Y190607D02*
D03*
Y188639D02*
D03*
Y186670D02*
D03*
Y184702D02*
D03*
Y182733D02*
D03*
Y180765D02*
D03*
Y178796D02*
D03*
Y176828D02*
D03*
Y174859D02*
D03*
Y172891D02*
D03*
Y170922D02*
D03*
Y168954D02*
D03*
Y166985D02*
D03*
Y165017D02*
D03*
Y163048D02*
D03*
Y161080D02*
D03*
Y159111D02*
D03*
Y157143D02*
D03*
D122*
X228841Y263251D02*
D03*
X231400D02*
D03*
X233959D02*
D03*
Y255951D02*
D03*
X231400D02*
D03*
X228841D02*
D03*
D123*
X224150Y202300D02*
D03*
X239850D02*
D03*
D124*
X261300Y164600D02*
D03*
Y180300D02*
D03*
D134*
X299046Y193059D02*
D03*
Y200343D02*
D03*
X304754D02*
D03*
Y193059D02*
D03*
D135*
X301700Y172401D02*
D03*
Y178001D02*
D03*
D136*
X477448Y400472D02*
D03*
Y404213D02*
D03*
Y407953D02*
D03*
X487684Y400472D02*
D03*
D137*
Y407953D02*
D03*
D138*
X327121Y437453D02*
D03*
Y435484D02*
D03*
Y433516D02*
D03*
Y431547D02*
D03*
Y429579D02*
D03*
Y427610D02*
D03*
X312161Y437453D02*
D03*
Y435484D02*
D03*
Y433516D02*
D03*
Y431547D02*
D03*
Y429579D02*
D03*
Y427610D02*
D03*
D139*
X319641Y432532D02*
D03*
D140*
X420300Y26301D02*
D03*
X415300D02*
D03*
X410300D02*
D03*
X405300D02*
D03*
X400300D02*
D03*
Y21301D02*
D03*
X405300D02*
D03*
X410300D02*
D03*
X415300D02*
D03*
X420300D02*
D03*
D141*
X301921Y438710D02*
D03*
Y446584D02*
D03*
D142*
X597622Y213293D02*
D03*
X613764D02*
D03*
X597524Y248037D02*
D03*
X613665D02*
D03*
D143*
X498988Y46025D02*
D03*
X502728D02*
D03*
X506468D02*
D03*
Y35395D02*
D03*
X498988D02*
D03*
M02*
