G04*
G04 #@! TF.GenerationSoftware,Altium Limited,Altium Designer,24.2.2 (26)*
G04*
G04 Layer_Color=128*
%FSLAX25Y25*%
%MOIN*%
G70*
G04*
G04 #@! TF.SameCoordinates,68C129F3-C7C4-414E-B264-5C09C29A3FA5*
G04*
G04*
G04 #@! TF.FilePolarity,Positive*
G04*
G01*
G75*
%ADD19C,0.00500*%
D19*
X637598Y433563D02*
X651772D01*
X644685Y426476D02*
Y440650D01*
X637598Y25984D02*
X651772D01*
X644685Y18898D02*
Y33071D01*
X198031Y25984D02*
X212205D01*
X205118Y18898D02*
Y33071D01*
X198031Y434252D02*
X212205D01*
X205118Y427165D02*
Y441339D01*
X607898Y333195D02*
X610063D01*
X608980Y332112D02*
Y334277D01*
X612898Y333195D02*
X615063D01*
X613980Y332112D02*
Y334277D01*
X592898Y333195D02*
X595063D01*
X593980Y332112D02*
Y334277D01*
X587898Y333195D02*
X590063D01*
X588980Y332112D02*
Y334277D01*
X602898Y333195D02*
X605063D01*
X603980Y332112D02*
Y334277D01*
X597898Y333195D02*
X600063D01*
X598980Y332112D02*
Y334277D01*
X612898Y268195D02*
X615063D01*
X613980Y267112D02*
Y269277D01*
X597898Y268195D02*
X600063D01*
X598980Y267112D02*
Y269277D01*
X592898Y268195D02*
X595063D01*
X593980Y267112D02*
Y269277D01*
X607898Y268195D02*
X610063D01*
X608980Y267112D02*
Y269277D01*
X602898Y268195D02*
X605063D01*
X603980Y267112D02*
Y269277D01*
X577898Y268195D02*
X580063D01*
X578980Y267112D02*
Y269277D01*
X572898Y268195D02*
X575063D01*
X573980Y267112D02*
Y269277D01*
X567898Y268195D02*
X570063D01*
X568980Y267112D02*
Y269277D01*
X582898Y268195D02*
X585063D01*
X583980Y267112D02*
Y269277D01*
X587898Y268195D02*
X590063D01*
X588980Y267112D02*
Y269277D01*
X496557Y181501D02*
X498643D01*
X497600Y180458D02*
Y182544D01*
X504431Y181501D02*
X506517D01*
X505474Y180458D02*
Y182544D01*
X500494Y177564D02*
X502580D01*
X501537Y176521D02*
Y178607D01*
X643100Y100400D02*
X652500D01*
X647800Y95700D02*
Y105100D01*
X642642Y137992D02*
X652042D01*
X647342Y133292D02*
Y142692D01*
X203700Y297100D02*
X213100D01*
X208400Y292400D02*
Y301800D01*
X203700Y233700D02*
X213100D01*
X208400Y229000D02*
Y238400D01*
X448800Y424100D02*
X458200D01*
X453500Y419400D02*
Y428800D01*
X396900Y423801D02*
X406300D01*
X401600Y419101D02*
Y428501D01*
X499200Y423801D02*
X508600D01*
X503900Y419101D02*
Y428501D01*
X543900Y423801D02*
X553300D01*
X548600Y419101D02*
Y428501D01*
X520900Y423801D02*
X530300D01*
X525600Y419101D02*
Y428501D01*
X606200Y423801D02*
X615600D01*
X610900Y419101D02*
Y428501D01*
X462400Y22600D02*
X471800D01*
X467100Y17900D02*
Y27300D01*
X398125Y13801D02*
X407475D01*
X402800Y9126D02*
Y18476D01*
X420625Y13801D02*
X429975D01*
X425300Y9126D02*
Y18476D01*
X398125Y33801D02*
X407475D01*
X402800Y29126D02*
Y38476D01*
X420625Y33801D02*
X429975D01*
X425300Y29126D02*
Y38476D01*
X393350Y19805D02*
X397250D01*
X395300Y17855D02*
Y21755D01*
X393350Y27797D02*
X397250D01*
X395300Y25847D02*
Y29747D01*
X423350Y23801D02*
X427250D01*
X425300Y21851D02*
Y25751D01*
X543900Y22600D02*
X553300D01*
X548600Y17900D02*
Y27300D01*
X236100Y423801D02*
X245500D01*
X240800Y419101D02*
Y428501D01*
X373000Y423801D02*
X382400D01*
X377700Y419101D02*
Y428501D01*
X316421Y395110D02*
X317621D01*
X317021Y394510D02*
Y395710D01*
X473077Y404213D02*
X474277D01*
X473677Y403613D02*
Y404813D01*
X288951Y75501D02*
X290151D01*
X289551Y74901D02*
Y76101D01*
X288951Y79001D02*
X290151D01*
X289551Y78401D02*
Y79601D01*
X479600Y147000D02*
X480800D01*
X480200Y146400D02*
Y147600D01*
X479600Y150100D02*
X480800D01*
X480200Y149500D02*
Y150700D01*
X389912Y103200D02*
X391112D01*
X390512Y102600D02*
Y103800D01*
X389912Y105541D02*
X391112D01*
X390512Y104941D02*
Y106141D01*
X394912Y117101D02*
X396112D01*
X395512Y116501D02*
Y117701D01*
X386513Y107050D02*
X387713D01*
X387113Y106450D02*
Y107650D01*
X423896Y121972D02*
X425096D01*
X424496Y121372D02*
Y122572D01*
X661408Y400591D02*
X662608D01*
X662008Y399991D02*
Y401191D01*
X648908Y375590D02*
X650108D01*
X649508Y374991D02*
Y376190D01*
X661408Y350590D02*
X662608D01*
X662008Y349991D02*
Y351190D01*
X648908Y325590D02*
X650108D01*
X649508Y324991D02*
Y326190D01*
X661408Y300590D02*
X662608D01*
X662008Y299991D02*
Y301190D01*
X648908Y275590D02*
X650108D01*
X649508Y274991D02*
Y276190D01*
X661408Y250590D02*
X662608D01*
X662008Y249991D02*
Y251190D01*
X648908Y225590D02*
X650108D01*
X649508Y224991D02*
Y226190D01*
X661408Y200591D02*
X662608D01*
X662008Y199991D02*
Y201191D01*
X648908Y175591D02*
X650108D01*
X649508Y174991D02*
Y176191D01*
X661408Y150591D02*
X662608D01*
X662008Y149991D02*
Y151191D01*
X648908Y125591D02*
X650108D01*
X649508Y124991D02*
Y126191D01*
X661408Y100591D02*
X662608D01*
X662008Y99990D02*
Y101190D01*
X648908Y75590D02*
X650108D01*
X649508Y74990D02*
Y76191D01*
X661408Y50591D02*
X662608D01*
X662008Y49991D02*
Y51191D01*
X623908Y425591D02*
X625108D01*
X624508Y424991D02*
Y426191D01*
X636408Y400591D02*
X637608D01*
X637008Y399991D02*
Y401191D01*
X623908Y375590D02*
X625108D01*
X624508Y374991D02*
Y376190D01*
X636408Y350590D02*
X637608D01*
X637008Y349991D02*
Y351190D01*
X623908Y325590D02*
X625108D01*
X624508Y324991D02*
Y326190D01*
X636408Y300590D02*
X637608D01*
X637008Y299991D02*
Y301190D01*
X623908Y275590D02*
X625108D01*
X624508Y274991D02*
Y276190D01*
X636408Y250590D02*
X637608D01*
X637008Y249991D02*
Y251190D01*
X636408Y200591D02*
X637608D01*
X637008Y199991D02*
Y201191D01*
X623908Y175591D02*
X625108D01*
X624508Y174991D02*
Y176191D01*
X636408Y150591D02*
X637608D01*
X637008Y149991D02*
Y151191D01*
X623908Y125591D02*
X625108D01*
X624508Y124991D02*
Y126191D01*
X636408Y100591D02*
X637608D01*
X637008Y99990D02*
Y101190D01*
X623908Y75590D02*
X625108D01*
X624508Y74990D02*
Y76191D01*
X636408Y50591D02*
X637608D01*
X637008Y49991D02*
Y51191D01*
X623908Y25591D02*
X625108D01*
X624508Y24991D02*
Y26191D01*
X598908Y425591D02*
X600108D01*
X599508Y424991D02*
Y426191D01*
X598908Y375590D02*
X600108D01*
X599508Y374991D02*
Y376190D01*
X611408Y350590D02*
X612608D01*
X612008Y349991D02*
Y351190D01*
X598908Y325590D02*
X600108D01*
X599508Y324991D02*
Y326190D01*
X611408Y300590D02*
X612608D01*
X612008Y299991D02*
Y301190D01*
X598908Y225590D02*
X600108D01*
X599508Y224991D02*
Y226190D01*
X598908Y175591D02*
X600108D01*
X599508Y174991D02*
Y176191D01*
X611408Y150591D02*
X612608D01*
X612008Y149991D02*
Y151191D01*
X611408Y100591D02*
X612608D01*
X612008Y99990D02*
Y101190D01*
X598908Y75590D02*
X600108D01*
X599508Y74990D02*
Y76191D01*
X611408Y50591D02*
X612608D01*
X612008Y49991D02*
Y51191D01*
X598908Y25591D02*
X600108D01*
X599508Y24991D02*
Y26191D01*
X573908Y425591D02*
X575108D01*
X574508Y424991D02*
Y426191D01*
X573908Y375590D02*
X575108D01*
X574508Y374991D02*
Y376190D01*
X586408Y350590D02*
X587608D01*
X587008Y349991D02*
Y351190D01*
X573908Y325590D02*
X575108D01*
X574508Y324991D02*
Y326190D01*
X586408Y300590D02*
X587608D01*
X587008Y299991D02*
Y301190D01*
X573908Y275590D02*
X575108D01*
X574508Y274991D02*
Y276190D01*
X586408Y250590D02*
X587608D01*
X587008Y249991D02*
Y251190D01*
X573908Y225590D02*
X575108D01*
X574508Y224991D02*
Y226190D01*
X573908Y175591D02*
X575108D01*
X574508Y174991D02*
Y176191D01*
X573908Y75590D02*
X575108D01*
X574508Y74990D02*
Y76191D01*
X586408Y50591D02*
X587608D01*
X587008Y49991D02*
Y51191D01*
X573908Y25591D02*
X575108D01*
X574508Y24991D02*
Y26191D01*
X561408Y350590D02*
X562608D01*
X562008Y349991D02*
Y351190D01*
X548908Y325590D02*
X550108D01*
X549508Y324991D02*
Y326190D01*
X561408Y300590D02*
X562608D01*
X562008Y299991D02*
Y301190D01*
X548908Y275590D02*
X550108D01*
X549508Y274991D02*
Y276190D01*
X561408Y250590D02*
X562608D01*
X562008Y249991D02*
Y251190D01*
X548908Y225590D02*
X550108D01*
X549508Y224991D02*
Y226190D01*
X561408Y100591D02*
X562608D01*
X562008Y99990D02*
Y101190D01*
X548908Y75590D02*
X550108D01*
X549508Y74990D02*
Y76191D01*
X561408Y50591D02*
X562608D01*
X562008Y49991D02*
Y51191D01*
X536408Y400591D02*
X537608D01*
X537008Y399991D02*
Y401191D01*
X523908Y375590D02*
X525108D01*
X524508Y374991D02*
Y376190D01*
X523908Y325590D02*
X525108D01*
X524508Y324991D02*
Y326190D01*
X523908Y275590D02*
X525108D01*
X524508Y274991D02*
Y276190D01*
X536408Y250590D02*
X537608D01*
X537008Y249991D02*
Y251190D01*
X523908Y125591D02*
X525108D01*
X524508Y124991D02*
Y126191D01*
X523908Y75590D02*
X525108D01*
X524508Y74990D02*
Y76191D01*
X536408Y50591D02*
X537608D01*
X537008Y49991D02*
Y51191D01*
X498908Y375590D02*
X500108D01*
X499508Y374991D02*
Y376190D01*
X473908Y425591D02*
X475108D01*
X474508Y424991D02*
Y426191D01*
X486408Y300590D02*
X487608D01*
X487008Y299991D02*
Y301190D01*
X473908Y275590D02*
X475108D01*
X474508Y274991D02*
Y276190D01*
X486408Y250590D02*
X487608D01*
X487008Y249991D02*
Y251190D01*
X473908Y125591D02*
X475108D01*
X474508Y124991D02*
Y126191D01*
X448908Y375590D02*
X450108D01*
X449508Y374991D02*
Y376190D01*
X448908Y125591D02*
X450108D01*
X449508Y124991D02*
Y126191D01*
X461408Y50591D02*
X462608D01*
X462008Y49991D02*
Y51191D01*
X448908Y25591D02*
X450108D01*
X449508Y24991D02*
Y26191D01*
X423908Y425591D02*
X425108D01*
X424508Y424991D02*
Y426191D01*
X423908Y375590D02*
X425108D01*
X424508Y374991D02*
Y376190D01*
X436408Y150591D02*
X437608D01*
X437008Y149991D02*
Y151191D01*
X436408Y100591D02*
X437608D01*
X437008Y99990D02*
Y101190D01*
X398908Y325590D02*
X400108D01*
X399508Y324991D02*
Y326190D01*
X398908Y75590D02*
X400108D01*
X399508Y74990D02*
Y76191D01*
X411408Y50591D02*
X412608D01*
X412008Y49991D02*
Y51191D01*
X373908Y325590D02*
X375108D01*
X374508Y324991D02*
Y326190D01*
X373908Y175591D02*
X375108D01*
X374508Y174991D02*
Y176191D01*
X386408Y100591D02*
X387608D01*
X387008Y99990D02*
Y101190D01*
X373908Y75590D02*
X375108D01*
X374508Y74990D02*
Y76191D01*
X373908Y25591D02*
X375108D01*
X374508Y24991D02*
Y26191D01*
X361408Y350590D02*
X362608D01*
X362008Y349991D02*
Y351190D01*
X348908Y325590D02*
X350108D01*
X349508Y324991D02*
Y326190D01*
X361408Y300590D02*
X362608D01*
X362008Y299991D02*
Y301190D01*
X361408Y200591D02*
X362608D01*
X362008Y199991D02*
Y201191D01*
X348908Y175591D02*
X350108D01*
X349508Y174991D02*
Y176191D01*
X361408Y100591D02*
X362608D01*
X362008Y99990D02*
Y101190D01*
X361408Y50591D02*
X362608D01*
X362008Y49991D02*
Y51191D01*
X348908Y25591D02*
X350108D01*
X349508Y24991D02*
Y26191D01*
X336408Y400591D02*
X337608D01*
X337008Y399991D02*
Y401191D01*
X336408Y350590D02*
X337608D01*
X337008Y349991D02*
Y351190D01*
X323908Y325590D02*
X325108D01*
X324508Y324991D02*
Y326190D01*
X323908Y275590D02*
X325108D01*
X324508Y274991D02*
Y276190D01*
X336408Y200591D02*
X337608D01*
X337008Y199991D02*
Y201191D01*
X323908Y175591D02*
X325108D01*
X324508Y174991D02*
Y176191D01*
X323908Y75590D02*
X325108D01*
X324508Y74990D02*
Y76191D01*
X311408Y400591D02*
X312608D01*
X312008Y399991D02*
Y401191D01*
X298908Y375590D02*
X300108D01*
X299508Y374991D02*
Y376190D01*
X311408Y350590D02*
X312608D01*
X312008Y349991D02*
Y351190D01*
X298908Y325590D02*
X300108D01*
X299508Y324991D02*
Y326190D01*
X311408Y300590D02*
X312608D01*
X312008Y299991D02*
Y301190D01*
X298908Y275590D02*
X300108D01*
X299508Y274991D02*
Y276190D01*
X298908Y125591D02*
X300108D01*
X299508Y124991D02*
Y126191D01*
X273908Y425591D02*
X275108D01*
X274508Y424991D02*
Y426191D01*
X286408Y400591D02*
X287608D01*
X287008Y399991D02*
Y401191D01*
X273908Y375590D02*
X275108D01*
X274508Y374991D02*
Y376190D01*
X286408Y350590D02*
X287608D01*
X287008Y349991D02*
Y351190D01*
X273908Y325590D02*
X275108D01*
X274508Y324991D02*
Y326190D01*
X286408Y300590D02*
X287608D01*
X287008Y299991D02*
Y301190D01*
X273908Y275590D02*
X275108D01*
X274508Y274991D02*
Y276190D01*
X286408Y250590D02*
X287608D01*
X287008Y249991D02*
Y251190D01*
X273908Y225590D02*
X275108D01*
X274508Y224991D02*
Y226190D01*
X273908Y175591D02*
X275108D01*
X274508Y174991D02*
Y176191D01*
X273908Y75590D02*
X275108D01*
X274508Y74990D02*
Y76191D01*
X273908Y25591D02*
X275108D01*
X274508Y24991D02*
Y26191D01*
X248908Y375590D02*
X250108D01*
X249508Y374991D02*
Y376190D01*
X261408Y350590D02*
X262608D01*
X262008Y349991D02*
Y351190D01*
X248908Y325590D02*
X250108D01*
X249508Y324991D02*
Y326190D01*
X261408Y300590D02*
X262608D01*
X262008Y299991D02*
Y301190D01*
X261408Y250590D02*
X262608D01*
X262008Y249991D02*
Y251190D01*
X261408Y200591D02*
X262608D01*
X262008Y199991D02*
Y201191D01*
X261408Y150591D02*
X262608D01*
X262008Y149991D02*
Y151191D01*
X248908Y125591D02*
X250108D01*
X249508Y124991D02*
Y126191D01*
X248908Y25591D02*
X250108D01*
X249508Y24991D02*
Y26191D01*
X223908Y425591D02*
X225108D01*
X224508Y424991D02*
Y426191D01*
X236408Y400591D02*
X237608D01*
X237008Y399991D02*
Y401191D01*
X223908Y375590D02*
X225108D01*
X224508Y374991D02*
Y376190D01*
X236408Y350590D02*
X237608D01*
X237008Y349991D02*
Y351190D01*
X223908Y325590D02*
X225108D01*
X224508Y324991D02*
Y326190D01*
X223908Y275590D02*
X225108D01*
X224508Y274991D02*
Y276190D01*
X223908Y225590D02*
X225108D01*
X224508Y224991D02*
Y226190D01*
X223908Y175591D02*
X225108D01*
X224508Y174991D02*
Y176191D01*
X236408Y150591D02*
X237608D01*
X237008Y149991D02*
Y151191D01*
X223908Y125591D02*
X225108D01*
X224508Y124991D02*
Y126191D01*
X236408Y50591D02*
X237608D01*
X237008Y49991D02*
Y51191D01*
X211408Y400591D02*
X212608D01*
X212008Y399991D02*
Y401191D01*
X198908Y375590D02*
X200108D01*
X199508Y374991D02*
Y376190D01*
X211408Y350590D02*
X212608D01*
X212008Y349991D02*
Y351190D01*
X198908Y325590D02*
X200108D01*
X199508Y324991D02*
Y326190D01*
X198908Y275590D02*
X200108D01*
X199508Y274991D02*
Y276190D01*
X198908Y225590D02*
X200108D01*
X199508Y224991D02*
Y226190D01*
X211408Y200591D02*
X212608D01*
X212008Y199991D02*
Y201191D01*
X198908Y175591D02*
X200108D01*
X199508Y174991D02*
Y176191D01*
X211408Y150591D02*
X212608D01*
X212008Y149991D02*
Y151191D01*
X198908Y125591D02*
X200108D01*
X199508Y124991D02*
Y126191D01*
X211408Y100591D02*
X212608D01*
X212008Y99990D02*
Y101190D01*
X198908Y75590D02*
X200108D01*
X199508Y74990D02*
Y76191D01*
X211408Y50591D02*
X212608D01*
X212008Y49991D02*
Y51191D01*
X643701Y446161D02*
X645669D01*
X644685Y445177D02*
Y447146D01*
X643701Y420965D02*
X645669D01*
X644685Y419980D02*
Y421949D01*
X656299Y433563D02*
X658268D01*
X657283Y432579D02*
Y434547D01*
X631102Y433563D02*
X633071D01*
X632087Y432579D02*
Y434547D01*
X653150Y441831D02*
X655118D01*
X654134Y440846D02*
Y442815D01*
X634646Y442224D02*
X636614D01*
X635630Y441240D02*
Y443209D01*
X635039Y424508D02*
X637008D01*
X636024Y423524D02*
Y425492D01*
X653543Y425689D02*
X655512D01*
X654528Y424705D02*
Y426673D01*
X643701Y38583D02*
X645669D01*
X644685Y37598D02*
Y39567D01*
X643701Y13386D02*
X645669D01*
X644685Y12402D02*
Y14370D01*
X656299Y25984D02*
X658268D01*
X657283Y25000D02*
Y26969D01*
X631102Y25984D02*
X633071D01*
X632087Y25000D02*
Y26969D01*
X653150Y34252D02*
X655118D01*
X654134Y33268D02*
Y35236D01*
X634646Y34646D02*
X636614D01*
X635630Y33661D02*
Y35630D01*
X635039Y16929D02*
X637008D01*
X636024Y15945D02*
Y17913D01*
X653543Y18110D02*
X655512D01*
X654528Y17126D02*
Y19094D01*
X204134Y38583D02*
X206102D01*
X205118Y37598D02*
Y39567D01*
X204134Y13386D02*
X206102D01*
X205118Y12402D02*
Y14370D01*
X216732Y25984D02*
X218701D01*
X217717Y25000D02*
Y26969D01*
X191535Y25984D02*
X193504D01*
X192520Y25000D02*
Y26969D01*
X213583Y34252D02*
X215551D01*
X214567Y33268D02*
Y35236D01*
X195079Y34646D02*
X197047D01*
X196063Y33661D02*
Y35630D01*
X195472Y16929D02*
X197441D01*
X196457Y15945D02*
Y17913D01*
X213976Y18110D02*
X215945D01*
X214961Y17126D02*
Y19094D01*
X204134Y446850D02*
X206102D01*
X205118Y445866D02*
Y447835D01*
X204134Y421654D02*
X206102D01*
X205118Y420669D02*
Y422638D01*
X216732Y434252D02*
X218701D01*
X217717Y433268D02*
Y435236D01*
X191535Y434252D02*
X193504D01*
X192520Y433268D02*
Y435236D01*
X213583Y442520D02*
X215551D01*
X214567Y441535D02*
Y443504D01*
X195079Y442913D02*
X197047D01*
X196063Y441929D02*
Y443898D01*
X195472Y425197D02*
X197441D01*
X196457Y424213D02*
Y426181D01*
X213976Y426378D02*
X215945D01*
X214961Y425394D02*
Y427362D01*
X588300Y265001D02*
X589500D01*
X588900Y264401D02*
Y265601D01*
X536000Y217300D02*
X537200D01*
X536600Y216700D02*
Y217900D01*
X543200Y214500D02*
X544400D01*
X543800Y213900D02*
Y215100D01*
X532900Y211000D02*
X534100D01*
X533500Y210400D02*
Y211600D01*
X319284Y436221D02*
X320284D01*
X319783Y435720D02*
Y436721D01*
X319185Y429626D02*
X320185D01*
X319685Y429126D02*
Y430126D01*
X601073Y272539D02*
X602273D01*
X601673Y271939D02*
Y273139D01*
X591132Y272539D02*
X592332D01*
X591732Y271939D02*
Y273139D01*
X401100Y134400D02*
X402300D01*
X401700Y133800D02*
Y135000D01*
X438250Y312100D02*
X439450D01*
X438850Y311500D02*
Y312700D01*
X436600Y305700D02*
X437800D01*
X437200Y305100D02*
Y306300D01*
X423850Y314300D02*
X425050D01*
X424450Y313700D02*
Y314900D01*
X424600Y336700D02*
X425800D01*
X425200Y336100D02*
Y337300D01*
X427400Y339600D02*
X428600D01*
X428000Y339000D02*
Y340200D01*
X430400Y342700D02*
X431600D01*
X431000Y342100D02*
Y343300D01*
X422154Y342295D02*
X423354D01*
X422754Y341695D02*
Y342895D01*
X400321Y284138D02*
X401521D01*
X400921Y283539D02*
Y284738D01*
X408788Y277495D02*
X409988D01*
X409388Y276895D02*
Y278095D01*
X413741Y297559D02*
X414941D01*
X414341Y296959D02*
Y298159D01*
X409800Y294700D02*
X411000D01*
X410400Y294100D02*
Y295300D01*
X404000Y288800D02*
X405200D01*
X404600Y288200D02*
Y289400D01*
X399300Y288800D02*
X400500D01*
X399900Y288200D02*
Y289400D01*
X398473Y282487D02*
X399673D01*
X399073Y281887D02*
Y283087D01*
X519600Y332800D02*
X520800D01*
X520200Y332200D02*
Y333400D01*
X506200Y329200D02*
X507400D01*
X506800Y328600D02*
Y329800D01*
X389700Y209000D02*
X390900D01*
X390300Y208400D02*
Y209600D01*
X409600Y199100D02*
X410800D01*
X410200Y198500D02*
Y199700D01*
X585400Y188700D02*
X586600D01*
X586000Y188100D02*
Y189300D01*
X583700Y191000D02*
X584900D01*
X584300Y190400D02*
Y191600D01*
X403400Y184800D02*
X404600D01*
X404000Y184200D02*
Y185400D01*
X452100Y302100D02*
X453300D01*
X452700Y301500D02*
Y302700D01*
X452400Y299300D02*
X453600D01*
X453000Y298700D02*
Y299900D01*
X309750Y140178D02*
X310950D01*
X310350Y139578D02*
Y140778D01*
X285250Y174567D02*
X286451D01*
X285851Y173967D02*
Y175167D01*
X308100Y149000D02*
X309300D01*
X308700Y148400D02*
Y149600D01*
X291500Y164200D02*
X292700D01*
X292100Y163600D02*
Y164800D01*
X416700Y185700D02*
X417900D01*
X417300Y185100D02*
Y186300D01*
X301185Y48450D02*
X302385D01*
X301785Y47850D02*
Y49050D01*
X297600Y52600D02*
X298800D01*
X298200Y52000D02*
Y53200D01*
X284900Y224300D02*
X286100D01*
X285500Y223700D02*
Y224900D01*
X298100Y227100D02*
X299300D01*
X298700Y226500D02*
Y227700D01*
X296500Y224000D02*
X297700D01*
X297100Y223400D02*
Y224600D01*
X405534Y168500D02*
X406734D01*
X406134Y167900D02*
Y169100D01*
X516400Y328100D02*
X517600D01*
X517000Y327500D02*
Y328700D01*
X361048Y262283D02*
X362248D01*
X361648Y261683D02*
Y262883D01*
X361048Y258783D02*
X362248D01*
X361648Y258183D02*
Y259383D01*
X373854Y275422D02*
X375054D01*
X374454Y274822D02*
Y276022D01*
X417900Y195700D02*
X419100D01*
X418500Y195100D02*
Y196300D01*
X417773Y17105D02*
X418973D01*
X418373Y16505D02*
Y17705D01*
X352000Y242200D02*
X353200D01*
X352600Y241600D02*
Y242800D01*
X357500Y250100D02*
X358700D01*
X358100Y249500D02*
Y250700D01*
X355568Y247805D02*
X356768D01*
X356168Y247205D02*
Y248405D01*
X356880Y228950D02*
X358080D01*
X357480Y228350D02*
Y229550D01*
X361200Y224200D02*
X362400D01*
X361800Y223600D02*
Y224800D01*
X365892Y229808D02*
X367092D01*
X366492Y229208D02*
Y230408D01*
X367551Y239196D02*
X368751D01*
X368151Y238596D02*
Y239796D01*
X249100Y106300D02*
X250300D01*
X249700Y105700D02*
Y106900D01*
X370800Y110500D02*
X372000D01*
X371400Y109900D02*
Y111100D01*
X348480Y143572D02*
X349680D01*
X349080Y142972D02*
Y144172D01*
X344950Y136850D02*
X346150D01*
X345550Y136250D02*
Y137450D01*
X305000Y130300D02*
X306200D01*
X305600Y129700D02*
Y130900D01*
X320800Y228400D02*
X322000D01*
X321400Y227800D02*
Y229000D01*
X316949Y216429D02*
X318148D01*
X317548Y215829D02*
Y217029D01*
X322100Y215500D02*
X323300D01*
X322700Y214900D02*
Y216100D01*
X269500Y189000D02*
X270700D01*
X270100Y188400D02*
Y189600D01*
X467000Y347500D02*
X468200D01*
X467600Y346900D02*
Y348100D01*
X480000Y368650D02*
X481200D01*
X480600Y368050D02*
Y369250D01*
X426400Y261200D02*
X427600D01*
X427000Y260600D02*
Y261800D01*
X430736Y251963D02*
X431937D01*
X431336Y251363D02*
Y252564D01*
X432659Y249859D02*
X433859D01*
X433259Y249259D02*
Y250459D01*
X362500Y108800D02*
X363700D01*
X363100Y108200D02*
Y109400D01*
X281400Y109500D02*
X282600D01*
X282000Y108900D02*
Y110100D01*
X407750Y241200D02*
X408950D01*
X408350Y240600D02*
Y241800D01*
X407750Y251700D02*
X408950D01*
X408350Y251100D02*
Y252300D01*
X389900Y196000D02*
X391100D01*
X390500Y195400D02*
Y196600D01*
X540000Y163400D02*
X541200D01*
X540600Y162800D02*
Y164000D01*
X554300Y156000D02*
X555500D01*
X554900Y155400D02*
Y156600D01*
X465200Y188200D02*
X466400D01*
X465800Y187600D02*
Y188800D01*
X462300Y188200D02*
X463500D01*
X462900Y187600D02*
Y188800D01*
X446200Y222800D02*
X447400D01*
X446800Y222200D02*
Y223400D01*
X444000Y221600D02*
X445200D01*
X444600Y221000D02*
Y222200D01*
X422700Y260100D02*
X423900D01*
X423300Y259500D02*
Y260700D01*
X454449Y212300D02*
X455649D01*
X455049Y211700D02*
Y212900D01*
X438341Y230741D02*
X439541D01*
X438941Y230141D02*
Y231341D01*
X467300Y208500D02*
X468500D01*
X467900Y207900D02*
Y209100D01*
X435900Y231700D02*
X437100D01*
X436500Y231100D02*
Y232300D01*
X441700Y223600D02*
X442900D01*
X442300Y223000D02*
Y224200D01*
X427468Y236369D02*
X428668D01*
X428068Y235769D02*
Y236969D01*
X424600Y233001D02*
X425800D01*
X425200Y232401D02*
Y233601D01*
X426535Y239501D02*
X427735D01*
X427135Y238901D02*
Y240101D01*
X457700Y208801D02*
X458900D01*
X458300Y208201D02*
Y209401D01*
X430209Y266109D02*
X431409D01*
X430809Y265509D02*
Y266709D01*
X391100Y183100D02*
X392300D01*
X391700Y182500D02*
Y183700D01*
X391200Y178600D02*
X392400D01*
X391800Y178000D02*
Y179200D01*
X403900Y171500D02*
X405100D01*
X404500Y170900D02*
Y172100D01*
X420000Y143400D02*
X421200D01*
X420600Y142800D02*
Y144000D01*
X420200Y136700D02*
X421400D01*
X420800Y136100D02*
Y137300D01*
X425400Y123900D02*
X426600D01*
X426000Y123300D02*
Y124500D01*
X425500Y127700D02*
X426700D01*
X426100Y127100D02*
Y128300D01*
X425700Y131600D02*
X426900D01*
X426300Y131000D02*
Y132200D01*
X425700Y136000D02*
X426900D01*
X426300Y135400D02*
Y136600D01*
X425800Y139900D02*
X427000D01*
X426400Y139300D02*
Y140500D01*
X424600Y154000D02*
X425800D01*
X425200Y153400D02*
Y154600D01*
X424000Y158100D02*
X425200D01*
X424600Y157500D02*
Y158700D01*
X420400Y155700D02*
X421600D01*
X421000Y155100D02*
Y156300D01*
X427366Y120202D02*
X428566D01*
X427966Y119602D02*
Y120802D01*
X429200Y117000D02*
X430400D01*
X429800Y116400D02*
Y117600D01*
X434300Y108900D02*
X435500D01*
X434900Y108300D02*
Y109500D01*
X437200Y105500D02*
X438400D01*
X437800Y104900D02*
Y106100D01*
X440300Y102200D02*
X441500D01*
X440900Y101600D02*
Y102800D01*
X443900Y98900D02*
X445100D01*
X444500Y98300D02*
Y99500D01*
X446300Y95900D02*
X447500D01*
X446900Y95300D02*
Y96500D01*
X449400Y92800D02*
X450600D01*
X450000Y92200D02*
Y93400D01*
X452500Y90200D02*
X453700D01*
X453100Y89600D02*
Y90800D01*
X456500Y89300D02*
X457700D01*
X457100Y88700D02*
Y89900D01*
X460469Y88380D02*
X461669D01*
X461069Y87780D02*
Y88980D01*
X463515Y86656D02*
X464715D01*
X464115Y86056D02*
Y87256D01*
X468000Y86900D02*
X469200D01*
X468600Y86300D02*
Y87500D01*
X468300Y90400D02*
X469500D01*
X468900Y89800D02*
Y91000D01*
X468300Y94900D02*
X469500D01*
X468900Y94300D02*
Y95500D01*
X462000Y97800D02*
X463200D01*
X462600Y97200D02*
Y98400D01*
X458378Y94987D02*
X459578D01*
X458978Y94387D02*
Y95587D01*
X454500Y95600D02*
X455700D01*
X455100Y95000D02*
Y96200D01*
X452000Y98500D02*
X453200D01*
X452600Y97900D02*
Y99100D01*
X447482Y102859D02*
X448682D01*
X448082Y102259D02*
Y103459D01*
X437582Y112758D02*
X438782D01*
X438182Y112158D02*
Y113358D01*
X437287Y116246D02*
X438487D01*
X437887Y115646D02*
Y116846D01*
X436207Y119575D02*
X437407D01*
X436807Y118975D02*
Y120175D01*
X560100Y140100D02*
X561300D01*
X560700Y139500D02*
Y140700D01*
X556000Y140200D02*
X557200D01*
X556600Y139600D02*
Y140800D01*
X554800Y136300D02*
X556000D01*
X555400Y135700D02*
Y136900D01*
X552600Y133500D02*
X553800D01*
X553200Y132900D02*
Y134100D01*
X548300Y133600D02*
X549500D01*
X548900Y133000D02*
Y134200D01*
X546500Y129700D02*
X547700D01*
X547100Y129100D02*
Y130300D01*
X547500Y125900D02*
X548700D01*
X548100Y125300D02*
Y126500D01*
X547713Y122005D02*
X548913D01*
X548313Y121405D02*
Y122605D01*
X547713Y118505D02*
X548913D01*
X548313Y117905D02*
Y119105D01*
X547713Y115005D02*
X548913D01*
X548313Y114405D02*
Y115605D01*
X547000Y110800D02*
X548200D01*
X547600Y110200D02*
Y111400D01*
X545600Y106000D02*
X546800D01*
X546200Y105400D02*
Y106600D01*
X543000Y102900D02*
X544200D01*
X543600Y102300D02*
Y103500D01*
X540131Y100069D02*
X541331D01*
X540731Y99470D02*
Y100670D01*
X537400Y97500D02*
X538600D01*
X538000Y96900D02*
Y98100D01*
X538156Y93435D02*
X539356D01*
X538756Y92835D02*
Y94035D01*
X538300Y88900D02*
X539500D01*
X538900Y88300D02*
Y89500D01*
X543300Y88700D02*
X544500D01*
X543900Y88100D02*
Y89300D01*
X547200Y90700D02*
X548400D01*
X547800Y90100D02*
Y91300D01*
X545800Y94300D02*
X547000D01*
X546400Y93700D02*
Y94900D01*
X546000Y98200D02*
X547200D01*
X546600Y97600D02*
Y98800D01*
X555876Y103809D02*
X557076D01*
X556476Y103209D02*
Y104410D01*
X567904Y113091D02*
X569104D01*
X568504Y112491D02*
Y113691D01*
X563968Y112038D02*
X565168D01*
X564568Y111437D02*
Y112637D01*
X560468Y112020D02*
X561668D01*
X561068Y111420D02*
Y112620D01*
X557512Y110146D02*
X558712D01*
X558112Y109546D02*
Y110746D01*
X553400Y111400D02*
X554600D01*
X554000Y110800D02*
Y112000D01*
X556100Y114000D02*
X557300D01*
X556700Y113400D02*
Y114600D01*
X553287Y116820D02*
X554487D01*
X553887Y116220D02*
Y117420D01*
X553287Y123820D02*
X554487D01*
X553887Y123220D02*
Y124420D01*
X553732Y127292D02*
X554932D01*
X554332Y126692D02*
Y127892D01*
X557800Y128400D02*
X559000D01*
X558400Y127800D02*
Y129000D01*
X559400Y132400D02*
X560600D01*
X560000Y131800D02*
Y133000D01*
X563000Y130200D02*
X564200D01*
X563600Y129600D02*
Y130800D01*
X566300Y132800D02*
X567500D01*
X566900Y132200D02*
Y133400D01*
X566500Y137100D02*
X567700D01*
X567100Y136500D02*
Y137700D01*
X564700Y140700D02*
X565900D01*
X565300Y140100D02*
Y141300D01*
X539500Y149300D02*
X540700D01*
X540100Y148700D02*
Y149900D01*
X536200Y147000D02*
X537400D01*
X536800Y146400D02*
Y147600D01*
X536500Y143500D02*
X537700D01*
X537100Y142900D02*
Y144100D01*
X532413Y142792D02*
X533613D01*
X533013Y142192D02*
Y143392D01*
X527900Y142100D02*
X529100D01*
X528500Y141500D02*
Y142700D01*
X524600Y139700D02*
X525800D01*
X525200Y139100D02*
Y140300D01*
X521900Y137400D02*
X523100D01*
X522500Y136800D02*
Y138000D01*
X519400Y134600D02*
X520600D01*
X520000Y134000D02*
Y135200D01*
X516700Y132200D02*
X517900D01*
X517300Y131600D02*
Y132800D01*
X513900Y129500D02*
X515100D01*
X514500Y128900D02*
Y130100D01*
X511500Y126800D02*
X512700D01*
X512100Y126200D02*
Y127400D01*
X508493Y123834D02*
X509693D01*
X509093Y123234D02*
Y124434D01*
X505800Y121100D02*
X507000D01*
X506400Y120500D02*
Y121700D01*
X502900Y118000D02*
X504100D01*
X503500Y117400D02*
Y118600D01*
X499800Y114900D02*
X501000D01*
X500400Y114300D02*
Y115500D01*
X496500Y111800D02*
X497700D01*
X497100Y111200D02*
Y112400D01*
X482000Y108600D02*
X483200D01*
X482600Y108000D02*
Y109200D01*
X482200Y103700D02*
X483400D01*
X482800Y103100D02*
Y104300D01*
X473600Y103300D02*
X474800D01*
X474200Y102700D02*
Y103900D01*
X470100Y105300D02*
X471300D01*
X470700Y104700D02*
Y105900D01*
X462500Y114500D02*
X463700D01*
X463100Y113900D02*
Y115100D01*
X463900Y102500D02*
X465100D01*
X464500Y101900D02*
Y103100D01*
X467200Y99500D02*
X468400D01*
X467800Y98900D02*
Y100100D01*
X471900Y97900D02*
X473100D01*
X472500Y97300D02*
Y98500D01*
X477200Y97300D02*
X478400D01*
X477800Y96700D02*
Y97900D01*
X481200D02*
X482400D01*
X481800Y97300D02*
Y98500D01*
X502100Y109100D02*
X503300D01*
X502700Y108500D02*
Y109700D01*
X505200Y112300D02*
X506400D01*
X505800Y111700D02*
Y112900D01*
X508300Y115800D02*
X509500D01*
X508900Y115200D02*
Y116400D01*
X511200Y118600D02*
X512400D01*
X511800Y118000D02*
Y119200D01*
X513700Y121300D02*
X514900D01*
X514300Y120700D02*
Y121900D01*
X516300Y123900D02*
X517500D01*
X516900Y123300D02*
Y124500D01*
X518900Y126800D02*
X520100D01*
X519500Y126200D02*
Y127400D01*
X521600Y129300D02*
X522800D01*
X522200Y128700D02*
Y129900D01*
X524200Y131800D02*
X525400D01*
X524800Y131200D02*
Y132400D01*
X527200Y134600D02*
X528400D01*
X527800Y134000D02*
Y135200D01*
X530000Y136800D02*
X531200D01*
X530600Y136200D02*
Y137400D01*
X534070Y137218D02*
X535270D01*
X534670Y136618D02*
Y137818D01*
X537570Y137218D02*
X538770D01*
X538170Y136618D02*
Y137818D01*
X541070Y137256D02*
X542270D01*
X541670Y136656D02*
Y137856D01*
X544485Y138022D02*
X545685D01*
X545085Y137422D02*
Y138622D01*
X544900Y142000D02*
X546100D01*
X545500Y141400D02*
Y142600D01*
X544900Y145800D02*
X546100D01*
X545500Y145200D02*
Y146400D01*
X543800Y149300D02*
X545000D01*
X544400Y148700D02*
Y149900D01*
X386208Y269744D02*
X387408D01*
X386808Y269144D02*
Y270344D01*
X382200Y269700D02*
X383400D01*
X382800Y269100D02*
Y270300D01*
X382000Y265900D02*
X383200D01*
X382600Y265300D02*
Y266500D01*
X382000Y262300D02*
X383200D01*
X382600Y261700D02*
Y262900D01*
X382500Y258200D02*
X383700D01*
X383100Y257600D02*
Y258800D01*
X390044Y266369D02*
X391244D01*
X390644Y265769D02*
Y266969D01*
X429973Y282487D02*
X431173D01*
X430573Y281887D02*
Y283087D01*
X426473Y282487D02*
X427673D01*
X427073Y281887D02*
Y283087D01*
X422973Y282487D02*
X424173D01*
X423573Y281887D02*
Y283087D01*
X393600Y282600D02*
X394800D01*
X394200Y282000D02*
Y283200D01*
X389300Y283300D02*
X390500D01*
X389900Y282700D02*
Y283900D01*
X387900Y278700D02*
X389100D01*
X388500Y278100D02*
Y279300D01*
X388000Y274700D02*
X389200D01*
X388600Y274100D02*
Y275300D01*
X389875Y271411D02*
X391075D01*
X390475Y270811D02*
Y272011D01*
X394300Y269600D02*
X395500D01*
X394900Y269000D02*
Y270200D01*
X398000Y272700D02*
X399200D01*
X398600Y272100D02*
Y273300D01*
X397239Y276913D02*
X398439D01*
X397839Y276313D02*
Y277513D01*
X414739Y276913D02*
X415939D01*
X415339Y276313D02*
Y277513D01*
X418239Y276913D02*
X419439D01*
X418839Y276313D02*
Y277513D01*
X421739Y276913D02*
X422939D01*
X422339Y276313D02*
Y277513D01*
X425239Y276913D02*
X426439D01*
X425839Y276313D02*
Y277513D01*
X439005Y275655D02*
X440205D01*
X439605Y275055D02*
Y276255D01*
X453600Y261400D02*
X454800D01*
X454200Y260800D02*
Y262000D01*
X452600Y257400D02*
X453800D01*
X453200Y256800D02*
Y258000D01*
X452600Y253900D02*
X453800D01*
X453200Y253300D02*
Y254500D01*
X452751Y250342D02*
X453951D01*
X453351Y249742D02*
Y250942D01*
X456078Y249256D02*
X457278D01*
X456678Y248656D02*
Y249856D01*
X459186Y247647D02*
X460386D01*
X459786Y247047D02*
Y248247D01*
X462686Y247602D02*
X463886D01*
X463286Y247002D02*
Y248202D01*
X466186Y247602D02*
X467386D01*
X466786Y247002D02*
Y248202D01*
X449100Y273300D02*
X450300D01*
X449700Y272700D02*
Y273900D01*
X446200Y276100D02*
X447400D01*
X446800Y275500D02*
Y276700D01*
X443400Y279000D02*
X444600D01*
X444000Y278400D02*
Y279600D01*
X479300Y361100D02*
X480500D01*
X479900Y360500D02*
Y361700D01*
X467128Y355073D02*
X468328D01*
X467728Y354473D02*
Y355673D01*
X466200Y351300D02*
X467400D01*
X466800Y350700D02*
Y351900D01*
X477300Y342600D02*
X478500D01*
X477900Y342000D02*
Y343200D01*
X481200Y342600D02*
X482400D01*
X481800Y342000D02*
Y343200D01*
X485200Y342100D02*
X486400D01*
X485800Y341500D02*
Y342700D01*
X487764Y348196D02*
X488964D01*
X488364Y347596D02*
Y348796D01*
X492700Y342800D02*
X493900D01*
X493300Y342200D02*
Y343400D01*
X507900Y339200D02*
X509100D01*
X508500Y338600D02*
Y339800D01*
X506871Y343578D02*
X508071D01*
X507471Y342978D02*
Y344178D01*
X494200Y349800D02*
X495400D01*
X494800Y349200D02*
Y350400D01*
X491100Y352800D02*
X492300D01*
X491700Y352200D02*
Y353400D01*
X486902Y354787D02*
X488102D01*
X487502Y354187D02*
Y355387D01*
X485444Y357969D02*
X486644D01*
X486044Y357369D02*
Y358569D01*
X484028Y361170D02*
X485228D01*
X484628Y360570D02*
Y361770D01*
X493591Y338870D02*
X494791D01*
X494191Y338270D02*
Y339470D01*
X488700Y327900D02*
X489900D01*
X489300Y327300D02*
Y328500D01*
X485900Y325100D02*
X487100D01*
X486500Y324500D02*
Y325700D01*
X481300Y320300D02*
X482500D01*
X481900Y319700D02*
Y320900D01*
X476900Y320300D02*
X478100D01*
X477500Y319700D02*
Y320900D01*
X477800Y302900D02*
X479000D01*
X478400Y302300D02*
Y303500D01*
X485444Y305901D02*
X486644D01*
X486044Y305301D02*
Y306501D01*
X485276Y309397D02*
X486476D01*
X485876Y308797D02*
Y309997D01*
X490389Y321231D02*
X491589D01*
X490989Y320631D02*
Y321831D01*
X493100Y324000D02*
X494300D01*
X493700Y323400D02*
Y324600D01*
X496100Y327000D02*
X497300D01*
X496700Y326400D02*
Y327600D01*
X412700Y314600D02*
X413900D01*
X413300Y314000D02*
Y315200D01*
X415356Y311974D02*
X416556D01*
X415956Y311374D02*
Y312574D01*
X414581Y308560D02*
X415781D01*
X415181Y307960D02*
Y309160D01*
X411600Y311000D02*
X412800D01*
X412200Y310400D02*
Y311600D01*
X407800Y311100D02*
X409000D01*
X408400Y310500D02*
Y311700D01*
X406200Y307600D02*
X407400D01*
X406800Y307000D02*
Y308200D01*
X403849Y304610D02*
X405049D01*
X404449Y304011D02*
Y305210D01*
X396100Y298500D02*
X397300D01*
X396700Y297900D02*
Y299100D01*
X392247Y297650D02*
X393447D01*
X392847Y297049D02*
Y298250D01*
X389200Y294900D02*
X390400D01*
X389800Y294300D02*
Y295500D01*
X385100Y282400D02*
X386300D01*
X385700Y281800D02*
Y283000D01*
X391503Y289064D02*
X392703D01*
X392103Y288463D02*
Y289664D01*
X423300Y310500D02*
X424500D01*
X423900Y309900D02*
Y311100D01*
X419400Y324800D02*
X420600D01*
X420000Y324200D02*
Y325400D01*
X449600Y353000D02*
X450800D01*
X450200Y352400D02*
Y353600D01*
X435715Y352256D02*
X436915D01*
X436315Y351656D02*
Y352856D01*
X418700Y338700D02*
X419900D01*
X419300Y338100D02*
Y339300D01*
X415600Y335600D02*
X416800D01*
X416200Y335000D02*
Y336200D01*
X412600Y332700D02*
X413800D01*
X413200Y332100D02*
Y333300D01*
X410000Y330000D02*
X411200D01*
X410600Y329400D02*
Y330600D01*
X407305Y327446D02*
X408505D01*
X407905Y326846D02*
Y328046D01*
X403700Y324100D02*
X404900D01*
X404300Y323500D02*
Y324700D01*
X400700Y320900D02*
X401900D01*
X401300Y320300D02*
Y321500D01*
X394931Y315072D02*
X396131D01*
X395531Y314472D02*
Y315671D01*
X391300Y311500D02*
X392500D01*
X391900Y310900D02*
Y312100D01*
X388600Y308400D02*
X389800D01*
X389200Y307800D02*
Y309000D01*
X385031Y305172D02*
X386231D01*
X385631Y304572D02*
Y305772D01*
X378300Y298500D02*
X379500D01*
X378900Y297900D02*
Y299100D01*
X375100Y295500D02*
X376300D01*
X375700Y294900D02*
Y296100D01*
X368300Y290000D02*
X369500D01*
X368900Y289400D02*
Y290600D01*
X363900Y289000D02*
X365100D01*
X364500Y288400D02*
Y289600D01*
X366313Y280171D02*
X367513D01*
X366913Y279571D02*
Y280771D01*
X366313Y276671D02*
X367513D01*
X366913Y276071D02*
Y277271D01*
X363745Y274294D02*
X364945D01*
X364345Y273694D02*
Y274894D01*
X360905Y272248D02*
X362105D01*
X361505Y271648D02*
Y272848D01*
X366400Y266300D02*
X367600D01*
X367000Y265700D02*
Y266900D01*
X370150Y266205D02*
X371350D01*
X370750Y265605D02*
Y266805D01*
X371800Y269700D02*
X373000D01*
X372400Y269100D02*
Y270300D01*
X371800Y282700D02*
X373000D01*
X372400Y282100D02*
Y283300D01*
X373700Y285900D02*
X374900D01*
X374300Y285300D02*
Y286500D01*
X376324Y288583D02*
X377524D01*
X376924Y287983D02*
Y289183D01*
X383000Y295500D02*
X384200D01*
X383600Y294900D02*
Y296100D01*
X386223Y298482D02*
X387423D01*
X386823Y297883D02*
Y299082D01*
X391173Y303432D02*
X392373D01*
X391773Y302832D02*
Y304032D01*
X394400Y306300D02*
X395600D01*
X395000Y305700D02*
Y306900D01*
X397500Y309200D02*
X398700D01*
X398100Y308600D02*
Y309800D01*
X401073Y313332D02*
X402273D01*
X401673Y312732D02*
Y313932D01*
X407700Y320200D02*
X408900D01*
X408300Y319600D02*
Y320800D01*
X410700Y322900D02*
X411900D01*
X411300Y322300D02*
Y323500D01*
X413300Y325400D02*
X414500D01*
X413900Y324800D02*
Y326000D01*
X415922Y328181D02*
X417122D01*
X416522Y327581D02*
Y328781D01*
X418397Y330656D02*
X419597D01*
X418997Y330056D02*
Y331256D01*
X421600Y333500D02*
X422800D01*
X422200Y332900D02*
Y334100D01*
X454000Y352800D02*
X455200D01*
X454600Y352200D02*
Y353400D01*
X603352Y128452D02*
X604552D01*
X603952Y127852D02*
Y129052D01*
X518900Y28301D02*
X520100D01*
X519500Y27701D02*
Y28901D01*
X518464Y20266D02*
X519664D01*
X519064Y19666D02*
Y20865D01*
X405580Y204834D02*
X406780D01*
X406180Y204234D02*
Y205434D01*
X424100Y183700D02*
X425300D01*
X424700Y183100D02*
Y184300D01*
X474700Y259100D02*
X475900D01*
X475300Y258500D02*
Y259700D01*
X474800Y252844D02*
X476000D01*
X475400Y252244D02*
Y253444D01*
X470710Y255560D02*
X471910D01*
X471310Y254960D02*
Y256160D01*
X501500Y289600D02*
X502700D01*
X502100Y289000D02*
Y290200D01*
X491500Y298900D02*
X492700D01*
X492100Y298300D02*
Y299500D01*
X457400Y311800D02*
X458600D01*
X458000Y311200D02*
Y312400D01*
X305000Y188600D02*
X306200D01*
X305600Y188000D02*
Y189200D01*
X493900Y46300D02*
X495100D01*
X494500Y45700D02*
Y46900D01*
X297500Y418000D02*
X298700D01*
X298100Y417400D02*
Y418600D01*
X397800Y146900D02*
X399000D01*
X398400Y146300D02*
Y147500D01*
X403900Y236600D02*
X405100D01*
X404500Y236000D02*
Y237200D01*
X322500Y246600D02*
X323700D01*
X323100Y246000D02*
Y247200D01*
X317750Y242428D02*
X318950D01*
X318350Y241828D02*
Y243028D01*
X286800Y176900D02*
X288000D01*
X287400Y176300D02*
Y177500D01*
X607252Y202368D02*
X609252D01*
X608252Y201368D02*
Y203368D01*
X292987Y31787D02*
X294187D01*
X293587Y31187D02*
Y32387D01*
X289487Y31787D02*
X290687D01*
X290087Y31187D02*
Y32387D01*
X285987Y31787D02*
X287187D01*
X286587Y31187D02*
Y32387D01*
X281900Y32200D02*
X283100D01*
X282500Y31600D02*
Y32800D01*
X279100Y34700D02*
X280300D01*
X279700Y34100D02*
Y35300D01*
X276500Y37100D02*
X277700D01*
X277100Y36500D02*
Y37700D01*
X273900Y39900D02*
X275100D01*
X274500Y39300D02*
Y40500D01*
X269075Y59521D02*
X270275D01*
X269675Y58921D02*
Y60121D01*
X267740Y49582D02*
X268940D01*
X268340Y48982D02*
Y50182D01*
X267740Y46082D02*
X268940D01*
X268340Y45482D02*
Y46682D01*
X267740Y42582D02*
X268940D01*
X268340Y41982D02*
Y43182D01*
X267778Y39083D02*
X268978D01*
X268378Y38482D02*
Y39682D01*
X269701Y36158D02*
X270901D01*
X270301Y35558D02*
Y36758D01*
X272800Y33200D02*
X274000D01*
X273400Y32600D02*
Y33800D01*
X275700Y30100D02*
X276900D01*
X276300Y29500D02*
Y30700D01*
X278000Y27300D02*
X279200D01*
X278600Y26700D02*
Y27900D01*
X278100Y22600D02*
X279300D01*
X278700Y22000D02*
Y23200D01*
X282700Y20500D02*
X283900D01*
X283300Y19900D02*
Y21100D01*
X286200Y23200D02*
X287400D01*
X286800Y22600D02*
Y23800D01*
X288597Y26213D02*
X289796D01*
X289196Y25613D02*
Y26813D01*
X292096Y26213D02*
X293297D01*
X292696Y25613D02*
Y26813D01*
X295597Y26213D02*
X296796D01*
X296197Y25613D02*
Y26813D01*
X299096Y26213D02*
X300296D01*
X299696Y25613D02*
Y26813D01*
X303300Y26200D02*
X304500D01*
X303900Y25600D02*
Y26800D01*
X331400Y29900D02*
X332600D01*
X332000Y29300D02*
Y30500D01*
X334300Y32500D02*
X335500D01*
X334900Y31900D02*
Y33100D01*
X338900Y34900D02*
X340100D01*
X339500Y34300D02*
Y35500D01*
X338000Y38900D02*
X339200D01*
X338600Y38300D02*
Y39500D01*
X341900Y39200D02*
X343100D01*
X342500Y38600D02*
Y39800D01*
X344100Y42500D02*
X345300D01*
X344700Y41900D02*
Y43100D01*
X347600Y45200D02*
X348800D01*
X348200Y44600D02*
Y45800D01*
X350600Y48500D02*
X351800D01*
X351200Y47900D02*
Y49100D01*
X353661Y51969D02*
X354861D01*
X354261Y51369D02*
Y52569D01*
X359939Y63657D02*
X361139D01*
X360539Y63057D02*
Y64257D01*
X359939Y67157D02*
X361139D01*
X360539Y66557D02*
Y67757D01*
X359939Y70657D02*
X361139D01*
X360539Y70057D02*
Y71257D01*
X359939Y74157D02*
X361139D01*
X360539Y73557D02*
Y74757D01*
X359939Y77657D02*
X361139D01*
X360539Y77057D02*
Y78257D01*
X359939Y81157D02*
X361139D01*
X360539Y80557D02*
Y81757D01*
X345929Y91977D02*
X347129D01*
X346529Y91377D02*
Y92577D01*
X339251Y90511D02*
X340451D01*
X339851Y89911D02*
Y91111D01*
X338513Y87089D02*
X339713D01*
X339113Y86489D02*
Y87689D01*
X338513Y83589D02*
X339713D01*
X339113Y82989D02*
Y84189D01*
X338513Y80089D02*
X339713D01*
X339113Y79489D02*
Y80689D01*
X338513Y76589D02*
X339713D01*
X339113Y75989D02*
Y77189D01*
X339122Y73142D02*
X340321D01*
X339721Y72542D02*
Y73742D01*
X341544Y70616D02*
X342744D01*
X342144Y70016D02*
Y71216D01*
X303815Y35387D02*
X305015D01*
X304415Y34787D02*
Y35987D01*
X301616Y38109D02*
X302816D01*
X302216Y37510D02*
Y38710D01*
X298893Y40308D02*
X300093D01*
X299493Y39708D02*
Y40908D01*
X295600Y41494D02*
X296800D01*
X296200Y40894D02*
Y42094D01*
X294144Y44677D02*
X295344D01*
X294744Y44077D02*
Y45277D01*
X290812Y45749D02*
X292012D01*
X291412Y45149D02*
Y46349D01*
X287810Y43949D02*
X289010D01*
X288410Y43349D02*
Y44549D01*
X285966Y40975D02*
X287166D01*
X286566Y40374D02*
Y41574D01*
X283491Y43449D02*
X284692D01*
X284091Y42849D02*
Y44049D01*
X280600Y46400D02*
X281800D01*
X281200Y45800D02*
Y47000D01*
X273322Y59611D02*
X274522D01*
X273922Y59011D02*
Y60211D01*
X273300Y45900D02*
X274500D01*
X273900Y45300D02*
Y46500D01*
X275900Y43100D02*
X277100D01*
X276500Y42500D02*
Y43700D01*
X278500Y40500D02*
X279700D01*
X279100Y39900D02*
Y41100D01*
X281100Y37900D02*
X282300D01*
X281700Y37300D02*
Y38500D01*
X283900Y35700D02*
X285100D01*
X284500Y35100D02*
Y36300D01*
X287800Y35300D02*
X289000D01*
X288400Y34700D02*
Y35900D01*
X291600Y35200D02*
X292800D01*
X292200Y34600D02*
Y35800D01*
X295400Y35200D02*
X296600D01*
X296000Y34600D02*
Y35800D01*
X296670Y31850D02*
X297870D01*
X297270Y31250D02*
Y32450D01*
X323500Y31300D02*
X324700D01*
X324100Y30700D02*
Y31900D01*
X326800Y33100D02*
X328000D01*
X327400Y32500D02*
Y33700D01*
X352287Y65096D02*
X353487D01*
X352887Y64496D02*
Y65696D01*
X346900Y73100D02*
X348100D01*
X347500Y72500D02*
Y73700D01*
X344098Y75944D02*
X345298D01*
X344698Y75344D02*
Y76544D01*
X344087Y79444D02*
X345287D01*
X344687Y78844D02*
Y80044D01*
X344087Y82944D02*
X345287D01*
X344687Y82344D02*
Y83544D01*
X344614Y86404D02*
X345814D01*
X345214Y85804D02*
Y87004D01*
X340541Y49959D02*
X341741D01*
X341141Y49359D02*
Y50559D01*
X422077Y197330D02*
X423277D01*
X422677Y196730D02*
Y197930D01*
X420263Y168101D02*
X421463D01*
X420863Y167501D02*
Y168701D01*
X420400Y165200D02*
X421600D01*
X421000Y164600D02*
Y165800D01*
X415600Y188501D02*
X416800D01*
X416200Y187901D02*
Y189101D01*
X409300Y176411D02*
X410500D01*
X409900Y175812D02*
Y177012D01*
X423453Y204711D02*
X424653D01*
X424053Y204111D02*
Y205311D01*
X426168Y199385D02*
X427368D01*
X426768Y198785D02*
Y199986D01*
X443800Y106500D02*
X445000D01*
X444400Y105900D02*
Y107100D01*
X588300Y99700D02*
X589500D01*
X588900Y99100D02*
Y100300D01*
X596400Y112700D02*
X597600D01*
X597000Y112100D02*
Y113300D01*
X568000Y155000D02*
X569200D01*
X568600Y154400D02*
Y155600D01*
X588800Y154400D02*
X590000D01*
X589400Y153800D02*
Y155000D01*
X539800Y195900D02*
X541000D01*
X540400Y195300D02*
Y196500D01*
X469800Y112100D02*
X471000D01*
X470400Y111500D02*
Y112700D01*
X473100Y159900D02*
X474300D01*
X473700Y159300D02*
Y160500D01*
X288200Y151700D02*
X289400D01*
X288800Y151100D02*
Y152300D01*
X409600Y153400D02*
X410800D01*
X410200Y152800D02*
Y154000D01*
X412400Y151900D02*
X413600D01*
X413000Y151300D02*
Y152500D01*
X418050Y149935D02*
X419250D01*
X418650Y149335D02*
Y150535D01*
X417750Y141000D02*
X418950D01*
X418350Y140400D02*
Y141600D01*
X417750Y146950D02*
X418950D01*
X418350Y146350D02*
Y147550D01*
X482800Y221500D02*
X484000D01*
X483400Y220900D02*
Y222100D01*
X485270Y221392D02*
X486470D01*
X485870Y220792D02*
Y221992D01*
X477200Y195900D02*
X478400D01*
X477800Y195300D02*
Y196500D01*
X455334Y117516D02*
X456534D01*
X455934Y116916D02*
Y118116D01*
X462300Y124401D02*
X463500D01*
X462900Y123801D02*
Y125001D01*
X464300Y126201D02*
X465500D01*
X464900Y125601D02*
Y126801D01*
X507700Y150400D02*
X508900D01*
X508300Y149800D02*
Y151000D01*
X443159Y202942D02*
X444359D01*
X443759Y202342D02*
Y203542D01*
X443100Y197222D02*
X444300D01*
X443700Y196622D02*
Y197822D01*
X439206Y216591D02*
X440406D01*
X439806Y215991D02*
Y217191D01*
X347075Y246850D02*
X348275D01*
X347675Y246250D02*
Y247450D01*
X301900Y233900D02*
X303100D01*
X302500Y233300D02*
Y234500D01*
X307029Y184005D02*
X308229D01*
X307629Y183405D02*
Y184605D01*
X294200Y186300D02*
X295400D01*
X294800Y185700D02*
Y186900D01*
X235700Y287400D02*
X236900D01*
X236300Y286800D02*
Y288000D01*
X458300Y334300D02*
X459500D01*
X458900Y333700D02*
Y334900D01*
X457415Y347497D02*
X458615D01*
X458015Y346897D02*
Y348097D01*
X461400Y297100D02*
X462600D01*
X462000Y296500D02*
Y297700D01*
X453500Y330500D02*
X454700D01*
X454100Y329900D02*
Y331100D01*
X452919Y340519D02*
X454119D01*
X453519Y339919D02*
Y341119D01*
X438250Y345100D02*
X439450D01*
X438850Y344500D02*
Y345700D01*
X438250Y338000D02*
X439450D01*
X438850Y337400D02*
Y338600D01*
X479700Y335400D02*
X480900D01*
X480300Y334800D02*
Y336000D01*
X480000Y327400D02*
X481200D01*
X480600Y326800D02*
Y328000D01*
X469500Y262150D02*
X470700D01*
X470100Y261550D02*
Y262750D01*
X499950Y312659D02*
X501150D01*
X500550Y312059D02*
Y313259D01*
X499950Y315900D02*
X501150D01*
X500550Y315300D02*
Y316500D01*
X496700Y314400D02*
X497900D01*
X497300Y313800D02*
Y315000D01*
X552100Y412800D02*
X553300D01*
X552700Y412200D02*
Y413400D01*
X569900Y394000D02*
X571100D01*
X570500Y393400D02*
Y394600D01*
X583900Y395099D02*
X585100D01*
X584500Y394499D02*
Y395699D01*
X551051Y395673D02*
X552251D01*
X551651Y395073D02*
Y396273D01*
X554300Y395750D02*
X555500D01*
X554900Y395150D02*
Y396350D01*
X569850Y397701D02*
X571050D01*
X570450Y397101D02*
Y398301D01*
X208900Y251000D02*
X210100D01*
X209500Y250400D02*
Y251600D01*
X461900Y400200D02*
X463100D01*
X462500Y399600D02*
Y400800D01*
X470700Y389800D02*
X471900D01*
X471300Y389200D02*
Y390400D01*
X462700Y403700D02*
X463900D01*
X463300Y403100D02*
Y404300D01*
X341700Y304300D02*
X342900D01*
X342300Y303700D02*
Y304900D01*
X443900Y383700D02*
X445100D01*
X444500Y383100D02*
Y384300D01*
X470700Y392500D02*
X471900D01*
X471300Y391900D02*
Y393100D01*
X442500Y271300D02*
X443700D01*
X443100Y270700D02*
Y271900D01*
X247800Y192500D02*
X249000D01*
X248400Y191900D02*
Y193100D01*
X319500Y162900D02*
X320700D01*
X320100Y162300D02*
Y163500D01*
X346800Y163100D02*
X348000D01*
X347400Y162500D02*
Y163700D01*
X332400Y157100D02*
X333600D01*
X333000Y156500D02*
Y157700D01*
X244000Y225000D02*
X245200D01*
X244600Y224400D02*
Y225600D01*
X248100Y171300D02*
X249300D01*
X248700Y170700D02*
Y171900D01*
X481300Y404000D02*
X482500D01*
X481900Y403400D02*
Y404600D01*
X332400Y394800D02*
X333600D01*
X333000Y394200D02*
Y395400D01*
X315400Y246900D02*
X316600D01*
X316000Y246300D02*
Y247500D01*
X292800Y216600D02*
X294000D01*
X293400Y216000D02*
Y217200D01*
X393398Y159111D02*
X394598D01*
X393998Y158511D02*
Y159711D01*
X335300Y139300D02*
X336500D01*
X335900Y138700D02*
Y139900D01*
X375200Y143200D02*
X376400D01*
X375800Y142600D02*
Y143800D01*
X316800Y142200D02*
X318000D01*
X317400Y141600D02*
Y142800D01*
X316700Y144800D02*
X317900D01*
X317300Y144200D02*
Y145400D01*
X285500Y199900D02*
X286700D01*
X286100Y199300D02*
Y200500D01*
X291300Y208700D02*
X292500D01*
X291900Y208100D02*
Y209300D01*
X298273Y202553D02*
X299473D01*
X298873Y201953D02*
Y203153D01*
X328100Y188600D02*
X329300D01*
X328700Y188000D02*
Y189200D01*
X317400Y188700D02*
X318600D01*
X318000Y188100D02*
Y189300D01*
X351000Y252600D02*
X352200D01*
X351600Y252000D02*
Y253200D01*
X359600Y252400D02*
X360800D01*
X360200Y251800D02*
Y253000D01*
X604200Y84401D02*
X605400D01*
X604800Y83801D02*
Y85001D01*
X604200Y87101D02*
X605400D01*
X604800Y86501D02*
Y87701D01*
X603900Y89901D02*
X605100D01*
X604500Y89301D02*
Y90501D01*
X373800Y203100D02*
X375000D01*
X374400Y202500D02*
Y203700D01*
X241400Y59400D02*
X242600D01*
X242000Y58800D02*
Y60000D01*
X243700Y60700D02*
X244900D01*
X244300Y60100D02*
Y61300D01*
X387500Y203200D02*
X388700D01*
X388100Y202600D02*
Y203800D01*
X387300Y195500D02*
X388500D01*
X387900Y194900D02*
Y196100D01*
X406700Y176411D02*
X407900D01*
X407300Y175812D02*
Y177012D01*
X462600Y255500D02*
X463800D01*
X463200Y254900D02*
Y256100D01*
X366500Y242400D02*
X367700D01*
X367100Y241800D02*
Y243000D01*
X471900Y306800D02*
X473100D01*
X472500Y306200D02*
Y307400D01*
X471900Y341700D02*
X473100D01*
X472500Y341100D02*
Y342300D01*
X480200Y295800D02*
X481400D01*
X480800Y295200D02*
Y296400D01*
X524300Y313600D02*
X525500D01*
X524900Y313000D02*
Y314200D01*
X538100Y306500D02*
X539300D01*
X538700Y305900D02*
Y307100D01*
X521500Y311700D02*
X522700D01*
X522100Y311100D02*
Y312300D01*
X544709Y258891D02*
X545909D01*
X545309Y258291D02*
Y259491D01*
X494191Y282409D02*
X495391D01*
X494791Y281809D02*
Y283009D01*
X261100Y102500D02*
X262300D01*
X261700Y101900D02*
Y103100D01*
X228500Y69500D02*
X229700D01*
X229100Y68900D02*
Y70100D01*
X285600Y94800D02*
X286800D01*
X286200Y94200D02*
Y95400D01*
X288400Y94900D02*
X289600D01*
X289000Y94300D02*
Y95500D01*
X310200Y62300D02*
X311400D01*
X310800Y61700D02*
Y62900D01*
X320400Y59600D02*
X321600D01*
X321000Y59000D02*
Y60200D01*
X325200Y56700D02*
X326400D01*
X325800Y56100D02*
Y57300D01*
X313900Y73700D02*
X315100D01*
X314500Y73100D02*
Y74300D01*
X314300Y64300D02*
X315500D01*
X314900Y63700D02*
Y64900D01*
X319175Y98825D02*
X320375D01*
X319775Y98225D02*
Y99425D01*
X347700Y102395D02*
X348900D01*
X348300Y101795D02*
Y102995D01*
X513200Y162000D02*
X514400D01*
X513800Y161400D02*
Y162600D01*
X514800Y113400D02*
X516000D01*
X515400Y112800D02*
Y114000D01*
X565200Y105600D02*
X566400D01*
X565800Y105000D02*
Y106200D01*
X554100Y120400D02*
X555300D01*
X554700Y119800D02*
Y121000D01*
X588200Y116700D02*
X589400D01*
X588800Y116100D02*
Y117300D01*
X488300Y117000D02*
X489500D01*
X488900Y116400D02*
Y117600D01*
X488200Y119600D02*
X489400D01*
X488800Y119000D02*
Y120200D01*
X485800Y139300D02*
X487000D01*
X486400Y138700D02*
Y139900D01*
X414800Y55001D02*
X416000D01*
X415400Y54401D02*
Y55601D01*
X471600Y131800D02*
X472800D01*
X472200Y131200D02*
Y132400D01*
X507250Y147600D02*
X508450D01*
X507850Y147000D02*
Y148200D01*
X459700Y163250D02*
X460900D01*
X460300Y162650D02*
Y163850D01*
X549680Y358667D02*
X550879D01*
X550280Y358067D02*
Y359267D01*
X521725Y303272D02*
X522925D01*
X522325Y302672D02*
Y303872D01*
X598070Y411507D02*
X599270D01*
X598670Y410907D02*
Y412107D01*
X443600Y412601D02*
X444800D01*
X444200Y412001D02*
Y413201D01*
X443300Y405601D02*
X444500D01*
X443900Y405001D02*
Y406201D01*
X449700Y189901D02*
X450900D01*
X450300Y189301D02*
Y190501D01*
X446500Y189301D02*
X447700D01*
X447100Y188701D02*
Y189901D01*
X410500Y30100D02*
X411700D01*
X411100Y29500D02*
Y30700D01*
X570480Y156001D02*
X571680D01*
X571080Y155401D02*
Y156601D01*
X485900Y92401D02*
X487100D01*
X486500Y91801D02*
Y93001D01*
X387300Y55401D02*
X388500D01*
X387900Y54801D02*
Y56001D01*
X323575Y60093D02*
X324775D01*
X324175Y59493D02*
Y60694D01*
X241200Y81801D02*
X242400D01*
X241800Y81201D02*
Y82401D01*
X418600Y232001D02*
X419800D01*
X419200Y231401D02*
Y232601D01*
X383300Y241901D02*
X384500D01*
X383900Y241301D02*
Y242501D01*
X338709Y303291D02*
X339909D01*
X339309Y302691D02*
Y303891D01*
X346700Y306500D02*
X347900D01*
X347300Y305900D02*
Y307100D01*
X344752Y102389D02*
X345952D01*
X345352Y101789D02*
Y102989D01*
X307510Y104591D02*
X308710D01*
X308110Y103991D02*
Y105191D01*
X227550Y287251D02*
X228750D01*
X228150Y286651D02*
Y287851D01*
X320112Y255371D02*
X321312D01*
X320712Y254771D02*
Y255971D01*
X211600Y250601D02*
X212800D01*
X212200Y250001D02*
Y251201D01*
X214596Y250305D02*
X215796D01*
X215196Y249705D02*
Y250905D01*
X209100Y257301D02*
X210300D01*
X209700Y256701D02*
Y257901D01*
X211127Y255609D02*
X212327D01*
X211727Y255010D02*
Y256209D01*
X490900Y412100D02*
X492100D01*
X491500Y411500D02*
Y412700D01*
X493600Y411000D02*
X494800D01*
X494200Y410400D02*
Y411600D01*
X496000Y410900D02*
X497200D01*
X496600Y410300D02*
Y411500D01*
X525500Y396252D02*
X526700D01*
X526100Y395652D02*
Y396852D01*
X508700Y396100D02*
X509900D01*
X509300Y395500D02*
Y396700D01*
X466200Y407401D02*
X467400D01*
X466800Y406801D02*
Y408001D01*
X597800Y390600D02*
X599000D01*
X598400Y390000D02*
Y391200D01*
X585500Y415501D02*
X586700D01*
X586100Y414901D02*
Y416101D01*
X588600Y415501D02*
X589800D01*
X589200Y414901D02*
Y416101D01*
X598000Y404001D02*
X599200D01*
X598600Y403401D02*
Y404601D01*
X548600Y411300D02*
X549800D01*
X549200Y410700D02*
Y411900D01*
X552100Y400301D02*
X553300D01*
X552700Y399701D02*
Y400901D01*
X555100Y400401D02*
X556300D01*
X555700Y399801D02*
Y401001D01*
X571100Y419101D02*
X572300D01*
X571700Y418501D02*
Y419701D01*
X568400Y418801D02*
X569600D01*
X569000Y418201D02*
Y419401D01*
X565500Y418601D02*
X566700D01*
X566100Y418001D02*
Y419201D01*
X229000Y241801D02*
X230200D01*
X229600Y241201D02*
Y242401D01*
X229400Y244901D02*
X230600D01*
X230000Y244301D02*
Y245501D01*
X241400Y250101D02*
X242600D01*
X242000Y249501D02*
Y250701D01*
X239600Y252401D02*
X240800D01*
X240200Y251801D02*
Y253001D01*
X243100Y246501D02*
X244300D01*
X243700Y245901D02*
Y247101D01*
X243100Y243601D02*
X244300D01*
X243700Y243001D02*
Y244201D01*
X239300Y274501D02*
X240500D01*
X239900Y273901D02*
Y275101D01*
X238500Y271301D02*
X239700D01*
X239100Y270701D02*
Y271901D01*
X236100Y263701D02*
X237300D01*
X236700Y263101D02*
Y264301D01*
X235800Y260701D02*
X237000D01*
X236400Y260101D02*
Y261301D01*
X557100Y246501D02*
X558300D01*
X557700Y245901D02*
Y247101D01*
X551134Y243653D02*
X552334D01*
X551734Y243053D02*
Y244253D01*
X578900Y257801D02*
X580100D01*
X579500Y257201D02*
Y258401D01*
X583400Y257801D02*
X584600D01*
X584000Y257201D02*
Y258401D01*
X588400Y262301D02*
X589600D01*
X589000Y261701D02*
Y262901D01*
X603600Y261901D02*
X604800D01*
X604200Y261301D02*
Y262501D01*
X337326Y100401D02*
X338526D01*
X337926Y99801D02*
Y101001D01*
X315100Y53401D02*
X316300D01*
X315700Y52801D02*
Y54001D01*
X315300Y55901D02*
X316500D01*
X315900Y55301D02*
Y56501D01*
X325000Y14933D02*
X326200D01*
X325600Y14333D02*
Y15533D01*
X328200Y15033D02*
X329400D01*
X328800Y14433D02*
Y15633D01*
X298152Y70567D02*
X299352D01*
X298752Y69967D02*
Y71167D01*
X386513Y104191D02*
X387713D01*
X387113Y103591D02*
Y104791D01*
X507800Y103301D02*
X509000D01*
X508400Y102701D02*
Y103901D01*
X507800Y100601D02*
X509000D01*
X508400Y100001D02*
Y101201D01*
X473300Y151901D02*
X474500D01*
X473900Y151301D02*
Y152501D01*
X287252Y69616D02*
X288452D01*
X287852Y69016D02*
Y70216D01*
X287395Y72613D02*
X288595D01*
X287995Y72013D02*
Y73213D01*
X332853Y103754D02*
X334053D01*
X333453Y103154D02*
Y104354D01*
X312100Y86001D02*
X313300D01*
X312700Y85401D02*
Y86601D01*
X312100Y83001D02*
X313300D01*
X312700Y82401D02*
Y83601D01*
X329869Y103446D02*
X331069D01*
X330469Y102846D02*
Y104046D01*
X312159Y79942D02*
X313359D01*
X312759Y79342D02*
Y80542D01*
X312159Y76942D02*
X313359D01*
X312759Y76342D02*
Y77542D01*
X413500Y233901D02*
X414700D01*
X414100Y233301D02*
Y234501D01*
X295100Y258001D02*
X296300D01*
X295700Y257401D02*
Y258601D01*
X379200Y87901D02*
X380400D01*
X379800Y87301D02*
Y88501D01*
X377400Y85301D02*
X378600D01*
X378000Y84701D02*
Y85901D01*
X437000Y55601D02*
X438200D01*
X437600Y55001D02*
Y56201D01*
X418400Y55401D02*
X419600D01*
X419000Y54801D02*
Y56001D01*
X435300Y415601D02*
X436500D01*
X435900Y415001D02*
Y416201D01*
X427150Y415476D02*
X428350D01*
X427750Y414876D02*
Y416076D01*
X397300Y413101D02*
X398500D01*
X397900Y412501D02*
Y413701D01*
X406800Y409101D02*
X408000D01*
X407400Y408501D02*
Y409701D01*
X398200Y85001D02*
X399400D01*
X398800Y84401D02*
Y85601D01*
X381100Y92701D02*
X382300D01*
X381700Y92101D02*
Y93301D01*
X219300Y202400D02*
X220500D01*
X219900Y201800D02*
Y203000D01*
X294600Y241950D02*
X295800D01*
X295200Y241350D02*
Y242550D01*
X493200Y317501D02*
X494400D01*
X493800Y316901D02*
Y318101D01*
X280200Y186601D02*
X281400D01*
X280800Y186001D02*
Y187201D01*
X266752Y94417D02*
X267952D01*
X267352Y93817D02*
Y95017D01*
X260152Y94017D02*
X261352D01*
X260752Y93417D02*
Y94617D01*
X317257Y255666D02*
X318458D01*
X317858Y255066D02*
Y256266D01*
X338222Y255863D02*
X339422D01*
X338822Y255263D02*
Y256463D01*
X340880Y255568D02*
X342079D01*
X341479Y254968D02*
Y256168D01*
X365888Y141613D02*
X367088D01*
X366488Y141013D02*
Y142213D01*
X371300Y143401D02*
X372500D01*
X371900Y142801D02*
Y144001D01*
X313314Y88744D02*
X314514D01*
X313914Y88144D02*
Y89344D01*
X333907Y100606D02*
X335107D01*
X334507Y100006D02*
Y101206D01*
X263161Y93911D02*
X264361D01*
X263761Y93311D02*
Y94511D01*
X497218Y223382D02*
X498418D01*
X497818Y222782D02*
Y223983D01*
X498818Y224983D02*
X500018D01*
X499418Y224382D02*
Y225583D01*
X495950Y228351D02*
X497150D01*
X496550Y227751D02*
Y228951D01*
X306600Y102501D02*
X307800D01*
X307200Y101901D02*
Y103101D01*
X486900Y27801D02*
X488100D01*
X487500Y27201D02*
Y28401D01*
X488100Y50000D02*
X489300D01*
X488700Y49400D02*
Y50600D01*
X492100Y50100D02*
X493300D01*
X492700Y49500D02*
Y50700D01*
X503900Y59116D02*
X505100D01*
X504500Y58516D02*
Y59716D01*
X502128Y50159D02*
X503328D01*
X502728Y49559D02*
Y50759D01*
X499372Y54884D02*
X500572D01*
X499972Y54284D02*
Y55484D01*
X590821Y243608D02*
X592021D01*
X591421Y243008D02*
Y244208D01*
X591018Y247053D02*
X592218D01*
X591618Y246453D02*
Y247653D01*
X590624Y220281D02*
X591824D01*
X591224Y219681D02*
Y220881D01*
X590624Y216836D02*
X591824D01*
X591224Y216236D02*
Y217436D01*
X603715Y264573D02*
X604915D01*
X604315Y263972D02*
Y265173D01*
X574975Y262014D02*
X576175D01*
X575575Y261414D02*
Y262614D01*
X572711Y264179D02*
X573911D01*
X573311Y263579D02*
Y264779D01*
X557357Y260931D02*
X558557D01*
X557957Y260331D02*
Y261531D01*
X557357Y257683D02*
X558557D01*
X557957Y257083D02*
Y258283D01*
X564837Y252958D02*
X566037D01*
X565437Y252358D02*
Y253558D01*
X567691Y252663D02*
X568891D01*
X568291Y252063D02*
Y253263D01*
X596924Y340065D02*
X598124D01*
X597524Y339465D02*
Y340665D01*
X595250Y337604D02*
X596450D01*
X595850Y337004D02*
Y338204D01*
X582061Y343116D02*
X583261D01*
X582661Y342516D02*
Y343716D01*
X585408Y343313D02*
X586608D01*
X586008Y342713D02*
Y343913D01*
X548203Y335242D02*
X549403D01*
X548803Y334642D02*
Y335842D01*
X545546Y335045D02*
X546746D01*
X546146Y334445D02*
Y335645D01*
X542790Y335635D02*
X543990D01*
X543390Y335035D02*
Y336235D01*
X553026Y355124D02*
X554226D01*
X553626Y354524D02*
Y355724D01*
X552140Y357781D02*
X553340D01*
X552740Y357181D02*
Y358381D01*
X558538Y357584D02*
X559738D01*
X559138Y356984D02*
Y358184D01*
X556077Y356895D02*
X557277D01*
X556677Y356295D02*
Y357495D01*
X567987Y357880D02*
X569187D01*
X568587Y357280D02*
Y358480D01*
X565723Y356403D02*
X566923D01*
X566323Y355803D02*
Y357003D01*
X260995Y160245D02*
X262195D01*
X261595Y159645D02*
Y160845D01*
X254705Y197941D02*
X255905D01*
X255305Y197341D02*
Y198541D01*
X331300Y15833D02*
X332500D01*
X331900Y15233D02*
Y16433D01*
X269952Y94317D02*
X271152D01*
X270552Y93717D02*
Y94917D01*
X273552Y94217D02*
X274752D01*
X274152Y93617D02*
Y94817D01*
X245252Y88517D02*
X246452D01*
X245852Y87917D02*
Y89117D01*
X241952Y88517D02*
X243152D01*
X242552Y87917D02*
Y89117D01*
X243852Y81617D02*
X245052D01*
X244452Y81017D02*
Y82217D01*
X428084Y216482D02*
X429284D01*
X428684Y215882D02*
Y217082D01*
X324621Y395110D02*
X325821D01*
X325221Y394510D02*
Y395710D01*
X250022Y439600D02*
X251222D01*
X250622Y439000D02*
Y440200D01*
X321221Y375610D02*
X322421D01*
X321821Y375010D02*
Y376210D01*
X330221Y375610D02*
X331421D01*
X330821Y375010D02*
Y376210D01*
X311721Y375610D02*
X312921D01*
X312321Y375010D02*
Y376210D01*
X338721Y375610D02*
X339921D01*
X339321Y375010D02*
Y376210D01*
X327221Y402110D02*
X328421D01*
X327821Y401510D02*
Y402710D01*
X317721Y402110D02*
X318921D01*
X318321Y401510D02*
Y402710D01*
X267600Y416900D02*
X268800D01*
X268200Y416300D02*
Y417500D01*
X267900Y408900D02*
X269100D01*
X268500Y408300D02*
Y409500D01*
X267400Y399600D02*
X268600D01*
X268000Y399000D02*
Y400200D01*
X258200Y399900D02*
X259400D01*
X258800Y399300D02*
Y400500D01*
X258000Y409100D02*
X259200D01*
X258600Y408500D02*
Y409700D01*
X338721Y367610D02*
X339921D01*
X339321Y367010D02*
Y368210D01*
X292121Y449710D02*
X293321D01*
X292721Y449110D02*
Y450310D01*
X283021Y415060D02*
X284221D01*
X283621Y414460D02*
Y415660D01*
X335621Y415010D02*
X336821D01*
X336221Y414410D02*
Y415610D01*
X351121Y415510D02*
X352321D01*
X351721Y414910D02*
Y416110D01*
X359221Y415410D02*
X360421D01*
X359821Y414810D02*
Y416010D01*
X343521Y415110D02*
X344721D01*
X344121Y414510D02*
Y415710D01*
X301321Y450910D02*
X302521D01*
X301921Y450310D02*
Y451510D01*
X329721Y367610D02*
X330921D01*
X330321Y367010D02*
Y368210D01*
X258200Y416800D02*
X259400D01*
X258800Y416200D02*
Y417400D01*
X321221Y368110D02*
X322421D01*
X321821Y367510D02*
Y368710D01*
X311721Y367610D02*
X312921D01*
X312321Y367010D02*
Y368210D01*
X292721Y407110D02*
X293921D01*
X293321Y406510D02*
Y407710D01*
X438100Y126901D02*
X439300D01*
X438700Y126301D02*
Y127501D01*
X435600Y128401D02*
X436800D01*
X436200Y127801D02*
Y129001D01*
X435500Y125901D02*
X436700D01*
X436100Y125301D02*
Y126501D01*
X430500Y114101D02*
X431700D01*
X431100Y113501D02*
Y114701D01*
X525999Y318000D02*
X527199D01*
X526599Y317400D02*
Y318600D01*
X523199Y317500D02*
X524399D01*
X523799Y316900D02*
Y318100D01*
X522345Y305473D02*
X523545D01*
X522945Y304873D02*
Y306073D01*
X585200Y186101D02*
X586400D01*
X585800Y185501D02*
Y186701D01*
X421000Y100501D02*
X422200D01*
X421600Y99901D02*
Y101101D01*
X424000Y100301D02*
X425200D01*
X424600Y99701D02*
Y100901D01*
X431200Y111401D02*
X432400D01*
X431800Y110801D02*
Y112001D01*
X407113Y110291D02*
X408313D01*
X407713Y109691D02*
Y110891D01*
X372113Y118091D02*
X373313D01*
X372713Y117491D02*
Y118691D01*
X469800Y109301D02*
X471000D01*
X470400Y108701D02*
Y109901D01*
X489700Y76101D02*
X490900D01*
X490300Y75501D02*
Y76701D01*
X482500Y91901D02*
X483700D01*
X483100Y91301D02*
Y92501D01*
X565900Y163401D02*
X567100D01*
X566500Y162801D02*
Y164001D01*
X565900Y166001D02*
X567100D01*
X566500Y165401D02*
Y166601D01*
X535400Y297801D02*
X536600D01*
X536000Y297201D02*
Y298401D01*
X521600Y292001D02*
X522800D01*
X522200Y291401D02*
Y292601D01*
X521700Y295001D02*
X522900D01*
X522300Y294401D02*
Y295601D01*
X493500Y228001D02*
X494700D01*
X494100Y227401D02*
Y228601D01*
X470700Y248001D02*
X471900D01*
X471300Y247401D02*
Y248601D01*
X587100Y156501D02*
X588300D01*
X587700Y155901D02*
Y157101D01*
M02*
