G04*
G04 #@! TF.GenerationSoftware,Altium Limited,Altium Designer,24.2.2 (26)*
G04*
G04 Layer_Color=255*
%FSLAX25Y25*%
%MOIN*%
G70*
G04*
G04 #@! TF.SameCoordinates,68C129F3-C7C4-414E-B264-5C09C29A3FA5*
G04*
G04*
G04 #@! TF.FilePolarity,Positive*
G04*
G01*
G75*
%ADD21R,0.03740X0.01575*%
%ADD23R,0.02200X0.03500*%
%ADD28R,0.03500X0.02200*%
%ADD33R,0.04331X0.02362*%
%ADD34R,0.03200X0.03500*%
%ADD35R,0.03600X0.06500*%
%ADD36R,0.06500X0.03600*%
%ADD37R,0.03500X0.03200*%
%ADD50C,0.03937*%
%ADD51R,0.03740X0.03543*%
%ADD52R,0.03543X0.03740*%
%ADD93C,0.33071*%
%ADD94C,0.03560*%
%ADD95C,0.03543*%
%ADD96C,0.15000*%
%ADD97C,0.09350*%
%ADD98C,0.03900*%
%ADD108R,0.01181X0.01673*%
%ADD109R,0.04882X0.08740*%
%ADD110R,0.08740X0.04882*%
%ADD111R,0.04331X0.04921*%
%ADD112R,0.04921X0.04331*%
%ADD113R,0.03150X0.03543*%
%ADD114R,0.05100X0.03200*%
%ADD115R,0.03200X0.01200*%
%ADD116R,0.04331X0.02362*%
%ADD117R,0.03937X0.02362*%
%ADD118R,0.01100X0.06890*%
%ADD119R,0.06890X0.01100*%
%ADD120R,0.02756X0.00984*%
%ADD121R,0.10433X0.13307*%
%ADD122R,0.01200X0.03200*%
%ADD123R,0.04800X0.04100*%
%ADD124R,0.04100X0.04800*%
%ADD125C,0.03100*%
%ADD126R,0.04724X0.03937*%
%ADD127R,0.05512X0.13780*%
%ADD128R,0.02362X0.03937*%
D21*
X566323Y353155D02*
D03*
Y350596D02*
D03*
Y348037D02*
D03*
X557661Y353155D02*
D03*
Y348037D02*
D03*
D23*
X411750Y234001D02*
D03*
X404450D02*
D03*
X315550Y244100D02*
D03*
X322850D02*
D03*
X375450Y138600D02*
D03*
X368150D02*
D03*
X338250Y139200D02*
D03*
X345550D02*
D03*
X317259Y251434D02*
D03*
X324559D02*
D03*
X338543D02*
D03*
X331243D02*
D03*
X294450Y208500D02*
D03*
X301750D02*
D03*
X415950Y141100D02*
D03*
X408650D02*
D03*
X415800Y148750D02*
D03*
X408500D02*
D03*
X404300Y248800D02*
D03*
X397000D02*
D03*
X404400Y241351D02*
D03*
X397100D02*
D03*
X284950Y171101D02*
D03*
X292250D02*
D03*
X285050Y178901D02*
D03*
X292350D02*
D03*
X286250Y197700D02*
D03*
X293550D02*
D03*
X296950Y186500D02*
D03*
X304250D02*
D03*
X295550Y216500D02*
D03*
X302850D02*
D03*
X288050Y224000D02*
D03*
X295350D02*
D03*
X235900Y270501D02*
D03*
X228600D02*
D03*
X238650Y248801D02*
D03*
X231350D02*
D03*
X497413Y54884D02*
D03*
X490113D02*
D03*
X491590Y27521D02*
D03*
X498890D02*
D03*
X561295Y257289D02*
D03*
X568595D02*
D03*
D28*
X317100Y384450D02*
D03*
Y391750D02*
D03*
X401700Y136950D02*
D03*
Y144250D02*
D03*
X248200Y195100D02*
D03*
Y202400D02*
D03*
X248900Y173950D02*
D03*
Y181250D02*
D03*
X427800Y412451D02*
D03*
Y405151D02*
D03*
X305800Y139850D02*
D03*
Y147150D02*
D03*
X581300Y395150D02*
D03*
Y402450D02*
D03*
X496400Y407550D02*
D03*
Y400250D02*
D03*
X467600Y392650D02*
D03*
Y399950D02*
D03*
X401100Y412651D02*
D03*
Y405351D02*
D03*
X351300Y251750D02*
D03*
Y244450D02*
D03*
X325221Y391760D02*
D03*
Y384460D02*
D03*
X298021Y421860D02*
D03*
Y429160D02*
D03*
X336221Y419710D02*
D03*
Y427010D02*
D03*
X333200Y391750D02*
D03*
Y384450D02*
D03*
X302400Y230750D02*
D03*
Y223450D02*
D03*
X295000Y238100D02*
D03*
Y230800D02*
D03*
X288900Y154450D02*
D03*
Y161750D02*
D03*
X344088Y419710D02*
D03*
Y427010D02*
D03*
X559500Y392951D02*
D03*
Y400251D02*
D03*
X549689Y355427D02*
D03*
Y348127D02*
D03*
X587287Y347045D02*
D03*
Y354345D02*
D03*
X351955Y419710D02*
D03*
Y427010D02*
D03*
X359821Y419710D02*
D03*
Y427010D02*
D03*
D33*
X410600Y405261D02*
D03*
Y409001D02*
D03*
Y412741D02*
D03*
X420836D02*
D03*
Y405261D02*
D03*
D34*
X379050Y304400D02*
D03*
X373950D02*
D03*
X247900Y225100D02*
D03*
X253000D02*
D03*
X415650Y265500D02*
D03*
X410550D02*
D03*
X267150Y189000D02*
D03*
X262050D02*
D03*
X414100Y226300D02*
D03*
X409000D02*
D03*
X390150Y248700D02*
D03*
X385050D02*
D03*
X414800Y194200D02*
D03*
X409700D02*
D03*
X414400Y218000D02*
D03*
X409300D02*
D03*
X504509Y54884D02*
D03*
X509609D02*
D03*
X589050Y411701D02*
D03*
X594150D02*
D03*
X594200Y403901D02*
D03*
X589100D02*
D03*
X359500Y283400D02*
D03*
X354400D02*
D03*
X289350Y186401D02*
D03*
X284250D02*
D03*
X313800Y130300D02*
D03*
X308700D02*
D03*
X514550Y20301D02*
D03*
X509450D02*
D03*
X509250Y400600D02*
D03*
X504150D02*
D03*
X240650Y241701D02*
D03*
X235550D02*
D03*
X440900Y405201D02*
D03*
X435800D02*
D03*
X222850Y247601D02*
D03*
X217750D02*
D03*
X549778Y340262D02*
D03*
X544678D02*
D03*
X435800Y412701D02*
D03*
X440900D02*
D03*
D35*
X300250Y258001D02*
D03*
X308150D02*
D03*
D36*
X577000Y355950D02*
D03*
Y348050D02*
D03*
X598000Y346850D02*
D03*
Y354750D02*
D03*
D37*
X557500Y407450D02*
D03*
Y412550D02*
D03*
X264500Y428450D02*
D03*
Y423350D02*
D03*
X469900Y412651D02*
D03*
Y407551D02*
D03*
X228100Y283401D02*
D03*
Y278301D02*
D03*
X289821Y423860D02*
D03*
Y428960D02*
D03*
X614157Y232280D02*
D03*
Y227180D02*
D03*
D50*
X582100Y409201D02*
D03*
X351500Y394101D02*
D03*
X420200Y215000D02*
D03*
X503500Y393558D02*
D03*
X277222Y428860D02*
D03*
X396800Y255300D02*
D03*
X206700Y255801D02*
D03*
X435900Y399201D02*
D03*
X498988Y20238D02*
D03*
X490228Y46222D02*
D03*
X234400Y278301D02*
D03*
X463400Y407301D02*
D03*
X427700Y418501D02*
D03*
X438100Y420001D02*
D03*
X586100Y419801D02*
D03*
X545100Y411400D02*
D03*
X594500Y418500D02*
D03*
X371700Y297500D02*
D03*
X351500Y272300D02*
D03*
X403000Y150000D02*
D03*
X330176Y417400D02*
D03*
X286900Y439500D02*
D03*
D51*
X447552Y383600D02*
D03*
X454048D02*
D03*
X609248Y390500D02*
D03*
X602752D02*
D03*
X408700Y182501D02*
D03*
X415196D02*
D03*
X302848Y163900D02*
D03*
X296352D02*
D03*
X530996Y28301D02*
D03*
X524500D02*
D03*
X344773Y384710D02*
D03*
X351269D02*
D03*
D52*
X609300Y134948D02*
D03*
Y128452D02*
D03*
X313700Y137552D02*
D03*
Y144048D02*
D03*
X309700Y72196D02*
D03*
Y65700D02*
D03*
X525600Y407248D02*
D03*
Y400752D02*
D03*
X236400Y297148D02*
D03*
Y290652D02*
D03*
X292721Y439110D02*
D03*
Y445606D02*
D03*
D93*
X644685Y433563D02*
D03*
Y25984D02*
D03*
X205118D02*
D03*
Y434252D02*
D03*
D94*
X608980Y333195D02*
D03*
X613980D02*
D03*
X593980D02*
D03*
X588980D02*
D03*
X603980D02*
D03*
X598980D02*
D03*
X613980Y268195D02*
D03*
X598980D02*
D03*
X593980D02*
D03*
X608980D02*
D03*
X603980D02*
D03*
X578980D02*
D03*
X573980D02*
D03*
X568980D02*
D03*
X583980D02*
D03*
X588980D02*
D03*
D95*
X497600Y181501D02*
D03*
X505474D02*
D03*
X501537Y177564D02*
D03*
D96*
X647800Y100400D02*
D03*
X647342Y137992D02*
D03*
X208400Y297100D02*
D03*
Y233700D02*
D03*
X453500Y424100D02*
D03*
X401600Y423801D02*
D03*
X503900D02*
D03*
X548600D02*
D03*
X525600D02*
D03*
X610900D02*
D03*
X467100Y22600D02*
D03*
X548600D02*
D03*
X240800Y423801D02*
D03*
X377700D02*
D03*
D97*
X402800Y13801D02*
D03*
X425300D02*
D03*
X402800Y33801D02*
D03*
X425300D02*
D03*
D98*
X395300Y19805D02*
D03*
Y27797D02*
D03*
X425300Y23801D02*
D03*
D108*
X255403Y200748D02*
D03*
Y203207D02*
D03*
D109*
X566509Y412401D02*
D03*
X575091D02*
D03*
D110*
X219300Y255609D02*
D03*
Y264192D02*
D03*
D111*
X253150Y216101D02*
D03*
X259450D02*
D03*
D112*
X278721Y415161D02*
D03*
Y421460D02*
D03*
D113*
X299046Y193059D02*
D03*
Y200343D02*
D03*
X304754D02*
D03*
Y193059D02*
D03*
D114*
X301700Y172401D02*
D03*
Y178001D02*
D03*
D115*
X574100Y402819D02*
D03*
Y400260D02*
D03*
Y397701D02*
D03*
X566800D02*
D03*
Y400260D02*
D03*
Y402819D02*
D03*
D116*
X477448Y400472D02*
D03*
Y404213D02*
D03*
Y407953D02*
D03*
X487684Y400472D02*
D03*
D117*
Y407953D02*
D03*
D118*
X321194Y234416D02*
D03*
X323162D02*
D03*
X325131D02*
D03*
X327099D02*
D03*
X329068D02*
D03*
X331036D02*
D03*
X333005D02*
D03*
X334973D02*
D03*
X336942D02*
D03*
X338910D02*
D03*
X340879D02*
D03*
X342847D02*
D03*
X344816D02*
D03*
X346784D02*
D03*
X348753D02*
D03*
X350722D02*
D03*
X352690D02*
D03*
X354659D02*
D03*
X356627D02*
D03*
X358595D02*
D03*
X360564D02*
D03*
X362532D02*
D03*
X364501D02*
D03*
X366470D02*
D03*
X368438D02*
D03*
X370407D02*
D03*
X372375D02*
D03*
X374343D02*
D03*
X376312D02*
D03*
X378280D02*
D03*
X380249D02*
D03*
X382218D02*
D03*
X384186D02*
D03*
X386155D02*
D03*
X388123D02*
D03*
X390091D02*
D03*
Y148766D02*
D03*
X388123D02*
D03*
X386155D02*
D03*
X384186D02*
D03*
X382218D02*
D03*
X380249D02*
D03*
X378280D02*
D03*
X376312D02*
D03*
X374343D02*
D03*
X372375D02*
D03*
X370407D02*
D03*
X368438D02*
D03*
X366470D02*
D03*
X364501D02*
D03*
X362532D02*
D03*
X360564D02*
D03*
X358595D02*
D03*
X356627D02*
D03*
X354659D02*
D03*
X352690D02*
D03*
X350722D02*
D03*
X348753D02*
D03*
X346784D02*
D03*
X344816D02*
D03*
X342847D02*
D03*
X340879D02*
D03*
X338910D02*
D03*
X336942D02*
D03*
X334973D02*
D03*
X333005D02*
D03*
X331036D02*
D03*
X329068D02*
D03*
X327099D02*
D03*
X325131D02*
D03*
X323162D02*
D03*
X321194D02*
D03*
D119*
X312818Y157143D02*
D03*
Y159111D02*
D03*
Y161080D02*
D03*
Y163048D02*
D03*
Y165017D02*
D03*
Y166985D02*
D03*
Y168954D02*
D03*
Y170922D02*
D03*
Y172891D02*
D03*
Y174859D02*
D03*
Y176828D02*
D03*
Y178796D02*
D03*
Y180765D02*
D03*
Y182733D02*
D03*
Y184702D02*
D03*
Y186670D02*
D03*
Y188639D02*
D03*
Y190607D02*
D03*
Y192576D02*
D03*
Y194544D02*
D03*
Y196513D02*
D03*
Y198481D02*
D03*
Y200450D02*
D03*
Y202418D02*
D03*
Y204387D02*
D03*
Y206355D02*
D03*
Y208324D02*
D03*
Y210292D02*
D03*
Y212261D02*
D03*
Y214229D02*
D03*
Y216198D02*
D03*
Y218166D02*
D03*
Y220135D02*
D03*
Y222103D02*
D03*
Y224072D02*
D03*
Y226040D02*
D03*
X398468D02*
D03*
Y224072D02*
D03*
Y222103D02*
D03*
Y220135D02*
D03*
Y218166D02*
D03*
Y216198D02*
D03*
Y214229D02*
D03*
Y212261D02*
D03*
Y210292D02*
D03*
Y208324D02*
D03*
Y206355D02*
D03*
Y204387D02*
D03*
Y202418D02*
D03*
Y200450D02*
D03*
Y198481D02*
D03*
Y196513D02*
D03*
Y194544D02*
D03*
Y192576D02*
D03*
Y190607D02*
D03*
Y188639D02*
D03*
Y186670D02*
D03*
Y184702D02*
D03*
Y182733D02*
D03*
Y180765D02*
D03*
Y178796D02*
D03*
Y176828D02*
D03*
Y174859D02*
D03*
Y172891D02*
D03*
Y170922D02*
D03*
Y168954D02*
D03*
Y166985D02*
D03*
Y165017D02*
D03*
Y163048D02*
D03*
Y161080D02*
D03*
Y159111D02*
D03*
Y157143D02*
D03*
D120*
X327121Y437453D02*
D03*
Y435484D02*
D03*
Y433516D02*
D03*
Y431547D02*
D03*
Y429579D02*
D03*
Y427610D02*
D03*
X312161Y437453D02*
D03*
Y435484D02*
D03*
Y433516D02*
D03*
Y431547D02*
D03*
Y429579D02*
D03*
Y427610D02*
D03*
D121*
X319641Y432532D02*
D03*
D122*
X228841Y263251D02*
D03*
X231400D02*
D03*
X233959D02*
D03*
Y255951D02*
D03*
X231400D02*
D03*
X228841D02*
D03*
D123*
X224150Y202300D02*
D03*
X239850D02*
D03*
D124*
X261300Y164600D02*
D03*
Y180300D02*
D03*
D125*
X420300Y26301D02*
D03*
X415300D02*
D03*
X410300D02*
D03*
X405300D02*
D03*
X400300D02*
D03*
Y21301D02*
D03*
X405300D02*
D03*
X410300D02*
D03*
X415300D02*
D03*
X420300D02*
D03*
D126*
X301921Y438710D02*
D03*
Y446584D02*
D03*
D127*
X597622Y213293D02*
D03*
X613764D02*
D03*
X597524Y248037D02*
D03*
X613665D02*
D03*
D128*
X498988Y46025D02*
D03*
X502728D02*
D03*
X506468D02*
D03*
Y35395D02*
D03*
X498988D02*
D03*
M02*
