M48
;Layer_Color=9474304
;FILE_FORMAT=2:5
INCH,TZ
;TYPE=PLATED
T01F00S00C0.01000
T02F00S00C0.01200
T03F00S00C0.01968
T04F00S00C0.02000
T05F00S00C0.02087
T06F00S00C0.02165
T07F00S00C0.09400
T08F00S00C0.14173
;TYPE=NON_PLATED
T09F00S00C0.03900
T10F00S00C0.09350
%
T01
X319685Y429626
X319783Y436221
T02
X212008Y50591
X237008
X242000Y59400
X244300Y60700
X244452Y81617
X241800Y81801
X242552Y88517
X245852
X260752Y94017
X263761Y93911
X267352Y94417
X270552Y94317
X274152Y94217
X286200Y94800
X289000Y94900
X289551Y79001
Y75501
X287995Y72613
X287852Y69616
X298752Y70567
X298200Y52600
X301785Y48450
X299493Y40308
X296200Y41494
X294744Y44677
X291412Y45749
X288410Y43949
X286566Y40975
X284091Y43449
X281200Y46400
X273900Y45900
X276500Y43100
X274500Y39900
X279100Y40500
X281700Y37900
X284500Y35700
X288400Y35300
X292200Y35200
X296000
X297270Y31850
X293587Y31787
X290087
X286587
X282500Y32200
X279700Y34700
X277100Y37100
X273400Y33200
X276300Y30100
X278600Y27300
X278700Y22600
X283300Y20500
X286800Y23200
X289196Y26213
X292696
X296197
X299696
X303900Y26200
X304415Y35387
X302216Y38109
X310800Y62300
X273922Y59611
X269675Y59521
X268340Y49582
Y46082
Y42582
X268378Y39083
X270301Y36158
X274508Y25591
X249508
X229100Y69500
X199508Y75590
X212008Y100591
X224508Y125591
X249508
X249700Y106300
X261700Y102500
X282000Y109500
X308110Y104591
X307200Y102501
X305600Y130300
X299508Y125591
X310350Y140178
X308700Y149000
X288800Y151700
X262008Y150591
X237008
X212008
X199508Y125591
X274508Y75590
X312759Y76942
Y79942
X312700Y83001
Y86001
X313914Y88744
X314500Y73700
X314900Y64300
X315900Y55901
X315700Y53401
X321000Y59600
X324175Y60093
X325800Y56700
X324508Y75590
X339113Y76589
Y80089
Y83589
Y87089
X339851Y90511
X346529Y91977
X345214Y86404
X344687Y82944
Y79444
X344698Y75944
X347500Y73100
X339721Y73142
X342144Y70616
X352887Y65096
X360539Y63657
Y67157
Y70657
Y74157
Y77657
Y81157
X374508Y75590
X378000Y85301
X379800Y87901
X381700Y92701
X387008Y100591
X387113Y104191
Y107050
X390512Y105541
Y103200
X395512Y117101
X407713Y110291
X421600Y100501
X424600Y100301
X437008Y100591
X440900Y102200
X437800Y105500
X434900Y108900
X431800Y111401
X431100Y114101
X429800Y117000
X427966Y120202
X424496Y121972
X426000Y123900
X426100Y127700
X426300Y131600
Y136000
X426400Y139900
X420800Y136700
X418350Y141000
X420600Y143400
X418350Y146950
X418650Y149935
X413000Y151900
X410200Y153400
X421000Y155700
X425200Y154000
X437008Y150591
X436200Y128401
X436100Y125901
X438700Y126901
X436807Y119575
X437887Y116246
X438182Y112758
X444400Y106500
X448082Y102859
X444500Y98900
X446900Y95900
X450000Y92800
X453100Y90200
X457100Y89300
X461069Y88380
X464115Y86656
X468600Y86900
X467800Y99500
X464500Y102500
X462600Y97800
X458978Y94987
X455100Y95600
X452600Y98500
X455934Y117516
X463100Y114500
X462900Y124401
X464900Y126201
X449508Y125591
X401700Y134400
X398400Y146900
X375800Y143200
X371900Y143401
X366488Y141613
X349080Y143572
X345550Y136850
X335900Y139300
X317400Y142200
X317300Y144800
X319775Y98825
X330469Y103446
X333453Y103754
X334507Y100606
X337926Y100401
X345352Y102389
X348300Y102395
X362008Y100591
X363100Y108800
X371400Y110500
X372713Y118091
X398800Y85001
X399508Y75590
X387900Y55401
X415400Y55001
X419000Y55401
X412008Y50591
X411100Y30100
X418373Y17105
X449508Y25591
X462008Y50591
X437600Y55601
X362008Y50591
X354261Y51969
X351200Y48500
X348200Y45200
X344700Y42500
X342500Y39200
X338600Y38900
X339500Y34900
X334900Y32500
X332000Y29900
X327400Y33100
X324100Y31300
X325600Y14933
X328800Y15033
X331900Y15833
X349508Y25591
X374508
X341141Y49959
X488700Y50000
X492700Y50100
X494500Y46300
X502728Y50159
X499972Y54884
X504500Y59116
X490300Y76101
X486500Y92401
X483100Y91901
X481800Y97900
X477800Y97300
X472500Y97900
X468900Y94900
Y90400
X470700Y105300
X470400Y109301
Y112100
X474200Y103300
X482800Y103700
X482600Y108600
X488900Y117000
X488800Y119600
X497100Y111800
X500400Y114900
X503500Y118000
X506400Y121100
X509093Y123834
X512100Y126800
X514500Y129500
X517300Y132200
X520000Y134600
X522500Y137400
X525200Y139700
X528500Y142100
X533013Y142792
X537100Y143500
X536800Y147000
X540100Y149300
X544400
X545500Y145800
Y142000
X545085Y138022
X541670Y137256
X538170Y137218
X534670
X530600Y136800
X527800Y134600
X524800Y131800
X522200Y129300
X519500Y126800
X516900Y123900
X514300Y121300
X511800Y118600
X508900Y115800
X505800Y112300
X502700Y109100
X508400Y103301
Y100601
X515400Y113400
X524508Y125591
X548100Y125900
X548313Y122005
Y118505
Y115005
X547600Y110800
X546200Y106000
X543600Y102900
X540731Y100069
X538000Y97500
X538756Y93435
X538900Y88900
X543900Y88700
X547800Y90700
X546400Y94300
X546600Y98200
X556476Y103809
X558112Y110146
X561068Y112020
X564568Y112038
X568504Y113091
X565800Y105600
X562008Y100591
X556700Y114000
X554000Y111400
X553887Y116820
X554700Y120400
X553887Y123820
X554332Y127292
X558400Y128400
X560000Y132400
X563600Y130200
X566900Y132800
X567100Y137100
X565300Y140700
X560700Y140100
X556600Y140200
X555400Y136300
X553200Y133500
X548900Y133600
X547100Y129700
X554900Y156000
X568600Y155000
X571080Y156001
X589400Y154400
X612008Y150591
X603952Y128452
X597000Y112700
X588800Y116700
X588900Y99700
X612008Y100591
X604500Y89901
X604800Y87101
Y84401
X599508Y75590
X624508
X612008Y50591
X587008
X562008
X537008
X549508Y75590
X574508
Y25591
X599508
X624508
Y125591
X507850Y147600
X508300Y150400
X480200Y150100
Y147000
X473900Y151901
X472200Y131800
X474508Y125591
X486400Y139300
X524508Y75590
X519500Y28301
X519064Y20266
X487500Y27801
X637008Y50591
X662008
X649508Y75590
X662008Y100591
X637008
X649508Y125591
X662008Y150591
X637008
X649508Y175591
X662008Y200591
X637008
X649508Y225590
X662008Y250590
X637008
X649508Y275590
X662008Y300590
X637008
X612008
X587008
X562008
X536000Y297801
X538700Y306500
X522945Y305473
X522325Y303272
X522300Y295001
X522200Y292001
X524508Y275590
X549508
X545309Y258891
X557957Y257683
Y260931
X562008Y250590
X565437Y252958
X568291Y252663
X579500Y257801
X584000
X589000Y262301
X588900Y265001
X591732Y272539
X601673
X604315Y264573
X604200Y261901
X591618Y247053
X591421Y243608
X587008Y250590
X575575Y262014
X573311Y264179
X574508Y275590
X557700Y246501
X551734Y243653
X549508Y225590
X543800Y214500
X536600Y217300
X533500Y211000
X540400Y195900
X540600Y163400
X566500Y163401
Y166001
X574508Y175591
X585800Y186101
X586000Y188700
X584300Y191000
X599508Y175591
X624508
X587700Y156501
X591224Y216836
Y220281
X599508Y225590
X574508
X537008Y250590
X487008
X475400Y252844
X475300Y259100
X471310Y255560
X471300Y248001
X470100Y262150
X474508Y275590
X480800Y295800
X478400Y302900
X472500Y306800
X486044Y305901
X485876Y309397
X487008Y300590
X492100Y298900
X494791Y282409
X502100Y289600
X522100Y311700
X496550Y228351
X494100Y228001
X497818Y223382
X499418Y224983
X485870Y221392
X483400Y221500
X477800Y195900
X473700Y159900
X513800Y162000
X624508Y275590
X449700Y273300
X446800Y276100
X444000Y279000
X439605Y275655
X443100Y271300
X430809Y266109
X427000Y261200
X423300Y260100
X431336Y251963
X433259Y249859
X427135Y239501
X428068Y236369
X425200Y233001
X419200Y232001
X414100Y233901
X404500Y236600
X408350Y241200
Y251700
X409388Y277495
X415339Y276913
X418839
X422339
X425839
X427073Y282487
X430573
X423573
X400921Y284138
X399073Y282487
X394200Y282600
X389900Y283300
X385700Y282400
X388500Y278700
X388600Y274700
X390475Y271411
X390644Y266369
X386808Y269744
X382800Y269700
X382600Y265900
Y262300
X383100Y258200
X383900Y241901
X367100Y242400
X368151Y239196
X366492Y229808
X357480Y228950
X361800Y224200
X362008Y200591
X374400Y203100
X388100Y203200
X387900Y195500
X390500Y196000
X390300Y209000
X406180Y204834
X410200Y199100
X418500Y195700
X422677Y197330
X426768Y199385
X424053Y204711
X428684Y216482
X439806Y216591
X442300Y223600
X444600Y221600
X446800Y222800
X438941Y230741
X436500Y231700
X453351Y250342
X453200Y253900
Y257400
X454200Y261400
X456678Y249256
X459786Y247647
X463286Y247602
X466786
X463200Y255500
X462000Y297100
X453000Y299300
X452700Y302100
X458000Y311800
X438850Y312100
X437200Y305700
X423900Y310500
X415956Y311974
X415181Y308560
X412200Y311000
X408400Y311100
X406800Y307600
X404449Y304610
X398100Y309200
X395000Y306300
X391773Y303432
X392847Y297650
X396700Y298500
X386823Y298482
X383600Y295500
X389800Y294900
X392103Y289064
X399900Y288800
X404600
X410400Y294700
X414341Y297559
X389200Y308400
X391900Y311500
X385631Y305172
X378900Y298500
X375700Y295500
X376924Y288583
X374300Y285900
X372400Y282700
X366913Y280171
Y276671
X364345Y274294
X361505Y272248
X361648Y262283
Y258783
X360200Y252400
X358100Y250100
X356168Y247805
X352600Y242200
X347675Y246850
X351600Y252600
X341479Y255568
X338822Y255863
X320712Y255371
X317858Y255666
X316000Y246900
X318350Y242428
X323100Y246600
X321400Y228400
X322700Y215500
X317548Y216429
X318000Y188700
X328700Y188600
X324508Y175591
X320100Y162900
X333000Y157100
X347400Y163100
X349508Y175591
X374508
X391800Y178600
X391700Y183100
X404000Y184800
X407300Y176411
X409900
X404500Y171500
X406134Y168500
X420863Y168101
X421000Y165200
X424600Y158100
X424700Y183700
X417300Y185700
X416200Y188501
X447100Y189301
X450300Y189901
X443700Y197222
X443759Y202942
X458300Y208801
X455049Y212300
X467900Y208500
X465800Y188200
X462900
X460300Y163250
X393998Y159111
X337008Y200591
X324508Y275590
X339309Y303291
X342300Y304300
X347300Y306500
X362008Y300590
X364500Y289000
X368900Y290000
X374454Y275422
X372400Y269700
X370750Y266205
X367000Y266300
X394900Y269600
X398600Y272700
X397839Y276913
X299508Y275590
X295700Y258001
X287008Y250590
X295200Y241950
X302500Y233900
X298700Y227100
X297100Y224000
X293400Y216600
X291900Y208700
X298873Y202553
X286100Y199900
X280800Y186601
X270100Y189000
X274508Y175591
X285851Y174567
X287400Y176900
X294800Y186300
X305600Y188600
X307629Y184005
X292100Y164200
X261595Y160245
X248700Y171300
X248400Y192500
X255305Y197941
X262008Y200591
X274508Y225590
X285500Y224300
X244600Y225000
X243700Y243601
Y246501
X242000Y250101
X240200Y252401
X236400Y260701
X236700Y263701
X239100Y271301
X239900Y274501
X224508Y275590
X228150Y287251
X236300Y287400
X262008Y300590
X287008
X312008
X274508Y275590
X262008Y250590
X230000Y244901
X229600Y241801
X224508Y225590
X199508
X209500Y251000
X212200Y250601
X215196Y250305
X211727Y255609
X209700Y257301
X199508Y275590
X212008Y200591
X219900Y202400
X224508Y175591
X199508
Y325590
X224508
X249508
X274508
X299508
X312008Y350590
X312321Y367610
Y375610
X299508Y375590
X274508
X249508
X224508
X199508
X212008Y400591
X237008
X258800Y399900
X258600Y409100
X258800Y416800
X268200Y416900
X268500Y408900
X268000Y399600
X287008Y400591
X293321Y407110
X298100Y418000
X283621Y415060
X274508Y425591
X250622Y439600
X224508Y425591
X237008Y350590
X262008
X287008
X312008Y400591
X301921Y450910
X292721Y449710
X212008Y350590
X337008
X339321Y367610
Y375610
X330821
X330321Y367610
X321821Y368110
Y375610
X325221Y395110
X333000Y394800
X337008Y400591
X327821Y402110
X318321
X317021Y395110
X336221Y415010
X344121Y415110
X351721Y415510
X359821Y415410
X397900Y413101
X407400Y409101
X427750Y415476
X435900Y415601
X444200Y412601
X443900Y405601
X463300Y403700
X462500Y400200
X466800Y407401
X444500Y383700
X449508Y375590
X450200Y353000
X454600Y352800
X458015Y347497
X467600Y347500
X466800Y351300
X467728Y355073
X453519Y340519
X454100Y330500
X458900Y334300
X438850Y338000
Y345100
X436315Y352256
X431000Y342700
X428000Y339600
X425200Y336700
X422200Y333500
X418997Y330656
X416522Y328181
X413900Y325400
X411300Y322900
X408300Y320200
X407905Y327446
X410600Y330000
X413200Y332700
X416200Y335600
X419300Y338700
X422754Y342295
X420000Y324800
X424450Y314300
X413300Y314600
X401673Y313332
X395531Y315072
X401300Y320900
X404300Y324100
X399508Y325590
X374508
X349508
X324508
X362008Y350590
X424508Y375590
Y425591
X474508
X473677Y404213
X481900Y404000
X491500Y412100
X494200Y411000
X496600Y410900
X509300Y396100
X526100Y396252
X537008Y400591
X552700Y400301
X555700Y400401
X554900Y395750
X551651Y395673
X549200Y411300
X552700Y412800
X566100Y418601
X569000Y418801
X571700Y419101
X574508Y425591
X586100Y415501
X589200
X598670Y411507
X598600Y404001
X598400Y390600
X599508Y375590
X624508
X612008Y350590
X587008
X586008Y343313
X582661Y343116
X597524Y340065
X595850Y337604
X599508Y325590
X624508
X574508
X549508
X548803Y335242
X546146Y335045
X543390Y335635
X520200Y332800
X517000Y328100
X524508Y325590
X523799Y317500
X526599Y318000
X524900Y313600
X500550Y312659
Y315900
X497300Y314400
X493800Y317501
X490989Y321231
X493700Y324000
X496700Y327000
X489300Y327900
X486500Y325100
X480600Y327400
X480300Y335400
X481800Y342600
X477900
X472500Y341700
X485800Y342100
X493300Y342800
X494191Y338870
X494800Y349800
X491700Y352800
X487502Y354787
X486044Y357969
X484628Y361170
X479900Y361100
X480600Y368650
X499508Y375590
X524508
X550280Y358667
X552740Y357781
X553626Y355124
X556677Y356895
X559138Y357584
X566323Y356403
X568587Y357880
X562008Y350590
X574508Y375590
X570500Y394000
X570450Y397701
X584500Y395099
X599508Y425591
X624508
X471300Y392500
Y389800
X488364Y348196
X507471Y343578
X508500Y339200
X506800Y329200
X481900Y320300
X477500
X649508Y325590
X662008Y350590
X637008
X649508Y375590
X662008Y400591
X637008
T03
X196457Y16929
X205118Y13386
X214961Y18110
X217717Y25984
X214567Y34252
X205118Y38583
X196063Y34646
X192520Y25984
X632087
X635630Y34646
X644685Y38583
X654134Y34252
X657283Y25984
X654528Y18110
X644685Y13386
X636024Y16929
X214961Y426378
X217717Y434252
X214567Y442520
X205118Y446850
X196063Y442913
X192520Y434252
X196457Y425197
X205118Y421654
X636024Y424508
X644685Y420965
X654528Y425689
X657283Y433563
X654134Y441831
X644685Y446161
X635630Y442224
X632087Y433563
T04
X608252Y202368
T05
X497600Y181501
X505474
X501537Y177564
T06
X568980Y268195
X573980
X578980
X583980
X588980
X593980
X598980
X603980
X608980
X613980
Y333195
X608980
X603980
X598980
X593980
X588980
T07
X467100Y22600
X548600
X647800Y100400
X647342Y137992
X208400Y233700
Y297100
X240800Y423801
X377700
X401600
X453500Y424100
X503900Y423801
X525600
X548600
X610900
T08
X205118Y25984
X644685
X205118Y434252
X644685Y433563
T09
X395300Y19805
Y27797
X425300Y23801
T10
X402800Y13801
Y33801
X425300
Y13801
M30
